<svg xmlns="http://www.w3.org/2000/svg" viewBox="0 0 844.32 1194.98"><defs><style>.cls-1,.cls-2,.cls-3,.cls-4,.cls-5,.cls-7,.cls-8,.cls-9{fill:none;}.cls-1,.cls-2,.cls-3,.cls-4,.cls-5,.cls-7,.cls-8{stroke:#fff;}.cls-1,.cls-2,.cls-3,.cls-4,.cls-7{stroke-miterlimit:10;}.cls-1,.cls-4,.cls-5,.cls-7,.cls-8{stroke-width:2px;}.cls-2,.cls-7,.cls-8{stroke-linecap:round;}.cls-2{stroke-width:4px;}.cls-3{stroke-width:8px;}.cls-4,.cls-5{stroke-linecap:square;}.cls-5,.cls-8{stroke-linejoin:round;}.cls-6{fill:#fff;}</style></defs><title>pattern_white</title><g id="Lines"><rect class="cls-1" x="468.14" y="497.28" width="60.99" height="38.13" rx="7.07"/><line class="cls-2" x1="480.17" y1="548.23" x2="517.25" y2="548.23"/><line class="cls-1" x1="502.2" y1="505.33" x2="495.52" y2="527.06"/><path class="cls-1" d="M504,509.9l9.87,4.76a.58.58,0,0,1,0,1L504,520.3" transform="translate(1.39 1.01)"/><path class="cls-1" d="M490.93,509.9l-9.86,4.76a.57.57,0,0,0,0,1l9.85,4.6" transform="translate(1.39 1.01)"/><line class="cls-3" x1="498.55" y1="536.16" x2="498.55" y2="548.23"/><path class="cls-1" d="M388.91,748.05c5.29-.25,7.77-3.17,7.77-3.17s1.19-1,1.73-5.64a43.64,43.64,0,0,0,.22-4.41,1.27,1.27,0,0,1,.21-.6c4.94-6.79,10.68-13.69,6.42-21.51-3.17-5.81-9.22-10.29-16.35-10.46h0c-7.12.17-13,4.62-16.17,10.42-4.27,7.82,1.47,14.73,6.41,21.52a1.07,1.07,0,0,1,.21.57,44.26,44.26,0,0,0,.22,4.44c.55,4.65,1.73,5.64,1.73,5.64s2.4,2.95,7.69,3.2Z" transform="translate(1.39 1.01)"/><line class="cls-1" x1="381.17" y1="741.6" x2="399.61" y2="741.6"/><line class="cls-1" x1="380.72" y1="735.45" x2="400.05" y2="735.49"/><path class="cls-1" d="M389,726.23c2.92,1.49,6.45,2,8.84-.16,2.17-1.94,4.21-5.68,3.45-8.55-.94-.37-4-.24-6.08.33-3.29.91-5.78,4.21-6.21,8.34v8.27" transform="translate(1.39 1.01)"/><path class="cls-1" d="M389.07,726.23c-4.2.49-8.46-.31-10.6-3.56a10.38,10.38,0,0,1-1.44-7.28c.24-.06,5.51-1.32,9.31,2.5a10.13,10.13,0,0,1,2.66,8.3" transform="translate(1.39 1.01)"/><path class="cls-4" d="M563.05,636.6a.48.48,0,0,0-.75.12,2.6,2.6,0,0,1-1.77,1.21.48.48,0,0,0-.35.7,41.83,41.83,0,0,0,11.14,13.44.09.09,0,0,0,.15-.09,30.76,30.76,0,0,0-3.22-8.91A27.25,27.25,0,0,0,563.05,636.6Z" transform="translate(1.39 1.01)"/><path class="cls-4" d="M554.56,635.87a.49.49,0,0,0,.28-.72,2.6,2.6,0,0,1-.32-1.09,2.4,2.4,0,0,1,.16-1,.49.49,0,0,0-.43-.65,42.54,42.54,0,0,0-8.3.48,42.1,42.1,0,0,0-8.92,2.45.1.1,0,0,0,0,.18,29.65,29.65,0,0,0,17.52.4Z" transform="translate(1.39 1.01)"/><path class="cls-4" d="M559.66,628.31a.49.49,0,0,0,.45.62,2.4,2.4,0,0,1,1.1.3,2.59,2.59,0,0,1,.81.69.47.47,0,0,0,.77,0,41.78,41.78,0,0,0,6.68-16.13.1.1,0,0,0-.16-.09,29.76,29.76,0,0,0-9.65,14.63Z" transform="translate(1.39 1.01)"/><path class="cls-5" d="M561.24,676.2h-3.85c-.3,0-.55-.51-.54-.78L558.53,639a.51.51,0,0,1,.54-.46h.21a.52.52,0,0,1,.54.46l2,36.46C561.79,675.69,561.55,676.2,561.24,676.2Z" transform="translate(1.39 1.01)"/><circle class="cls-5" cx="560.61" cy="634.58" r="1.52"/><path class="cls-1" d="M393.39,619.91l-3.23.63a2.88,2.88,0,0,1-3.39-2.32l-3.55-20a1.25,1.25,0,0,1,1-1.44l5.75-1.12a1.25,1.25,0,0,1,1.46,1l4.24,19.87A2.89,2.89,0,0,1,393.39,619.91Z" transform="translate(1.39 1.01)"/><rect class="cls-1" x="381.95" y="578.89" width="6.81" height="17.5" transform="translate(-104.12 85.78) rotate(-11.05)"/><path class="cls-1" d="M387.07,578.41l0,0a7.44,7.44,0,0,1,3.32-2.23c3.09-1,6.74.24,9.47,3.08,0,0,.11,0,.09-.06a16.24,16.24,0,0,0-9.25-8.78c-5.54-1.95-11.66-.16-12.83.33l0,0c-.26.81.49,1.75.23,2.57a0,0,0,0,1-.05,0c-.79.13-1.29.34-2.09.46l-1.58.24a.39.39,0,0,1-.42-.25,3.35,3.35,0,0,0-.39-1.07,1.36,1.36,0,0,0-1.12-.59l-2.3.45a1.25,1.25,0,0,0-1,1.46l1.23,6.3a1.25,1.25,0,0,0,1.47,1l2.17-.43a1.25,1.25,0,0,0,1-1.46h0a1.38,1.38,0,0,1,1.22-1.51l2.54-.3a.66.66,0,0,1,.65.33l.88,1.67a0,0,0,0,0,.06,0Z" transform="translate(1.39 1.01)"/><path class="cls-1" d="M397.4,586.37" transform="translate(1.39 1.01)"/><path class="cls-1" d="M321.31,461.52" transform="translate(1.39 1.01)"/><path class="cls-1" d="M325.24,467.22" transform="translate(1.39 1.01)"/><path class="cls-1" d="M321.31,461.52l41.69-29,2.1-8.32a.72.72,0,0,1,1.29-.21L376,438.18a.72.72,0,0,1-.68,1.11l-8.51-1-41.54,28.91" transform="translate(1.39 1.01)"/><path class="cls-1" d="M325.24,467.22,307.15,476a.61.61,0,0,1-.66-1l14.82-13.51-5.72-11.41a1.82,1.82,0,0,0-2.71-.63l-17.72,12.95a5.82,5.82,0,0,0-1.44,1.53c-2,3.13-2.93,7.72-3.1,11.35-.24,5.07.07,8,1.14,10.66l.81,1.08c2.28,1.79,5,2.92,9.9,4.13,3.53.87,8.19,1.3,11.76.24a5.73,5.73,0,0,0,1.88-.94l17.49-11a1.82,1.82,0,0,0,.17-2.78Z" transform="translate(1.39 1.01)"/><path class="cls-1" d="M367.92,434.14l-.62-1v0l.1-.94a0,0,0,0,1,.06,0l1.45,2.16a0,0,0,0,1,0,.06l-.93-.26Z" transform="translate(1.39 1.01)"/><polyline class="cls-1" points="233.34 521.93 233.66 478.26 326.8 412.08 391.41 411.17"/><path class="cls-6" d="M390.07,413.93a3.76,3.76,0,1,0-3.81-3.71A3.76,3.76,0,0,0,390.07,413.93Z" transform="translate(1.39 1.01)"/><path class="cls-6" d="M390.08,414.43a4.26,4.26,0,1,1,4.2-4.32,4.26,4.26,0,0,1-4.2,4.32C387.73,414.46,392.43,414.39,390.08,414.43Zm-.1-7.52a3.26,3.26,0,1,0,3.3,3.21,3.26,3.26,0,0,0-3.3-3.21C388.18,406.93,391.77,406.88,390,406.91Z" transform="translate(1.39 1.01)"/><line class="cls-1" x1="537.68" y1="478.01" x2="537.68" y2="441.74"/><rect class="cls-1" x="646.86" y="491.05" width="7.81" height="11.11" rx="3.45"/><rect class="cls-1" x="659.41" y="491.05" width="7.81" height="11.11" rx="3.45"/><rect class="cls-1" x="646.86" y="508.3" width="7.81" height="11.11" rx="3.45"/><rect class="cls-1" x="659.41" y="508.3" width="7.81" height="11.11" rx="3.45"/><rect class="cls-1" x="691.17" y="491.05" width="7.81" height="11.11" rx="3.45"/><rect class="cls-1" x="703.72" y="491.05" width="7.81" height="11.11" rx="3.45"/><rect class="cls-1" x="691.17" y="508.3" width="7.81" height="11.11" rx="3.45"/><rect class="cls-1" x="703.72" y="508.3" width="7.81" height="11.11" rx="3.45"/><rect class="cls-1" x="671.83" y="504.91" width="14.6" height="20.78" rx="3.45"/><line class="cls-1" x1="679.42" y1="505.3" x2="679.13" y2="525.69"/><circle class="cls-1" cx="679.26" cy="484.36" r="8.77"/><path class="cls-4" d="M684.34,468.12H712a.38.38,0,0,1,.35.23l6.1,14.53a.37.37,0,0,1-.35.52H715.8v41.78H640.28V483.36" transform="translate(1.39 1.01)"/><path class="cls-4" d="M671.28,468.12H644.42a.37.37,0,0,0-.34.21l-6.85,14.53a.38.38,0,0,0,.34.54H659.8l18.06-22.19,18.28,22.19H715.8" transform="translate(1.39 1.01)"/><line class="cls-7" x1="679.25" y1="462.21" x2="679.25" y2="441.19"/><path class="cls-4" d="M677.86,443.19H689a.15.15,0,0,1,.13.23l-2,3.05s0,0,0,0l2,4a.15.15,0,0,1-.13.22H677.86" transform="translate(1.39 1.01)"/><polyline class="cls-7" points="679.13 480.1 679.26 484.36 677.46 486.79"/><path class="cls-1" d="M242.82,620.92" transform="translate(1.39 1.01)"/><path class="cls-1" d="M214.49,602.87l9.15,5.21A.23.23,0,0,0,224,608l3.7-6.55-6-10.47-.2.1a.27.27,0,0,0-.12.09c-1.35,1.84-2.46,3.88-3.85,6.1-1.13,1.83-2.14,3.61-3,5.31A.23.23,0,0,0,214.49,602.87Z" transform="translate(1.39 1.01)"/><path class="cls-1" d="M223.35,590.4a20.7,20.7,0,0,1,2.2-.45,38.84,38.84,0,0,1,4-.31,24,24,0,0,1,3.56.19c.63.08,1.24.18,1.8.29a1.65,1.65,0,0,1,.66.3,6.65,6.65,0,0,1,1.32,1.24c1.85,2.33,3,5.4,4.54,8L244,598.3l-4.46,9.37-9.75-1.38,2.19-1.24-2.57-4.18Z" transform="translate(1.39 1.01)"/><path class="cls-1" d="M225,633.49,225,623a.22.22,0,0,0-.23-.22l-7.52.07-6.05,10.45.18.13a.24.24,0,0,0,.14.05c2.27.26,4.59.2,7.21.29,2.15.07,4.19,0,6.12,0A.24.24,0,0,0,225,633.49Z" transform="translate(1.39 1.01)"/><path class="cls-1" d="M209.81,632.06c-.52-.57-.93-1-1.49-1.69a35.43,35.43,0,0,1-2.25-3.29,23.87,23.87,0,0,1-1.62-3.17c-.25-.59-.47-1.16-.65-1.7a1.6,1.6,0,0,1-.07-.72,6.55,6.55,0,0,1,.41-1.77c1.09-2.76,3.16-5.32,4.62-7.91l-2.42-1.56,10.35-.82,3.68,9.14-2.17-1.28-2.34,4.31Z" transform="translate(1.39 1.01)"/><path class="cls-1" d="M246.55,608.39l-9.08,5.31a.24.24,0,0,0-.09.32l3.83,6.48h12.08l0-.22a.4.4,0,0,0,0-.15c-.91-2.09-2.12-4.07-3.35-6.38-1-1.9-2.05-3.66-3.08-5.3A.21.21,0,0,0,246.55,608.39Z" transform="translate(1.39 1.01)"/><path class="cls-1" d="M252.92,622.29c-.23.74-.37,1.29-.71,2.13a37.33,37.33,0,0,1-1.72,3.6,25.75,25.75,0,0,1-1.94,3c-.39.51-.77,1-1.15,1.41a1.77,1.77,0,0,1-.59.42,6.3,6.3,0,0,1-1.74.52c-2.94.44-6.19-.07-9.16,0l-.14,2.87-5.88-8.55,6.07-7.75,0,2.52,4.9-.13Z" transform="translate(1.39 1.01)"/><path class="cls-1" d="M657.54,687.29l13.43,13a4.1,4.1,0,0,1,1.25,3v3.58a6.94,6.94,0,0,0,5.19,6.72L688,716.3l2.72,5L688,715.25l3.52-9.48a3.71,3.71,0,0,0-2.34-4.83l-4.57-1.48a2.61,2.61,0,0,1-1.35-4l3.62-5.21a7.83,7.83,0,0,0-.91-10l-8.75-8.69c-.78-.78-.08-2.93,1-2.82,1.53-.75,4.89-1.36,9.4-1,5.21.36,6.41,1.31,9.26,3.25a16.91,16.91,0,0,1,2,1.52,3.25,3.25,0,0,1,.35.39,10.89,10.89,0,0,1,1.31,2.1,4.61,4.61,0,0,1,.45,1.71l.37,6.72a6.57,6.57,0,0,0,5.31,5.78l6.44,1.21" transform="translate(1.39 1.01)"/><path class="cls-8" d="M654.32,715.73h-9.41a1.25,1.25,0,0,0-1.26,1.26v16.22a1.46,1.46,0,0,0,.24.78,2.28,2.28,0,0,0,1.94,1h7.57a2.29,2.29,0,0,0,1.94-1,1.46,1.46,0,0,0,.24-.78V717A1.25,1.25,0,0,0,654.32,715.73Z" transform="translate(1.39 1.01)"/><path class="cls-8" d="M714.24,714.33c-1.69-1.78-4.24-1.11-8.35,1.4l-14.68,9a4.57,4.57,0,0,1-2.36.66h-2.79a4.24,4.24,0,0,0,4.24-4c13.19-2.44,23.15-13.45,23.15-26.67,0-15-12.84-27.17-28.67-27.17s-28.68,12.17-28.68,27.17A26.13,26.13,0,0,0,662,711.19a5.29,5.29,0,0,0-3.18,2.22l-1.53,2.32a2.46,2.46,0,0,0-.39,1.32v18l30.85-.08a15.38,15.38,0,0,0,8.71-2.63l15.3-10.65C715.35,719,716,716.14,714.24,714.33Z" transform="translate(1.39 1.01)"/><path class="cls-1" d="M653.4,735h-7.57a2.28,2.28,0,0,1-1.94-1,1.46,1.46,0,0,1-.24-.78V717a1.25,1.25,0,0,1,1.26-1.26h9.41a1.25,1.25,0,0,1,1.26,1.26v16.22a1.46,1.46,0,0,1-.24.78A2.29,2.29,0,0,1,653.4,735Z" transform="translate(1.39 1.01)"/><path class="cls-8" d="M660.34,711.05" transform="translate(1.39 1.01)"/><path class="cls-8" d="M705.89,715.73c4.11-2.51,6.66-3.18,8.35-1.4s1.11,4.7-2.52,7.38l-15.3,10.65a15.38,15.38,0,0,1-8.71,2.63l-30.85.08v-18a2.46,2.46,0,0,1,.39-1.32l1.53-2.32a5.27,5.27,0,0,1,4.39-2.36h4.37a4.8,4.8,0,0,1,4.38,3,4.79,4.79,0,0,0,4.41,2.92H686a4.21,4.21,0,1,1,0,8.41h2.79a4.57,4.57,0,0,0,2.36-.66Z" transform="translate(1.39 1.01)"/><path class="cls-1" d="M167.72,745.58H178a0,0,0,0,1,0,0v11.19a0,0,0,0,1,0,0H167.26a5.37,5.37,0,0,1-5.37-5.37v0a5.83,5.83,0,0,1,5.83-5.83Z"/><rect class="cls-1" x="177.99" y="740.5" width="15.57" height="21.16" rx="7.78"/><path class="cls-1" d="M192.17,756.46v-.74a7.55,7.55,0,0,1,7.33,7.58V765c0,1.4,1.14,2,2.54,2h6.47a2.54,2.54,0,0,0,2.54-2.54v-4.37c0-8-6.3-15-14.28-15.38l-4.61-.2Z" transform="translate(1.39 1.01)"/><rect class="cls-1" x="184.28" y="734.49" width="2.45" height="6.02"/><path class="cls-1" d="M195,732.68a2.79,2.79,0,0,1-4,1.83,15,15,0,0,0-6.59-1.27,13.68,13.68,0,0,0-6.65,1.38,2.41,2.41,0,0,1-2.64-.13l-.3-.27a3.08,3.08,0,0,1-.91-2.18v-.13a3.08,3.08,0,0,1,.91-2.18,3.38,3.38,0,0,1,2.18-.9c3.21-.32,4.28,2.2,7.23,2.27s4.89-2.57,7.76-2.27a3.47,3.47,0,0,1,2.18.9,3.08,3.08,0,0,1,.91,2.18V732A3.39,3.39,0,0,1,195,732.68Z" transform="translate(1.39 1.01)"/><path class="cls-1" d="M204.66,772.25l-3.91,10.06a5.19,5.19,0,0,0,2.06,6.31,5.11,5.11,0,0,0,2,.7,5.38,5.38,0,0,0,3.88-1,5,5,0,0,0,1.51-6.13l-4.64-9.94A.47.47,0,0,0,204.66,772.25Z" transform="translate(1.39 1.01)"/><line class="cls-7" x1="166.19" y1="443.48" x2="166.19" y2="495.97"/><polyline class="cls-8" points="179.68 462.8 166.19 472.64 153.5 462.8"/><polyline class="cls-8" points="155.26 451.5 166.19 458.79 176.03 451.5"/><path class="cls-1" d="M171.37,477.1h13.72a7.44,7.44,0,0,0,5.23-12,11.3,11.3,0,0,0,2-7.29c-.46-4.86-4.59-9.16-10.36-10.57.12-.45,1.5-5.68-2-9.84-2.67-3.16-7.88-2.05-8.67-2.12-.33-.55-2.16-7.38-6.93-8.16-4.16-.69-7.76,5.46-8.38,5.9-6.32-1.1-10.33-.35-12.92,4.61a13.23,13.23,0,0,0-.86,10.34,10.23,10.23,0,0,0-6.34,8.74,10.47,10.47,0,0,0,3.42,8c-3.25,4.37-2.45,9.82.59,12a7,7,0,0,0,5.43.93,32.19,32.19,0,0,1,5.79-.57H159" transform="translate(1.39 1.01)"/><line class="cls-1" x1="166.19" y1="489.77" x2="166.19" y2="497.79"/><line class="cls-1" x1="427.06" y1="417.34" x2="421.56" y2="413.76"/><path class="cls-8" d="M461.43,394.92l-7.66-5.38a7.66,7.66,0,0,1-2.26-2.48L449,382.72a11.93,11.93,0,0,0-3.52-3.86l-10.7-7.52c-1.33-1.12-2.58-.73-3.15,0-.67,1.43,1.55,3.19,1.55,3.19s1.55,1.81,2.53,2.86l-5.56-4.52a2.36,2.36,0,0,0-2.9.07c-.43.49-.83,1.33.25,2.82,1.55,1.53,3.91,3.64,5.45,5.18l-7.08-5a2.07,2.07,0,0,0-3,.75,2,2,0,0,0,.8,2.33l7.08,5-5.87-2.84c-1.1-.52-2.34-.48-2.68.15s-1,1.41.74,2.62l10.71,7.52a1.51,1.51,0,0,1-1.12,2.75" transform="translate(1.39 1.01)"/><path class="cls-8" d="M454.59,406.11l-5.74-3.42c-3-1-5.74-2.35-8.76-3.33a1.55,1.55,0,0,0-.48-.07A14.52,14.52,0,0,1,433,397.7l-1.54-1" transform="translate(1.39 1.01)"/><path class="cls-8" d="M413.06,423.75l7.25,5.09a7.89,7.89,0,0,1,2.26,2.48l2.48,4.34a12.07,12.07,0,0,0,3.52,3.87l10.7,7.51c1.33,1.12,2.58.73,3.15,0,.67-1.43-1.56-3.2-1.56-3.2s-1.55-1.81-2.53-2.86l5.57,4.53a2.37,2.37,0,0,0,2.9-.07c.43-.5.83-1.34-.25-2.83-1.55-1.53-3.91-3.64-5.45-5.18l7.08,5a2.08,2.08,0,0,0,3-.76,2,2,0,0,0-.8-2.33l-7.08-5,5.87,2.83c1.1.52,2.34.48,2.68-.15s1-1.41-.74-2.62l-10.3-7.23a1.57,1.57,0,0,1-.5-2,1.54,1.54,0,0,1,1.61-.76" transform="translate(1.39 1.01)"/><path class="cls-8" d="M451.26,433.62l5.09-7.25a7.75,7.75,0,0,1,2.48-2.25l3.93-2.77a12.1,12.1,0,0,0,3.87-3.53l7.92-10.4c1.13-1.34.73-2.59.05-3.16-1.43-.66-3.19,1.56-3.19,1.56s-1.82,1.55-2.87,2.53l4.53-5.57a2.37,2.37,0,0,0-.07-2.9c-.5-.43-1.33-.83-2.82.26-1.54,1.54-3.65,3.9-5.19,5.44l5-7.08a2.08,2.08,0,0,0-.76-3,2,2,0,0,0-2.33.8l-5,7.08,2.83-5.87c.52-1.1.48-2.34-.15-2.68s-1.4-1-2.61.74l-7.24,10.3a1.56,1.56,0,0,1-2,.51,1.55,1.55,0,0,1-.76-1.62" transform="translate(1.39 1.01)"/><path class="cls-8" d="M423.19,385.07l-5.1,7.25a7.67,7.67,0,0,1-2.48,2.26l-5,2.6a12.07,12.07,0,0,0-3.87,3.52l-6.82,10.58c-1.12,1.33-.73,2.58,0,3.15,1.43.67,3.19-1.55,3.19-1.55s1.81-1.55,2.86-2.53l-4.52,5.56a2.36,2.36,0,0,0,.07,2.9c.49.43,1.33.83,2.82-.25,1.54-1.55,3.65-3.91,5.18-5.45l-5,7.08a2.08,2.08,0,0,0,.76,3,2,2,0,0,0,2.32-.8l5-7.08-2.84,5.87c-.52,1.1-.47,2.34.15,2.68s1.41,1,2.62-.74l7.24-10.3a1.56,1.56,0,0,1,2-.5,1.54,1.54,0,0,1,.76,1.62" transform="translate(1.39 1.01)"/><path class="cls-8" d="M449.86,403.29l-1.67,2.28c-1.39,2.71-1.22,7.32-1.22,8.73a1.61,1.61,0,0,1-.07.49c-1,3-1.62,3.82-2.59,6.83l-3.2-.94a14.57,14.57,0,0,0-6.64-1.59A1.55,1.55,0,0,1,434,419l-8.32-2.69a.68.68,0,0,1-.42-.93l1-2.28a14,14,0,0,0,1.17-6.92,1.62,1.62,0,0,1,.08-.49c1-3,2.35-5.74,3.33-8.76l2.87-5.51" transform="translate(1.39 1.01)"/><line class="cls-8" x1="445.41" y1="423.04" x2="442.33" y2="427.13"/><polyline class="cls-4" points="266.93 454.05 254.37 423.88 217.65 423.88 194.05 440.29"/><path class="cls-6" d="M190.52,436.19a3.76,3.76,0,1,0,5.23.94A3.77,3.77,0,0,0,190.52,436.19Z" transform="translate(1.39 1.01)"/><path class="cls-6" d="M190.23,435.78a4.26,4.26,0,1,1-1.07,5.93,4.27,4.27,0,0,1,1.07-5.93Zm4.29,6.18a3.26,3.26,0,1,0-4.53-.82,3.27,3.27,0,0,0,4.53.82Z" transform="translate(1.39 1.01)"/><polyline class="cls-4" points="495.96 564.86 495.73 716.1 424.48 716.1"/><path class="cls-6" d="M490.81,563.84a3.76,3.76,0,1,1,3.75,3.77A3.76,3.76,0,0,1,490.81,563.84Z" transform="translate(1.39 1.01)"/><path class="cls-6" d="M490.31,563.84a4.26,4.26,0,1,0,4.27-4.25,4.27,4.27,0,0,0-4.27,4.25Zm7.52,0a3.26,3.26,0,1,1-3.25-3.27,3.26,3.26,0,0,1,3.25,3.27Z" transform="translate(1.39 1.01)"/><path class="cls-6" d="M423.1,711.33a3.76,3.76,0,1,0,3.76,3.76A3.76,3.76,0,0,0,423.1,711.33Z" transform="translate(1.39 1.01)"/><path class="cls-6" d="M423.1,710.83a4.26,4.26,0,1,1-4.26,4.26,4.26,4.26,0,0,1,4.26-4.26Zm0,7.52a3.26,3.26,0,1,0-3.26-3.26,3.26,3.26,0,0,0,3.26,3.26Z" transform="translate(1.39 1.01)"/><line class="cls-4" x1="495.96" y1="653.1" x2="537.74" y2="653.1"/><path class="cls-6" d="M536.35,655.86a3.76,3.76,0,1,0-3.76-3.76A3.76,3.76,0,0,0,536.35,655.86Z" transform="translate(1.39 1.01)"/><path class="cls-6" d="M536.35,656.36a4.26,4.26,0,1,1,4.26-4.26,4.27,4.27,0,0,1-4.26,4.26Zm0-7.52a3.26,3.26,0,1,0,3.26,3.26,3.26,3.26,0,0,0-3.26-3.26Z" transform="translate(1.39 1.01)"/><polyline class="cls-4" points="496.86 678.11 566.1 716.1 630.89 716.1"/><path class="cls-6" d="M629.5,718.85a3.76,3.76,0,1,0-3.76-3.76A3.76,3.76,0,0,0,629.5,718.85Z" transform="translate(1.39 1.01)"/><path class="cls-6" d="M629.5,719.35a4.26,4.26,0,1,1,4.26-4.26,4.27,4.27,0,0,1-4.26,4.26Zm0-7.52a3.26,3.26,0,1,0,3.26,3.26,3.27,3.27,0,0,0-3.26-3.26Z" transform="translate(1.39 1.01)"/><line class="cls-4" x1="424.48" y1="737.95" x2="630.89" y2="737.95"/><path class="cls-6" d="M423.1,740.71a3.76,3.76,0,1,1,3.76-3.76A3.76,3.76,0,0,1,423.1,740.71Z" transform="translate(1.39 1.01)"/><path class="cls-6" d="M423.1,741.21a4.26,4.26,0,1,0-4.26-4.26,4.26,4.26,0,0,0,4.26,4.26Zm0-7.52a3.26,3.26,0,1,1-3.26,3.26,3.26,3.26,0,0,1,3.26-3.26Z" transform="translate(1.39 1.01)"/><path class="cls-6" d="M629.5,740.71a3.76,3.76,0,1,0-3.76-3.76A3.76,3.76,0,0,0,629.5,740.71Z" transform="translate(1.39 1.01)"/><path class="cls-6" d="M629.5,741.21a4.26,4.26,0,1,1,4.26-4.26,4.27,4.27,0,0,1-4.26,4.26Zm0-7.52a3.26,3.26,0,1,0,3.26,3.26,3.27,3.27,0,0,0-3.26-3.26Z" transform="translate(1.39 1.01)"/><polyline class="cls-4" points="658.78 533.33 632.56 564.86 515.49 564.86"/><path class="cls-6" d="M654.51,529.92a3.76,3.76,0,1,1,.48,5.29A3.75,3.75,0,0,1,654.51,529.92Z" transform="translate(1.39 1.01)"/><path class="cls-6" d="M654.12,529.6a4.26,4.26,0,1,0,6-.55,4.27,4.27,0,0,0-6,.55Zm5.78,4.81a3.26,3.26,0,1,1-.42-4.59,3.26,3.26,0,0,1,.42,4.59Z" transform="translate(1.39 1.01)"/><path class="cls-6" d="M514.1,560.09a3.76,3.76,0,1,0,3.76,3.76A3.76,3.76,0,0,0,514.1,560.09Z" transform="translate(1.39 1.01)"/><path class="cls-6" d="M514.1,559.59a4.26,4.26,0,1,1-4.26,4.26,4.26,4.26,0,0,1,4.26-4.26Zm0,7.52a3.26,3.26,0,1,0-3.26-3.26,3.26,3.26,0,0,0,3.26,3.26Z" transform="translate(1.39 1.01)"/><polyline class="cls-4" points="232.89 774.17 295.95 774.17 363.2 733.21"/><path class="cls-6" d="M231.5,776.92a3.76,3.76,0,1,1,3.76-3.75A3.76,3.76,0,0,1,231.5,776.92Z" transform="translate(1.39 1.01)"/><path class="cls-6" d="M231.5,777.42a4.26,4.26,0,1,0-4.26-4.25,4.26,4.26,0,0,0,4.26,4.25Zm0-7.51a3.26,3.26,0,1,1-3.26,3.26,3.26,3.26,0,0,1,3.26-3.26Z" transform="translate(1.39 1.01)"/><path class="cls-6" d="M363.77,735.41a3.76,3.76,0,1,0-5.16-1.25A3.75,3.75,0,0,0,363.77,735.41Z" transform="translate(1.39 1.01)"/><path class="cls-6" d="M364,735.84a4.26,4.26,0,1,1,1.43-5.85,4.26,4.26,0,0,1-1.43,5.85Zm-3.91-6.42a3.26,3.26,0,1,0,4.48,1.09,3.27,3.27,0,0,0-4.48-1.09Z" transform="translate(1.39 1.01)"/><polyline class="cls-4" points="476.17 564.86 454.36 598.77 407.48 598.77"/><path class="cls-6" d="M471.62,561.82a3.76,3.76,0,1,1,1.13,5.19A3.75,3.75,0,0,1,471.62,561.82Z" transform="translate(1.39 1.01)"/><path class="cls-6" d="M471.2,561.55a4.26,4.26,0,1,0,5.89-1.28,4.25,4.25,0,0,0-5.89,1.28Zm6.32,4.06a3.26,3.26,0,1,1-1-4.5,3.25,3.25,0,0,1,1,4.5C476.55,567.13,478.5,564.1,477.52,565.61Z" transform="translate(1.39 1.01)"/><path class="cls-6" d="M406.09,594a3.76,3.76,0,1,0,3.76,3.76A3.76,3.76,0,0,0,406.09,594Z" transform="translate(1.39 1.01)"/><path class="cls-6" d="M406.09,593.51a4.26,4.26,0,1,1-4.26,4.26,4.26,4.26,0,0,1,4.26-4.26Zm0,7.52a3.26,3.26,0,1,0-3.26-3.26,3.26,3.26,0,0,0,3.26,3.26Z" transform="translate(1.39 1.01)"/><path class="cls-9" d="M253.5,644.28" transform="translate(1.39 1.01)"/><polyline class="cls-4" points="279.54 773.87 279.54 653.28 364.11 598.77"/><path class="cls-6" d="M364.76,600.93a3.76,3.76,0,1,0-5.2-1.12A3.76,3.76,0,0,0,364.76,600.93Z" transform="translate(1.39 1.01)"/><path class="cls-6" d="M365,601.35a4.26,4.26,0,1,1,1.27-5.89,4.27,4.27,0,0,1-1.27,5.89ZM361,595a3.26,3.26,0,1,0,4.5,1,3.27,3.27,0,0,0-4.5-1Z" transform="translate(1.39 1.01)"/><polyline class="cls-4" points="390.38 637.16 327.1 681.73 326.1 755.8"/><path class="cls-6" d="M386.83,633.08a3.76,3.76,0,1,1-.91,5.24A3.76,3.76,0,0,1,386.83,633.08Z" transform="translate(1.39 1.01)"/><path class="cls-6" d="M386.54,632.67a4.26,4.26,0,1,0,5.94,1,4.26,4.26,0,0,0-5.94-1Zm4.33,6.15a3.26,3.26,0,1,1,.79-4.55,3.27,3.27,0,0,1-.79,4.55C389.4,639.85,392.34,637.78,390.87,638.82Z" transform="translate(1.39 1.01)"/><polyline class="cls-4" points="424.79 597.87 424.79 529.13 345.53 476.66"/><path class="cls-6" d="M346.21,472.52a3.76,3.76,0,1,0,1.06,5.21A3.77,3.77,0,0,0,346.21,472.52Z" transform="translate(1.39 1.01)"/><path class="cls-6" d="M346.49,472.11a4.26,4.26,0,1,1-5.9,1.2,4.25,4.25,0,0,1,5.9-1.2Zm-4.15,6.27a3.26,3.26,0,1,0-.92-4.52,3.27,3.27,0,0,0,.92,4.52Z" transform="translate(1.39 1.01)"/><line class="cls-4" x1="454.09" y1="507.96" x2="372.66" y2="455.47"/><path class="cls-6" d="M454.74,503.79a3.76,3.76,0,1,1-5.19,1.12A3.76,3.76,0,0,1,454.74,503.79Z" transform="translate(1.39 1.01)"/><path class="cls-6" d="M455,503.37a4.26,4.26,0,1,0,1.28,5.89,4.26,4.26,0,0,0-1.28-5.89Zm-4.07,6.32a3.26,3.26,0,1,1,4.51-1,3.26,3.26,0,0,1-4.51,1Z" transform="translate(1.39 1.01)"/><path class="cls-6" d="M373.31,451.31a3.76,3.76,0,1,0,1.12,5.19A3.76,3.76,0,0,0,373.31,451.31Z" transform="translate(1.39 1.01)"/><path class="cls-6" d="M373.58,450.89a4.26,4.26,0,1,1-5.89,1.27,4.26,4.26,0,0,1,5.89-1.27Zm-4.07,6.32a3.26,3.26,0,1,0-1-4.51,3.26,3.26,0,0,0,1,4.51Z" transform="translate(1.39 1.01)"/><path class="cls-4" d="M535.7,737.92" transform="translate(1.39 1.01)"/><polyline class="cls-4" points="252.88 773.87 252.88 690.54 233.79 653.22"/><circle class="cls-6" cx="232.41" cy="652.21" r="3.76" transform="translate(-458.28 673.74) rotate(-72.09)"/><path class="cls-6" d="M236.2,650.27a4.26,4.26,0,1,1-5.73-1.85,4.26,4.26,0,0,1,5.73,1.85Zm-6.69,3.42a3.26,3.26,0,1,0,1.41-4.38,3.25,3.25,0,0,0-1.41,4.38C230.32,655.29,228.69,652.09,229.51,653.69Z" transform="translate(1.39 1.01)"/><polyline class="cls-4" points="196.21 716.82 196.53 680.63 151.69 612.38 151.69 506.71"/><path class="cls-6" d="M198.58,715.85a3.76,3.76,0,1,1-3.72-3.79A3.75,3.75,0,0,1,198.58,715.85Z" transform="translate(1.39 1.01)"/><path class="cls-6" d="M199.08,715.85a4.26,4.26,0,1,0-4.29,4.22,4.25,4.25,0,0,0,4.29-4.22C199.11,713.5,199.06,718.2,199.08,715.85Zm-7.51-.06a3.26,3.26,0,1,1,3.23,3.28,3.25,3.25,0,0,1-3.23-3.28C191.58,714,191.55,717.58,191.57,715.79Z" transform="translate(1.39 1.01)"/><path class="cls-6" d="M154.06,505.7a3.76,3.76,0,1,0-3.76,3.76A3.77,3.77,0,0,0,154.06,505.7Z" transform="translate(1.39 1.01)"/><path class="cls-6" d="M154.56,505.7a4.26,4.26,0,1,1-4.26-4.26,4.26,4.26,0,0,1,4.26,4.26Zm-7.52,0a3.26,3.26,0,1,0,3.26-3.26A3.26,3.26,0,0,0,147,505.7Z" transform="translate(1.39 1.01)"/><line class="cls-4" x1="152.59" y1="564.86" x2="279.13" y2="497.44"/><path class="cls-6" d="M279.51,499.75a3.76,3.76,0,1,0-5.08-1.55A3.76,3.76,0,0,0,279.51,499.75Z" transform="translate(1.39 1.01)"/><path class="cls-6" d="M279.75,500.19a4.26,4.26,0,1,1,1.75-5.76,4.26,4.26,0,0,1-1.75,5.76Zm-3.54-6.64a3.26,3.26,0,1,0,4.41,1.35,3.27,3.27,0,0,0-4.41-1.35C274.63,494.4,277.8,492.71,276.21,493.55Z" transform="translate(1.39 1.01)"/><polyline class="cls-4" points="604.51 715.19 691.17 564.74 691.04 533.33"/><path class="cls-6" d="M693.42,532.31a3.76,3.76,0,1,0-3.75,3.77A3.76,3.76,0,0,0,693.42,532.31Z" transform="translate(1.39 1.01)"/><path class="cls-6" d="M693.92,532.31a4.26,4.26,0,1,1-4.28-4.25,4.27,4.27,0,0,1,4.28,4.25Zm-7.52,0a3.26,3.26,0,1,0,3.24-3.28,3.25,3.25,0,0,0-3.24,3.28C686.4,534.13,686.39,530.54,686.4,532.34Z" transform="translate(1.39 1.01)"/><polyline class="cls-4" points="566.59 565.76 586.4 598.77 586.4 622.07"/><path class="cls-6" d="M581.25,621.06A3.76,3.76,0,1,0,585,617.3,3.77,3.77,0,0,0,581.25,621.06Z" transform="translate(1.39 1.01)"/><path class="cls-6" d="M580.75,621.06a4.26,4.26,0,1,1,4.26,4.26,4.27,4.27,0,0,1-4.26-4.26Zm7.52,0a3.26,3.26,0,1,0-3.26,3.26,3.26,3.26,0,0,0,3.26-3.26Z" transform="translate(1.39 1.01)"/><polyline class="cls-4" points="657.68 622.76 681.08 622.67 691.36 637.86 691.36 652.93"/><path class="cls-6" d="M686.22,651.92a3.76,3.76,0,1,0,3.76-3.76A3.76,3.76,0,0,0,686.22,651.92Z" transform="translate(1.39 1.01)"/><path class="cls-6" d="M685.72,651.92a4.26,4.26,0,1,1,4.26,4.26,4.26,4.26,0,0,1-4.26-4.26Zm7.52,0a3.26,3.26,0,1,0-3.26,3.26,3.27,3.27,0,0,0,3.26-3.26Z" transform="translate(1.39 1.01)"/><polyline class="cls-4" points="327.14 621.54 327.14 564.98 393.01 508.62"/><line class="cls-4" x1="177.15" y1="651.29" x2="193.21" y2="633.63"/><path class="cls-6" d="M194.61,635.15a3.76,3.76,0,1,0-5.31.25A3.76,3.76,0,0,0,194.61,635.15Z" transform="translate(1.39 1.01)"/><path class="cls-6" d="M195,635.49a4.27,4.27,0,1,1-.29-6,4.27,4.27,0,0,1,.29,6Zm-5.57-5.06a3.26,3.26,0,1,0,4.61-.22,3.26,3.26,0,0,0-4.61.22Z" transform="translate(1.39 1.01)"/><polyline class="cls-4" points="407.42 477.27 567.39 477.27 603.6 507.15 604.51 564.86"/><polyline class="cls-4" points="631.28 468.78 604.19 441.59 476.17 441.22"/><path class="cls-6" d="M632.56,465.13a3.76,3.76,0,1,1-5.32,0A3.76,3.76,0,0,1,632.56,465.13Z" transform="translate(1.39 1.01)"/><path class="cls-6" d="M632.91,464.77a4.26,4.26,0,1,0,0,6,4.26,4.26,0,0,0,0-6Zm-5.32,5.31a3.26,3.26,0,1,1,4.61,0,3.27,3.27,0,0,1-4.61,0C626.32,468.81,628.85,471.35,627.59,470.08Z" transform="translate(1.39 1.01)"/><path class="cls-6" d="M474.79,436.45a3.76,3.76,0,1,0,3.75,3.78A3.77,3.77,0,0,0,474.79,436.45Z" transform="translate(1.39 1.01)"/><path class="cls-6" d="M474.79,436a4.26,4.26,0,1,1-4.27,4.25,4.27,4.27,0,0,1,4.27-4.25Zm0,7.52a3.26,3.26,0,1,0-3.25-3.27,3.25,3.25,0,0,0,3.25,3.27Z" transform="translate(1.39 1.01)"/><polyline class="cls-4" points="295.95 774.17 507.25 776.09 537.09 738.93"/></g><g id="extension"><rect class="cls-1" x="29.16" y="577.85" width="7.36" height="10.47" rx="3.45"/><rect class="cls-1" x="40.98" y="577.85" width="7.36" height="10.47" rx="3.45"/><rect class="cls-1" x="29.16" y="594.11" width="7.36" height="10.47" rx="3.45"/><rect class="cls-1" x="40.98" y="594.11" width="7.36" height="10.47" rx="3.45"/><rect class="cls-1" x="70.92" y="577.85" width="7.36" height="10.47" rx="3.45"/><rect class="cls-1" x="82.74" y="577.85" width="7.36" height="10.47" rx="3.45"/><rect class="cls-1" x="70.92" y="594.11" width="7.36" height="10.47" rx="3.45"/><rect class="cls-1" x="82.74" y="594.11" width="7.36" height="10.47" rx="3.45"/><rect class="cls-1" x="52.69" y="590.91" width="13.76" height="19.59" rx="3.45"/><line class="cls-1" x1="59.85" y1="591.28" x2="59.57" y2="610.5"/><circle class="cls-1" cx="59.69" cy="571.55" r="8.27"/><path class="cls-4" d="M64.4,556.18H90.46a.37.37,0,0,1,.33.22l5.75,13.69a.36.36,0,0,1-.33.5H94.05V610H22.87V570.55" transform="translate(1.39 1.01)"/><path class="cls-4" d="M52.09,556.18H26.78a.36.36,0,0,0-.33.21L20,570.08a.36.36,0,0,0,.32.51h21l17-20.92,17.22,20.92H94.05" transform="translate(1.39 1.01)"/><line class="cls-7" x1="59.68" y1="550.68" x2="59.68" y2="530.86"/><path class="cls-4" d="M58.3,532.69H68.75a.14.14,0,0,1,.12.22L67,535.79a0,0,0,0,0,0,0l1.87,3.74a.15.15,0,0,1-.13.21H58.3" transform="translate(1.39 1.01)"/><polyline class="cls-7" points="59.57 567.54 59.69 571.55 58 573.84"/><line class="cls-1" x1="159.68" y1="625.65" x2="111.61" y2="605.33"/><path class="cls-6" d="M111.69,600.86a3.76,3.76,0,1,0,2,4.92A3.76,3.76,0,0,0,111.69,600.86Z" transform="translate(1.39 1.01)"/><path class="cls-6" d="M111.88,600.4a4.26,4.26,0,1,1-5.58,2.26,4.26,4.26,0,0,1,5.58-2.26C114.05,601.31,109.72,599.48,111.88,600.4ZM109,607.32a3.26,3.26,0,1,0-1.74-4.27,3.26,3.26,0,0,0,1.74,4.27Z" transform="translate(1.39 1.01)"/><path class="cls-1" d="M573.07,329h9.67a0,0,0,0,1,0,0v10.55a0,0,0,0,1,0,0H572.64a5.06,5.06,0,0,1-5.06-5.06v0A5.49,5.49,0,0,1,573.07,329Z"/><rect class="cls-1" x="582.75" y="324.19" width="14.67" height="19.95" rx="7.34"/><path class="cls-1" d="M596,339.17l0-.7a7.11,7.11,0,0,1,6.9,7.14v1.62c0,1.32,1.07,1.93,2.4,1.93h6.09a2.39,2.39,0,0,0,2.39-2.39v-4.12c0-7.53-5.93-14.18-13.45-14.5L596,328Z" transform="translate(1.39 1.01)"/><rect class="cls-1" x="588.68" y="318.52" width="2.31" height="5.67"/><path class="cls-1" d="M598.67,316.75a2.63,2.63,0,0,1-3.78,1.73,14.06,14.06,0,0,0-6.21-1.2,12.74,12.74,0,0,0-6.27,1.31,2.28,2.28,0,0,1-2.77-.38,2.89,2.89,0,0,1-.85-2.06V316a2.86,2.86,0,0,1,.85-2,3.17,3.17,0,0,1,2.06-.85c3-.31,4,2.07,6.81,2.14s4.61-2.42,7.32-2.14a3.22,3.22,0,0,1,2,.85,2.86,2.86,0,0,1,.85,2v.12A2.91,2.91,0,0,1,598.67,316.75Z" transform="translate(1.39 1.01)"/><path class="cls-1" d="M607.81,354.05l-3.69,9.49a4.86,4.86,0,0,0,1.94,5.93,4.8,4.8,0,0,0,1.85.67,5.07,5.07,0,0,0,3.66-1,4.69,4.69,0,0,0,1.43-5.78L608.63,354A.45.45,0,0,0,607.81,354.05Z" transform="translate(1.39 1.01)"/><path class="cls-1" d="M756.36,582.07" transform="translate(1.39 1.01)"/><path class="cls-1" d="M729.67,565.06l8.62,4.91a.21.21,0,0,0,.29-.08l3.49-6.17-5.68-9.87-.2.09a.22.22,0,0,0-.1.09c-1.28,1.73-2.33,3.65-3.63,5.75q-1.61,2.58-2.88,5A.21.21,0,0,0,729.67,565.06Z" transform="translate(1.39 1.01)"/><path class="cls-1" d="M738,553.31c.71-.16,1.23-.31,2.08-.43,1.06-.14,2.49-.25,3.74-.28a23.68,23.68,0,0,1,3.35.17c.6.08,1.17.17,1.7.28a1.4,1.4,0,0,1,.62.28,6.22,6.22,0,0,1,1.25,1.17c1.74,2.19,2.85,5.09,4.28,7.49l2.41-1.23-4.21,8.83-9.19-1.3,2.07-1.17-2.42-3.94Z" transform="translate(1.39 1.01)"/><path class="cls-1" d="M739.6,593.92l-.06-9.92a.21.21,0,0,0-.21-.21l-7.09.06-5.71,9.86.18.12a.25.25,0,0,0,.13,0c2.14.24,4.32.19,6.79.26,2,.07,4,.06,5.77,0A.2.2,0,0,0,739.6,593.92Z" transform="translate(1.39 1.01)"/><path class="cls-1" d="M725.25,592.57c-.49-.54-.87-.91-1.4-1.59a34,34,0,0,1-2.12-3.1,21.79,21.79,0,0,1-1.53-3c-.24-.55-.44-1.09-.61-1.6a1.74,1.74,0,0,1-.07-.68,6.44,6.44,0,0,1,.39-1.66c1-2.61,3-5,4.35-7.46L722,572l9.75-.77,3.47,8.61-2.05-1.21-2.2,4.07Z" transform="translate(1.39 1.01)"/><path class="cls-1" d="M759.88,570.26l-8.56,5a.23.23,0,0,0-.08.3l3.6,6.11h11.39l0-.21a.32.32,0,0,0,0-.14c-.87-2-2-3.84-3.17-6-1-1.78-1.93-3.45-2.89-5A.21.21,0,0,0,759.88,570.26Z" transform="translate(1.39 1.01)"/><path class="cls-1" d="M765.89,583.37c-.22.69-.35,1.21-.67,2a35.44,35.44,0,0,1-1.63,3.38,23.61,23.61,0,0,1-1.82,2.82c-.37.48-.73.92-1.09,1.33a1.56,1.56,0,0,1-.55.4,6.4,6.4,0,0,1-1.64.49c-2.77.41-5.84-.07-8.64,0l-.13,2.71-5.54-8.06,5.72-7.31,0,2.38,4.62-.13Z" transform="translate(1.39 1.01)"/><path class="cls-4" d="M70.93,350.63a.45.45,0,0,0-.71.11,2.43,2.43,0,0,1-.74.78,2.23,2.23,0,0,1-.93.36.46.46,0,0,0-.33.66,39.29,39.29,0,0,0,10.5,12.67.09.09,0,0,0,.15-.08,29.11,29.11,0,0,0-3-8.4A25.71,25.71,0,0,0,70.93,350.63Z" transform="translate(1.39 1.01)"/><path class="cls-4" d="M62.93,349.94a.45.45,0,0,0,.26-.67,2.41,2.41,0,0,1-.3-1,2.27,2.27,0,0,1,.15-1,.45.45,0,0,0-.41-.61,39.74,39.74,0,0,0-7.82.45,39,39,0,0,0-8.4,2.31.08.08,0,0,0,0,.16,28,28,0,0,0,16.52.38Z" transform="translate(1.39 1.01)"/><path class="cls-4" d="M67.73,342.82a.46.46,0,0,0,.43.58,2.39,2.39,0,0,1,1,.28,2.35,2.35,0,0,1,.75.66.46.46,0,0,0,.74,0A39.59,39.59,0,0,0,77,329.11a.1.1,0,0,0-.15-.09,28.1,28.1,0,0,0-9.1,13.8Z" transform="translate(1.39 1.01)"/><path class="cls-5" d="M69.23,388H65.59c-.28,0-.51-.48-.51-.73l1.59-34.36a.47.47,0,0,1,.5-.44h.21a.48.48,0,0,1,.5.44l1.85,34.36C69.74,387.47,69.51,388,69.23,388Z" transform="translate(1.39 1.01)"/><circle class="cls-5" cx="68.7" cy="348.79" r="1.43"/><rect class="cls-1" x="42.18" y="831.01" width="57.48" height="35.94" rx="7.07"/><line class="cls-2" x1="53.51" y1="879.03" x2="88.46" y2="879.03"/><line class="cls-1" x1="74.28" y1="838.6" x2="67.98" y2="859.08"/><path class="cls-1" d="M75.87,842.85l9.29,4.48a.55.55,0,0,1,0,1l-9.29,4.33" transform="translate(1.39 1.01)"/><path class="cls-1" d="M63.58,842.85l-9.3,4.48a.55.55,0,0,0,0,1l9.29,4.33" transform="translate(1.39 1.01)"/><line class="cls-3" x1="70.84" y1="867.65" x2="70.84" y2="879.03"/><line class="cls-7" x1="749.75" y1="763.65" x2="749.75" y2="813.12"/><polyline class="cls-8" points="762.46 781.86 749.75 791.13 737.78 781.86"/><polyline class="cls-8" points="739.45 771.21 749.75 778.08 759.02 771.21"/><path class="cls-1" d="M754.55,795.28h12.93A7,7,0,0,0,772.41,784a10.68,10.68,0,0,0,1.92-6.87c-.44-4.59-4.33-8.64-9.77-10,.12-.42,1.42-5.34-1.91-9.27-2.52-3-7.43-1.93-8.17-2-.31-.52-2-7-6.53-7.7-3.92-.64-7.31,5.15-7.9,5.57-5.95-1-9.74-.34-12.18,4.34a12.45,12.45,0,0,0-.8,9.74,9.62,9.62,0,0,0-6,8.25,9.82,9.82,0,0,0,3.23,7.55c-3.07,4.12-2.32,9.26.55,11.34a6.64,6.64,0,0,0,5.12.88,30.24,30.24,0,0,1,5.45-.54h7.43" transform="translate(1.39 1.01)"/><line class="cls-1" x1="749.75" y1="807.28" x2="749.75" y2="814.84"/><path class="cls-1" d="M71.93,697.23l-3,.6a2.71,2.71,0,0,1-3.19-2.19l-3.35-18.86a1.18,1.18,0,0,1,.93-1.36l5.42-1a1.16,1.16,0,0,1,1.37.9l4,18.73A2.72,2.72,0,0,1,71.93,697.23Z" transform="translate(1.39 1.01)"/><rect class="cls-1" x="61.15" y="658.57" width="6.41" height="16.49" transform="translate(-125.25 25.71) rotate(-11.05)"/><path class="cls-1" d="M66,658.11h0A7.23,7.23,0,0,1,69.14,656c2.91-.93,6.35.23,8.91,2.91,0,0,.11,0,.09,0a15.27,15.27,0,0,0-8.71-8.28c-5.22-1.84-11-.15-12.09.31l0,0c-.25.77.46,1.66.21,2.42a0,0,0,0,1,0,0c-.75.12-1.22.32-2,.43L54,654a.38.38,0,0,1-.4-.24,3.44,3.44,0,0,0-.36-1,1.31,1.31,0,0,0-1.07-.55l-2.16.42A1.17,1.17,0,0,0,49.1,654L50.26,660a1.17,1.17,0,0,0,1.38.93l2-.4a1.18,1.18,0,0,0,.93-1.38h0a1.3,1.3,0,0,1,1.15-1.42l2.4-.28a.6.6,0,0,1,.6.31l.84,1.58a.05.05,0,0,0,0,0Z" transform="translate(1.39 1.01)"/><path class="cls-1" d="M75.71,665.62" transform="translate(1.39 1.01)"/><path class="cls-1" d="M537.47,820.06" transform="translate(1.39 1.01)"/><path class="cls-1" d="M541.17,825.42" transform="translate(1.39 1.01)"/><path class="cls-1" d="M537.47,820.06l39.29-27.34,2-7.84a.68.68,0,0,1,1.22-.19l9,13.37a.67.67,0,0,1-.64,1l-8-.92-39.15,27.24" transform="translate(1.39 1.01)"/><path class="cls-1" d="M541.17,825.42l-17,8.3a.57.57,0,0,1-.62-.94l14-12.72-5.39-10.76a1.72,1.72,0,0,0-2.56-.59l-16.7,12.2a5.48,5.48,0,0,0-1.36,1.44c-1.91,3-2.76,7.28-2.92,10.7-.23,4.78.07,7.51,1.08,10.05l.76,1c2.15,1.69,4.68,2.74,9.33,3.89,3.32.82,7.71,1.22,11.09.23a5.62,5.62,0,0,0,1.76-.89L549.05,837a1.72,1.72,0,0,0,.16-2.62Z" transform="translate(1.39 1.01)"/><path class="cls-1" d="M581.39,794.25l-.58-.91s0,0,0,0l.09-.89a0,0,0,0,1,.06,0l1.37,2s0,.06,0,0l-.88-.24Z" transform="translate(1.39 1.01)"/><line class="cls-1" x1="273.08" y1="880.41" x2="267.59" y2="876.83"/><path class="cls-8" d="M307.45,858l-7.65-5.38a7.77,7.77,0,0,1-2.26-2.48l-2.48-4.34a12.1,12.1,0,0,0-3.53-3.87l-10.69-7.51c-1.34-1.13-2.58-.74-3.15,0-.67,1.43,1.55,3.19,1.55,3.19s1.55,1.81,2.53,2.86l-5.57-4.52a2.36,2.36,0,0,0-2.89.07c-.44.5-.84,1.33.25,2.82,1.54,1.54,3.9,3.65,5.44,5.18l-7.08-5a2.08,2.08,0,0,0-3,.76,2,2,0,0,0,.81,2.33l7.08,5L271,844.22c-1.1-.52-2.35-.47-2.68.15s-1,1.41.73,2.62l10.71,7.53a1.5,1.5,0,0,1-1.11,2.74" transform="translate(1.39 1.01)"/><path class="cls-8" d="M300.61,869.19l-5.73-3.42c-3-1-5.75-2.36-8.76-3.33a1.62,1.62,0,0,0-.49-.08,14.4,14.4,0,0,1-6.64-1.58l-1.53-1" transform="translate(1.39 1.01)"/><path class="cls-8" d="M259.08,886.82l7.25,5.1a7.63,7.63,0,0,1,2.26,2.47l2.48,4.34a12,12,0,0,0,3.53,3.87l10.69,7.51c1.34,1.13,2.58.74,3.15,0,.67-1.43-1.55-3.19-1.55-3.19s-1.55-1.81-2.53-2.86l5.57,4.52a2.34,2.34,0,0,0,2.89-.07c.44-.5.84-1.33-.25-2.82-1.54-1.54-3.9-3.65-5.44-5.18l7.08,5a2.08,2.08,0,0,0,3-.76,2,2,0,0,0-.81-2.33l-7.08-5,5.87,2.84c1.1.52,2.35.47,2.68-.15s1-1.41-.73-2.62l-10.3-7.24a1.5,1.5,0,0,1,1.11-2.74" transform="translate(1.39 1.01)"/><path class="cls-8" d="M297.29,896.7l5.09-7.25a7.66,7.66,0,0,1,2.48-2.26l3.92-2.77a11.87,11.87,0,0,0,3.87-3.52l7.93-10.41c1.12-1.33.73-2.58,0-3.15-1.43-.67-3.19,1.55-3.19,1.55s-1.81,1.55-2.86,2.53l4.52-5.57A2.34,2.34,0,0,0,319,863c-.49-.43-1.33-.83-2.82.25-1.53,1.54-3.64,3.91-5.18,5.45l5-7.08a2.09,2.09,0,0,0-.75-3,2,2,0,0,0-2.33.81l-5,7.08,2.84-5.87c.52-1.1.47-2.34-.15-2.68s-1.41-1-2.62.73L300.76,869a1.51,1.51,0,0,1-2.74-1.12" transform="translate(1.39 1.01)"/><path class="cls-8" d="M269.21,848.14l-5.09,7.25a7.66,7.66,0,0,1-2.48,2.26l-5,2.6a11.9,11.9,0,0,0-3.87,3.53l-6.82,10.57c-1.12,1.34-.73,2.58,0,3.15,1.43.67,3.2-1.55,3.2-1.55s1.81-1.55,2.86-2.53L247.4,879a2.36,2.36,0,0,0,.07,2.89c.5.44,1.34.84,2.83-.25,1.53-1.54,3.64-3.9,5.18-5.44l-5,7.08a2.08,2.08,0,0,0,.76,3,2,2,0,0,0,2.33-.81l5-7.08-2.83,5.87c-.52,1.1-.48,2.35.15,2.68s1.4,1,2.62-.73l7.23-10.3a1.51,1.51,0,0,1,2.75,1.11" transform="translate(1.39 1.01)"/><path class="cls-8" d="M295.88,866.37l-1.66,2.28c-1.39,2.7-1.23,7.31-1.23,8.73a1.3,1.3,0,0,1-.07.48c-1,3-1.61,3.82-2.59,6.84l-3.19-1a14.4,14.4,0,0,0-6.64-1.58,1.62,1.62,0,0,1-.49-.08l-8.31-2.68a.69.69,0,0,1-.42-.94l1-2.27a14.15,14.15,0,0,0,1.18-6.93,1.61,1.61,0,0,1,.07-.49c1-3,2.36-5.74,3.33-8.75l2.87-5.51" transform="translate(1.39 1.01)"/><line class="cls-8" x1="291.43" y1="886.11" x2="288.36" y2="890.2"/><path class="cls-1" d="M491.32,200.94" transform="translate(1.39 1.01)"/><path class="cls-1" d="M464.62,183.94l8.62,4.9a.2.2,0,0,0,.29-.08l3.49-6.17-5.68-9.87-.19.09a.31.31,0,0,0-.11.09c-1.28,1.74-2.32,3.65-3.63,5.75-1.07,1.72-2,3.4-2.87,5A.21.21,0,0,0,464.62,183.94Z" transform="translate(1.39 1.01)"/><path class="cls-1" d="M473,172.18c.71-.16,1.22-.3,2.07-.42a35.09,35.09,0,0,1,3.75-.29,23.75,23.75,0,0,1,3.35.17c.6.08,1.17.17,1.7.28a1.65,1.65,0,0,1,.62.28,6.47,6.47,0,0,1,1.24,1.17c1.74,2.19,2.86,5.09,4.29,7.5l2.41-1.24-4.21,8.83-9.19-1.3,2.07-1.17-2.42-3.94Z" transform="translate(1.39 1.01)"/><path class="cls-1" d="M474.56,212.79l-.06-9.92a.21.21,0,0,0-.22-.21l-7.09.06-5.7,9.86.17.12a.35.35,0,0,0,.13.05c2.14.24,4.33.19,6.79.27,2,.06,4,0,5.77,0A.22.22,0,0,0,474.56,212.79Z" transform="translate(1.39 1.01)"/><path class="cls-1" d="M460.21,211.44c-.49-.54-.88-.91-1.41-1.58a35.48,35.48,0,0,1-2.12-3.1,25.82,25.82,0,0,1-1.53-3c-.23-.56-.43-1.1-.6-1.61a1.43,1.43,0,0,1-.07-.68,6,6,0,0,1,.39-1.66c1-2.61,3-5,4.35-7.46l-2.28-1.47,9.75-.77,3.47,8.61-2.05-1.21-2.2,4.07Z" transform="translate(1.39 1.01)"/><path class="cls-1" d="M494.83,189.13l-8.56,5a.21.21,0,0,0-.07.29l3.6,6.11h11.39l0-.21a.35.35,0,0,0,0-.14c-.86-2-2-3.84-3.16-6q-1.44-2.69-2.9-5A.23.23,0,0,0,494.83,189.13Z" transform="translate(1.39 1.01)"/><path class="cls-1" d="M500.84,202.24c-.22.69-.35,1.21-.67,2a34.13,34.13,0,0,1-1.62,3.38,22.58,22.58,0,0,1-1.83,2.82c-.36.48-.73.93-1.09,1.33a1.45,1.45,0,0,1-.55.4,6.28,6.28,0,0,1-1.64.49c-2.76.42-5.83-.07-8.63,0l-.13,2.7-5.55-8.06,5.73-7.3,0,2.37,4.63-.12Z" transform="translate(1.39 1.01)"/><path class="cls-1" d="M693.3,941.71l-3,.59a2.71,2.71,0,0,1-3.2-2.18l-3.34-18.86a1.18,1.18,0,0,1,.93-1.36l5.42-1a1.16,1.16,0,0,1,1.37.9l4,18.73A2.72,2.72,0,0,1,693.3,941.71Z" transform="translate(1.39 1.01)"/><rect class="cls-1" x="682.52" y="903.04" width="6.41" height="16.49" transform="translate(-160.59 149.36) rotate(-11.05)"/><path class="cls-1" d="M687.34,902.59h0a7.17,7.17,0,0,1,3.14-2.11c2.91-.93,6.35.23,8.91,2.91a.06.06,0,0,0,.09-.06,15.29,15.29,0,0,0-8.71-8.27c-5.22-1.84-11-.15-12.1.31l0,0c-.25.77.46,1.66.22,2.42a0,0,0,0,1,0,0c-.75.11-1.22.31-2,.43l-1.48.23a.38.38,0,0,1-.4-.24,3.5,3.5,0,0,0-.37-1,1.25,1.25,0,0,0-1.06-.55l-2.16.42a1.17,1.17,0,0,0-.93,1.38l1.16,5.93a1.17,1.17,0,0,0,1.38.93l2-.4a1.18,1.18,0,0,0,.93-1.38h0a1.29,1.29,0,0,1,1.15-1.42l2.4-.28a.6.6,0,0,1,.6.31l.84,1.58a.05.05,0,0,0,0,0Z" transform="translate(1.39 1.01)"/><path class="cls-1" d="M697.08,910.1" transform="translate(1.39 1.01)"/><line class="cls-1" x1="625.77" y1="123.93" x2="620.27" y2="120.35"/><path class="cls-8" d="M660.14,101.51l-7.66-5.38a7.66,7.66,0,0,1-2.26-2.48l-2.48-4.33a11.87,11.87,0,0,0-3.52-3.87l-10.7-7.52c-1.33-1.12-2.58-.73-3.15,0-.67,1.43,1.55,3.19,1.55,3.19s1.55,1.81,2.53,2.86l-5.56-4.52a2.36,2.36,0,0,0-2.9.07c-.43.49-.83,1.33.25,2.82,1.54,1.53,3.91,3.64,5.45,5.18l-7.08-5a2.07,2.07,0,0,0-3,.75,2,2,0,0,0,.8,2.33l7.08,5-5.87-2.84c-1.1-.52-2.34-.47-2.68.15s-1,1.41.73,2.62L632.42,98a1.57,1.57,0,0,1,.5,2,1.56,1.56,0,0,1-1.62.76" transform="translate(1.39 1.01)"/><path class="cls-8" d="M653.3,112.7l-5.74-3.42c-3-1-5.74-2.35-8.76-3.33a1.55,1.55,0,0,0-.48-.07,14.52,14.52,0,0,1-6.64-1.59l-1.54-1" transform="translate(1.39 1.01)"/><path class="cls-8" d="M611.77,130.34l7.25,5.09a7.89,7.89,0,0,1,2.26,2.48l2.48,4.34a12.07,12.07,0,0,0,3.52,3.87l10.7,7.51c1.33,1.12,2.58.73,3.15.05.67-1.43-1.56-3.2-1.56-3.2s-1.55-1.81-2.53-2.86l5.57,4.53a2.37,2.37,0,0,0,2.9-.07c.43-.5.83-1.34-.25-2.83-1.55-1.53-3.91-3.64-5.45-5.18l7.08,5a2.08,2.08,0,0,0,3-.76,2,2,0,0,0-.8-2.33L642,141l5.87,2.83c1.1.52,2.34.48,2.68-.15s1-1.4-.74-2.62l-10.3-7.23a1.56,1.56,0,0,1-.5-2,1.53,1.53,0,0,1,1.61-.77" transform="translate(1.39 1.01)"/><path class="cls-8" d="M650,140.21l5.09-7.24a7.66,7.66,0,0,1,2.48-2.26l3.93-2.77a12.19,12.19,0,0,0,3.87-3.52L673.26,114c1.13-1.34.73-2.59,0-3.16-1.43-.66-3.19,1.56-3.19,1.56s-1.82,1.55-2.87,2.53l4.53-5.57a2.37,2.37,0,0,0-.07-2.9c-.5-.43-1.33-.83-2.82.26-1.54,1.54-3.65,3.9-5.19,5.44l5-7.08a2.08,2.08,0,0,0-.76-3,2,2,0,0,0-2.33.81l-5,7.08,2.83-5.87c.52-1.1.48-2.35-.15-2.69s-1.4-1-2.61.74l-7.24,10.3a1.5,1.5,0,0,1-2.74-1.11" transform="translate(1.39 1.01)"/><path class="cls-8" d="M621.9,91.66l-5.1,7.25a7.56,7.56,0,0,1-2.48,2.26l-5,2.6a12.19,12.19,0,0,0-3.87,3.52l-6.82,10.58c-1.12,1.33-.73,2.58,0,3.15,1.43.67,3.19-1.55,3.19-1.55s1.81-1.55,2.86-2.53l-4.52,5.57a2.34,2.34,0,0,0,.07,2.89c.49.43,1.33.83,2.82-.25,1.54-1.54,3.65-3.91,5.18-5.45l-5,7.08a2.09,2.09,0,0,0,.76,3,2,2,0,0,0,2.32-.81l5-7.08-2.84,5.87c-.52,1.1-.47,2.34.15,2.68s1.41,1,2.62-.73l7.24-10.31a1.56,1.56,0,0,1,2-.5,1.54,1.54,0,0,1,.76,1.62" transform="translate(1.39 1.01)"/><path class="cls-8" d="M648.57,109.88l-1.67,2.28c-1.39,2.71-1.22,7.32-1.22,8.73a1.61,1.61,0,0,1-.07.49c-1,3-1.62,3.82-2.59,6.83l-3.2-.94a14.57,14.57,0,0,0-6.64-1.59,1.55,1.55,0,0,1-.48-.07l-8.32-2.69A.68.68,0,0,1,624,122l1-2.28a14,14,0,0,0,1.17-6.92,1.62,1.62,0,0,1,.08-.49c1-3,2.35-5.74,3.33-8.76L632.42,98" transform="translate(1.39 1.01)"/><line class="cls-8" x1="644.12" y1="129.63" x2="641.04" y2="133.72"/><path class="cls-1" d="M712.2,1011.19h9.67a0,0,0,0,1,0,0v10.55a0,0,0,0,1,0,0H711.76a5.06,5.06,0,0,1-5.06-5.06v0A5.49,5.49,0,0,1,712.2,1011.19Z"/><rect class="cls-1" x="721.87" y="1006.41" width="14.67" height="19.95" rx="7.34"/><path class="cls-1" d="M735.16,1021.39v-.69a7.11,7.11,0,0,1,6.91,7.14v1.61c0,1.32,1.07,1.93,2.39,1.93h6.1A2.39,2.39,0,0,0,753,1029v-4.12c0-7.53-5.93-14.18-13.46-14.5l-4.34-.18Z" transform="translate(1.39 1.01)"/><rect class="cls-1" x="727.81" y="1000.74" width="2.31" height="5.67"/><path class="cls-1" d="M737.8,999a2.63,2.63,0,0,1-3.78,1.72,14.12,14.12,0,0,0-6.22-1.2,12.93,12.93,0,0,0-6.26,1.31,2.29,2.29,0,0,1-2.49-.12c-.09-.08-.19-.16-.29-.26a2.9,2.9,0,0,1-.85-2v-.12a2.94,2.94,0,0,1,.85-2.06,3.25,3.25,0,0,1,2.06-.85c3-.3,4,2.08,6.82,2.14s4.6-2.42,7.31-2.14a3.38,3.38,0,0,1,2.06.85,2.94,2.94,0,0,1,.85,2.06v.12A3.05,3.05,0,0,1,737.8,999Z" transform="translate(1.39 1.01)"/><path class="cls-1" d="M746.93,1036.27l-3.69,9.49a4.88,4.88,0,0,0,2,5.94,4.83,4.83,0,0,0,1.85.66,5,5,0,0,0,3.66-1,4.69,4.69,0,0,0,1.43-5.77l-4.38-9.37A.45.45,0,0,0,746.93,1036.27Z" transform="translate(1.39 1.01)"/><path class="cls-1" d="M137.89,196" transform="translate(1.39 1.01)"/><path class="cls-1" d="M141.59,201.4" transform="translate(1.39 1.01)"/><path class="cls-1" d="M137.89,196l39.29-27.33,2-7.85a.67.67,0,0,1,1.21-.19l9,13.38a.68.68,0,0,1-.65,1l-8-.92L141.59,201.4" transform="translate(1.39 1.01)"/><path class="cls-1" d="M141.59,201.4l-17,8.29a.57.57,0,0,1-.62-.93l14-12.73-5.39-10.75a1.7,1.7,0,0,0-2.55-.59l-16.71,12.2a5.29,5.29,0,0,0-1.35,1.44C110,201.28,109.12,205.6,109,209c-.22,4.79.07,7.52,1.08,10l.77,1c2.14,1.69,4.67,2.75,9.32,3.89,3.33.82,7.72,1.22,11.09.23a5.18,5.18,0,0,0,1.77-.89L149.47,213a1.7,1.7,0,0,0,.16-2.61Z" transform="translate(1.39 1.01)"/><path class="cls-1" d="M181.81,170.22l-.58-.9v0l.09-.89a0,0,0,0,1,.07,0l1.36,2s0,.06,0,0l-.88-.24Z" transform="translate(1.39 1.01)"/><rect class="cls-1" x="321.35" y="88.56" width="57.48" height="35.94" rx="7.07"/><line class="cls-2" x1="332.68" y1="136.58" x2="367.63" y2="136.58"/><line class="cls-1" x1="353.45" y1="96.15" x2="347.15" y2="116.62"/><path class="cls-1" d="M355,100.39l9.29,4.49a.54.54,0,0,1,0,1L355,110.19" transform="translate(1.39 1.01)"/><path class="cls-1" d="M342.75,100.39l-9.3,4.49a.54.54,0,0,0,0,1l9.29,4.33" transform="translate(1.39 1.01)"/><line class="cls-3" x1="350.01" y1="125.2" x2="350.01" y2="136.58"/><path class="cls-1" d="M745.32,311.59c5.29-.25,7.77-3.17,7.77-3.17s1.19-1,1.73-5.64a43.64,43.64,0,0,0,.22-4.41,1.27,1.27,0,0,1,.21-.6c4.94-6.79,10.68-13.69,6.42-21.51-3.17-5.81-9.22-10.29-16.35-10.46h0c-7.12.17-13,4.62-16.17,10.42-4.27,7.82,1.47,14.73,6.41,21.52a1.07,1.07,0,0,1,.21.57,44.26,44.26,0,0,0,.22,4.44c.55,4.65,1.73,5.64,1.73,5.64s2.4,2.95,7.69,3.2Z" transform="translate(1.39 1.01)"/><line class="cls-1" x1="737.58" y1="305.14" x2="756.02" y2="305.14"/><line class="cls-1" x1="737.13" y1="298.99" x2="756.46" y2="299.03"/><path class="cls-1" d="M745.41,289.77c2.92,1.49,6.45,2,8.84-.16,2.17-1.94,4.21-5.68,3.45-8.55-.94-.37-4-.24-6.08.33-3.29.91-5.78,4.21-6.21,8.34V298" transform="translate(1.39 1.01)"/><path class="cls-1" d="M745.48,289.77c-4.2.49-8.46-.31-10.6-3.56a10.46,10.46,0,0,1-1.45-7.28c.25-.06,5.52-1.31,9.32,2.5a10.13,10.13,0,0,1,2.66,8.3" transform="translate(1.39 1.01)"/><rect class="cls-1" x="427.54" y="955.32" width="7.81" height="11.11" rx="3.45"/><rect class="cls-1" x="440.09" y="955.32" width="7.81" height="11.11" rx="3.45"/><rect class="cls-1" x="427.54" y="972.57" width="7.81" height="11.11" rx="3.45"/><rect class="cls-1" x="440.09" y="972.57" width="7.81" height="11.11" rx="3.45"/><rect class="cls-1" x="471.85" y="955.32" width="7.81" height="11.11" rx="3.45"/><rect class="cls-1" x="484.4" y="955.32" width="7.81" height="11.11" rx="3.45"/><rect class="cls-1" x="471.85" y="972.57" width="7.81" height="11.11" rx="3.45"/><rect class="cls-1" x="484.4" y="972.57" width="7.81" height="11.11" rx="3.45"/><rect class="cls-1" x="452.51" y="969.18" width="14.6" height="20.78" rx="3.45"/><line class="cls-1" x1="460.1" y1="969.57" x2="459.81" y2="989.96"/><circle class="cls-1" cx="459.94" cy="948.64" r="8.77"/><path class="cls-4" d="M465,932.39h27.66a.38.38,0,0,1,.35.23l6.1,14.53a.38.38,0,0,1-.35.53h-2.29v41.78H421V947.63" transform="translate(1.39 1.01)"/><path class="cls-4" d="M452,932.39H425.1a.36.36,0,0,0-.34.22l-6.85,14.52a.38.38,0,0,0,.34.55h22.23l18.06-22.2,18.28,22.2h19.66" transform="translate(1.39 1.01)"/><line class="cls-7" x1="459.93" y1="926.49" x2="459.93" y2="905.46"/><path class="cls-4" d="M458.54,907.46h11.1a.14.14,0,0,1,.12.23l-1.94,3.06a0,0,0,0,0,0,0l2,4a.15.15,0,0,1-.13.22H458.54" transform="translate(1.39 1.01)"/><polyline class="cls-7" points="459.81 944.38 459.94 948.64 458.14 951.06"/><path class="cls-1" d="M281,290.58l13.43,13a4.1,4.1,0,0,1,1.25,2.95v3.58a6.94,6.94,0,0,0,5.19,6.72l10.55,2.77,2.72,5-2.72-6.09,3.52-9.48a3.71,3.71,0,0,0-2.34-4.83L308,302.75a2.61,2.61,0,0,1-1.34-4l3.61-5.21a7.83,7.83,0,0,0-.91-10l-8.75-8.69c-.78-.78-.07-2.93,1-2.82,1.53-.75,4.89-1.36,9.4-1.05,5.21.36,6.41,1.31,9.26,3.25a16.91,16.91,0,0,1,2,1.52,2.57,2.57,0,0,1,.35.39,10.89,10.89,0,0,1,1.31,2.1,4.61,4.61,0,0,1,.45,1.71l.37,6.72a6.57,6.57,0,0,0,5.31,5.78l6.44,1.21" transform="translate(1.39 1.01)"/><path class="cls-8" d="M277.73,319h-9.41a1.25,1.25,0,0,0-1.26,1.26V336.5a1.46,1.46,0,0,0,.24.78,2.28,2.28,0,0,0,1.94,1h7.57a2.29,2.29,0,0,0,1.94-1,1.46,1.46,0,0,0,.24-.78V320.28A1.25,1.25,0,0,0,277.73,319Z" transform="translate(1.39 1.01)"/><path class="cls-8" d="M337.65,317.62c-1.69-1.78-4.24-1.11-8.35,1.4l-14.68,9a4.57,4.57,0,0,1-2.36.66h-2.79a4.24,4.24,0,0,0,4.24-3.95c13.19-2.44,23.15-13.45,23.15-26.67,0-15-12.84-27.17-28.67-27.17S279.51,283,279.51,298a26.13,26.13,0,0,0,5.86,16.45,5.29,5.29,0,0,0-3.18,2.22L280.67,319a2.38,2.38,0,0,0-.4,1.32v18l30.85-.08a15.38,15.38,0,0,0,8.71-2.63L335.13,325C338.77,322.32,339.36,319.43,337.65,317.62Z" transform="translate(1.39 1.01)"/><path class="cls-1" d="M276.81,338.28h-7.57a2.28,2.28,0,0,1-1.94-1,1.46,1.46,0,0,1-.24-.78V320.28a1.25,1.25,0,0,1,1.26-1.26h9.41a1.25,1.25,0,0,1,1.26,1.26V336.5a1.46,1.46,0,0,1-.24.78A2.29,2.29,0,0,1,276.81,338.28Z" transform="translate(1.39 1.01)"/><path class="cls-8" d="M283.75,314.34" transform="translate(1.39 1.01)"/><path class="cls-8" d="M329.3,319c4.11-2.51,6.66-3.18,8.35-1.4s1.12,4.7-2.52,7.38l-15.3,10.65a15.38,15.38,0,0,1-8.71,2.63l-30.85.08v-18a2.38,2.38,0,0,1,.4-1.32l1.52-2.32a5.27,5.27,0,0,1,4.39-2.36H291a4.8,4.8,0,0,1,4.38,3,4.79,4.79,0,0,0,4.41,2.92h9.68a4.21,4.21,0,1,1,.05,8.41h2.79a4.57,4.57,0,0,0,2.36-.66Z" transform="translate(1.39 1.01)"/><path class="cls-1" d="M117.77,959.62l13.43,13a4.08,4.08,0,0,1,1.25,3v3.58a6.94,6.94,0,0,0,5.19,6.72l10.55,2.76,2.72,5-2.72-6.1,3.52-9.48a3.72,3.72,0,0,0-2.34-4.83l-4.57-1.47a2.61,2.61,0,0,1-1.34-4l3.61-5.21a7.8,7.8,0,0,0-.91-10l-8.74-8.7c-.78-.77-.08-2.92,1-2.81,1.53-.75,4.89-1.36,9.4-1.05,5.21.36,6.41,1.31,9.26,3.24a18.65,18.65,0,0,1,2,1.53,2.17,2.17,0,0,1,.35.39,10.59,10.59,0,0,1,1.31,2.1,4.43,4.43,0,0,1,.45,1.71l.38,6.72a6.54,6.54,0,0,0,5.3,5.77l6.44,1.21" transform="translate(1.39 1.01)"/><path class="cls-8" d="M114.55,988.07h-9.41a1.25,1.25,0,0,0-1.26,1.25v16.23a1.43,1.43,0,0,0,.24.77,2.27,2.27,0,0,0,1.94,1h7.57a2.26,2.26,0,0,0,1.94-1,1.43,1.43,0,0,0,.24-.77V989.32A1.25,1.25,0,0,0,114.55,988.07Z" transform="translate(1.39 1.01)"/><path class="cls-8" d="M174.47,986.67c-1.69-1.78-4.23-1.11-8.35,1.4l-14.68,9a4.48,4.48,0,0,1-2.36.67h-2.79a4.25,4.25,0,0,0,4.24-4c13.19-2.44,23.15-13.44,23.15-26.66,0-15-12.84-27.17-28.67-27.17s-28.67,12.16-28.67,27.17a26.14,26.14,0,0,0,5.85,16.45,5.29,5.29,0,0,0-3.18,2.22l-1.52,2.31a2.41,2.41,0,0,0-.4,1.32v18l30.85-.07a15.39,15.39,0,0,0,8.71-2.64L172,994.05C175.59,991.37,176.18,988.48,174.47,986.67Z" transform="translate(1.39 1.01)"/><path class="cls-1" d="M113.63,1007.33h-7.57a2.27,2.27,0,0,1-1.94-1,1.43,1.43,0,0,1-.24-.77V989.32a1.25,1.25,0,0,1,1.26-1.25h9.41a1.25,1.25,0,0,1,1.26,1.25v16.23a1.43,1.43,0,0,1-.24.77A2.26,2.26,0,0,1,113.63,1007.33Z" transform="translate(1.39 1.01)"/><path class="cls-8" d="M120.57,983.38" transform="translate(1.39 1.01)"/><path class="cls-8" d="M166.12,988.07c4.12-2.51,6.66-3.18,8.35-1.4s1.12,4.7-2.52,7.38l-15.3,10.64a15.39,15.39,0,0,1-8.71,2.64l-30.85.07v-18a2.41,2.41,0,0,1,.4-1.32l1.52-2.31a5.27,5.27,0,0,1,4.39-2.37h4.38a4.79,4.79,0,0,1,4.37,3,4.79,4.79,0,0,0,4.41,2.92h9.68a4.21,4.21,0,1,1,0,8.41h2.79a4.48,4.48,0,0,0,2.36-.67Z" transform="translate(1.39 1.01)"/><line class="cls-7" x1="328.72" y1="1001.55" x2="328.72" y2="1054.04"/><polyline class="cls-8" points="342.21 1020.87 328.72 1030.71 316.02 1020.87"/><polyline class="cls-8" points="317.79 1009.57 328.72 1016.86 338.56 1009.57"/><path class="cls-1" d="M333.9,1035.17h13.72a7.44,7.44,0,0,0,5.23-12,11.3,11.3,0,0,0,2-7.29c-.46-4.86-4.59-9.16-10.36-10.57.12-.45,1.5-5.68-2-9.84-2.67-3.16-7.88-2.05-8.67-2.12-.33-.55-2.16-7.38-6.93-8.16-4.16-.69-7.76,5.46-8.38,5.9-6.32-1.1-10.33-.35-12.92,4.61a13.23,13.23,0,0,0-.86,10.34,10.23,10.23,0,0,0-6.34,8.74,10.47,10.47,0,0,0,3.42,8c-3.25,4.37-2.45,9.82.59,12a7,7,0,0,0,5.43.93,32.19,32.19,0,0,1,5.79-.57h7.88" transform="translate(1.39 1.01)"/><line class="cls-1" x1="328.72" y1="1047.84" x2="328.72" y2="1055.86"/><path class="cls-4" d="M97.18,1127.27a.49.49,0,0,0-.76.11,2.61,2.61,0,0,1-.78.83,2.42,2.42,0,0,1-1,.38.48.48,0,0,0-.35.7,42.13,42.13,0,0,0,4.56,7,42.67,42.67,0,0,0,6.58,6.5.1.1,0,0,0,.16-.1,31,31,0,0,0-3.23-8.9A27.29,27.29,0,0,0,97.18,1127.27Z" transform="translate(1.39 1.01)"/><path class="cls-4" d="M88.69,1126.53a.49.49,0,0,0,.28-.71,2.51,2.51,0,0,1-.33-1.1,2.55,2.55,0,0,1,.16-1,.47.47,0,0,0-.43-.64A42,42,0,0,0,71.15,1126a.1.1,0,0,0,0,.18,29.68,29.68,0,0,0,17.53.4Z" transform="translate(1.39 1.01)"/><path class="cls-4" d="M93.78,1119a.49.49,0,0,0,.45.62,2.5,2.5,0,0,1,1.91,1,.47.47,0,0,0,.77,0,42.42,42.42,0,0,0,4-7.28,41.83,41.83,0,0,0,2.67-8.86.09.09,0,0,0-.15-.09A29.69,29.69,0,0,0,93.78,1119Z" transform="translate(1.39 1.01)"/><path class="cls-5" d="M95.37,1166.86H91.51c-.3,0-.55-.5-.54-.77l1.68-36.46a.52.52,0,0,1,.54-.47h.21a.52.52,0,0,1,.54.47l2,36.46C95.91,1166.36,95.67,1166.86,95.37,1166.86Z" transform="translate(1.39 1.01)"/><circle class="cls-5" cx="94.73" cy="1125.25" r="1.52"/><path class="cls-1" d="M477,1120.55" transform="translate(1.39 1.01)"/><path class="cls-1" d="M448.63,1102.5l9.15,5.21a.23.23,0,0,0,.31-.09l3.7-6.55-6-10.47-.2.1a.27.27,0,0,0-.12.09c-1.35,1.84-2.47,3.88-3.85,6.1-1.13,1.83-2.14,3.61-3,5.31A.22.22,0,0,0,448.63,1102.5Z" transform="translate(1.39 1.01)"/><path class="cls-1" d="M457.49,1090c.75-.17,1.29-.32,2.2-.45a36.3,36.3,0,0,1,4-.3,23.87,23.87,0,0,1,3.56.18c.63.08,1.24.18,1.8.29a1.65,1.65,0,0,1,.66.3,7,7,0,0,1,1.32,1.24c1.85,2.33,3,5.4,4.54,8l2.56-1.32-4.46,9.37-9.75-1.38,2.19-1.24-2.57-4.18Z" transform="translate(1.39 1.01)"/><path class="cls-1" d="M459.18,1133.12l-.07-10.53a.22.22,0,0,0-.23-.22l-7.52.07-6.05,10.45.18.13a.35.35,0,0,0,.14.06c2.27.25,4.59.19,7.21.28,2.15.07,4.19.06,6.12,0A.24.24,0,0,0,459.18,1133.12Z" transform="translate(1.39 1.01)"/><path class="cls-1" d="M444,1131.69c-.52-.57-.93-1-1.49-1.68a38.33,38.33,0,0,1-2.25-3.29,24.67,24.67,0,0,1-1.62-3.18c-.25-.59-.47-1.16-.65-1.7a1.6,1.6,0,0,1-.07-.72,6.55,6.55,0,0,1,.41-1.77c1.09-2.76,3.16-5.32,4.62-7.91l-2.42-1.56,10.35-.82,3.68,9.14-2.17-1.28-2.34,4.31Z" transform="translate(1.39 1.01)"/><path class="cls-1" d="M480.69,1108l-9.08,5.32a.23.23,0,0,0-.09.31l3.83,6.48h12.08l0-.22a.4.4,0,0,0,0-.15c-.91-2.09-2.12-4.07-3.35-6.38-1-1.9-2.05-3.66-3.08-5.3A.22.22,0,0,0,480.69,1108Z" transform="translate(1.39 1.01)"/><path class="cls-1" d="M487.06,1121.92c-.23.74-.37,1.29-.71,2.13a37.33,37.33,0,0,1-1.72,3.6,25.75,25.75,0,0,1-1.94,3c-.39.51-.77,1-1.15,1.41a1.77,1.77,0,0,1-.59.42,6.3,6.3,0,0,1-1.74.52c-2.94.44-6.19-.07-9.16,0l-.14,2.87-5.88-8.55,6.07-7.75,0,2.52,4.9-.13Z" transform="translate(1.39 1.01)"/><path class="cls-1" d="M79.36,108.13c5.28-.26,7.76-3.17,7.76-3.17s1.19-1,1.74-5.64a42.92,42.92,0,0,0,.21-4.42,1.15,1.15,0,0,1,.22-.59c4.93-6.79,10.67-13.7,6.41-21.52C92.53,67,86.48,62.51,79.36,62.34h0c-7.13.17-13,4.61-16.18,10.42-4.27,7.82,1.48,14.72,6.41,21.52a1,1,0,0,1,.21.57c.09,1.27-.06,2,.22,4.43.55,4.66,1.74,5.64,1.74,5.64s2.39,3,7.68,3.21Z" transform="translate(1.39 1.01)"/><line class="cls-1" x1="71.61" y1="101.68" x2="90.05" y2="101.68"/><line class="cls-1" x1="71.16" y1="95.53" x2="90.49" y2="95.56"/><path class="cls-1" d="M79.44,86.31c2.93,1.49,6.45,2,8.84-.16,2.17-2,4.21-5.68,3.46-8.56-.95-.37-4-.24-6.08.34-3.3.9-5.78,4.21-6.22,8.33v8.28" transform="translate(1.39 1.01)"/><path class="cls-1" d="M79.51,86.31c-4.2.49-8.46-.31-10.59-3.57a10.38,10.38,0,0,1-1.45-7.27c.24-.07,5.51-1.32,9.31,2.5a10.08,10.08,0,0,1,2.66,8.29" transform="translate(1.39 1.01)"/><line class="cls-1" x1="377.48" y1="776.08" x2="377.48" y2="1003.8"/><path class="cls-6" d="M372.33,1002.79a3.76,3.76,0,1,0,3.76-3.76A3.76,3.76,0,0,0,372.33,1002.79Z" transform="translate(1.39 1.01)"/><path class="cls-6" d="M371.83,1002.79a4.26,4.26,0,1,1,4.26,4.26,4.26,4.26,0,0,1-4.26-4.26Zm7.52,0a3.26,3.26,0,1,0-3.26,3.26,3.26,3.26,0,0,0,3.26-3.26Z" transform="translate(1.39 1.01)"/><line class="cls-1" x1="377.48" y1="932.73" x2="402.84" y2="956.93"/><path class="cls-6" d="M398.86,958.64a3.76,3.76,0,1,0-.13-5.31A3.75,3.75,0,0,0,398.86,958.64Z" transform="translate(1.39 1.01)"/><path class="cls-6" d="M398.51,959a4.26,4.26,0,1,1,6-.14,4.26,4.26,0,0,1-6,.14Zm5.19-5.44a3.26,3.26,0,1,0,.11,4.61,3.27,3.27,0,0,0-.11-4.61C402.4,952.32,405,954.81,403.7,953.56Z" transform="translate(1.39 1.01)"/><polyline class="cls-1" points="377.48 814.84 344.72 814.84 327.67 841.85"/><path class="cls-6" d="M323.11,838.84a3.76,3.76,0,1,0,5.18-1.17A3.76,3.76,0,0,0,323.11,838.84Z" transform="translate(1.39 1.01)"/><path class="cls-6" d="M322.68,838.57a4.26,4.26,0,1,1,1.33,5.88,4.28,4.28,0,0,1-1.33-5.88C323.94,836.59,321.43,840.56,322.68,838.57Zm6.36,4a3.26,3.26,0,1,0-4.49,1,3.26,3.26,0,0,0,4.49-1C330,841.06,328.08,844.11,329,842.59Z" transform="translate(1.39 1.01)"/><polyline class="cls-1" points="377.48 902.38 327.79 957.66 195.53 957.66"/><path class="cls-6" d="M194.14,952.9a3.76,3.76,0,1,0,3.76,3.76A3.76,3.76,0,0,0,194.14,952.9Z" transform="translate(1.39 1.01)"/><path class="cls-6" d="M194.14,952.4a4.26,4.26,0,1,1-4.26,4.26,4.26,4.26,0,0,1,4.26-4.26Zm0,7.52a3.26,3.26,0,1,0-3.26-3.26,3.27,3.27,0,0,0,3.26,3.26Z" transform="translate(1.39 1.01)"/><polyline class="cls-1" points="189.17 668.63 142.19 669.92 88.21 695.92"/><path class="cls-6" d="M85.19,691.53a3.76,3.76,0,1,0,5,1.75A3.76,3.76,0,0,0,85.19,691.53Z" transform="translate(1.39 1.01)"/><path class="cls-6" d="M85,691.08a4.26,4.26,0,1,1-2,5.68,4.26,4.26,0,0,1,2-5.68Zm3.27,6.77a3.26,3.26,0,1,0-4.35-1.52,3.26,3.26,0,0,0,4.35,1.52Z" transform="translate(1.39 1.01)"/><line class="cls-1" x1="123.08" y1="678.77" x2="122.96" y2="841.4"/><path class="cls-6" d="M117.81,840.39a3.76,3.76,0,1,0,3.77-3.76A3.76,3.76,0,0,0,117.81,840.39Z" transform="translate(1.39 1.01)"/><path class="cls-6" d="M117.31,840.39a4.26,4.26,0,1,1,4.26,4.26,4.27,4.27,0,0,1-4.26-4.26Zm7.52,0a3.26,3.26,0,1,0-3.26,3.26,3.26,3.26,0,0,0,3.26-3.26Z" transform="translate(1.39 1.01)"/><line class="cls-1" x1="122.96" y1="809.5" x2="249.74" y2="904.52"/><path class="cls-6" d="M246.1,906.53a3.76,3.76,0,1,0-.76-5.27A3.76,3.76,0,0,0,246.1,906.53Z" transform="translate(1.39 1.01)"/><path class="cls-6" d="M245.8,906.93a4.26,4.26,0,1,1,6-.86,4.28,4.28,0,0,1-6,.86Zm4.51-6a3.26,3.26,0,1,0,.65,4.56,3.27,3.27,0,0,0-.65-4.56Z" transform="translate(1.39 1.01)"/><polyline class="cls-1" points="181.28 853.6 144.93 867.65 145.63 931.83"/><path class="cls-6" d="M140.48,930.86a3.76,3.76,0,1,0,3.72-3.8A3.76,3.76,0,0,0,140.48,930.86Z" transform="translate(1.39 1.01)"/><path class="cls-6" d="M140,930.87a4.26,4.26,0,1,1,4.31,4.21,4.26,4.26,0,0,1-4.31-4.21Zm7.52-.08a3.26,3.26,0,1,0-3.23,3.29,3.27,3.27,0,0,0,3.23-3.29Z" transform="translate(1.39 1.01)"/><line class="cls-1" x1="123.16" y1="1155.22" x2="455.6" y2="1157.35"/><path class="cls-6" d="M121.75,1158a3.76,3.76,0,1,1,3.78-3.73A3.76,3.76,0,0,1,121.75,1158Z" transform="translate(1.39 1.01)"/><path class="cls-6" d="M121.74,1158.47a4.26,4.26,0,1,0-4.23-4.29,4.26,4.26,0,0,0,4.23,4.29Zm.05-7.52a3.26,3.26,0,1,1-3.28,3.24,3.27,3.27,0,0,1,3.28-3.24Z" transform="translate(1.39 1.01)"/><path class="cls-6" d="M454.19,1160.11a3.76,3.76,0,1,0-3.74-3.79A3.76,3.76,0,0,0,454.19,1160.11Z" transform="translate(1.39 1.01)"/><path class="cls-6" d="M454.19,1160.61a4.26,4.26,0,1,1,4.28-4.23,4.28,4.28,0,0,1-4.28,4.23Zm0-7.52a3.26,3.26,0,1,0,3.24,3.28,3.27,3.27,0,0,0-3.24-3.28Z" transform="translate(1.39 1.01)"/><line class="cls-1" x1="328.12" y1="1076.1" x2="407.42" y2="1156.29"/><path class="cls-6" d="M324.06,1077.74a3.76,3.76,0,1,1,5.31,0A3.76,3.76,0,0,1,324.06,1077.74Z" transform="translate(1.39 1.01)"/><path class="cls-6" d="M323.7,1078.09a4.26,4.26,0,1,0,0-6,4.27,4.27,0,0,0,0,6Zm5.35-5.29a3.26,3.26,0,1,1-4.61,0,3.27,3.27,0,0,1,4.61,0C330.31,1074.08,327.78,1071.53,329.05,1072.8Z" transform="translate(1.39 1.01)"/><line class="cls-1" x1="358.12" y1="1156.29" x2="316.03" y2="1193.01"/><polyline class="cls-1" points="459.1 1004.55 459.1 1057.37 382.74 1130.19"/><path class="cls-6" d="M454,1003.55a3.76,3.76,0,1,1,3.76,3.76A3.76,3.76,0,0,1,454,1003.55Z" transform="translate(1.39 1.01)"/><path class="cls-6" d="M453.46,1003.55a4.26,4.26,0,1,0,4.26-4.26,4.26,4.26,0,0,0-4.26,4.26Zm7.52,0a3.26,3.26,0,1,1-3.26-3.26,3.26,3.26,0,0,1,3.26,3.26Z" transform="translate(1.39 1.01)"/><polyline class="cls-1" points="512.21 1128.77 729.84 1129.77 771.53 1076.32 772.53 1054.85"/><path class="cls-6" d="M510.8,1131.52a3.76,3.76,0,1,1,3.78-3.74A3.76,3.76,0,0,1,510.8,1131.52Z" transform="translate(1.39 1.01)"/><path class="cls-6" d="M510.8,1132a4.26,4.26,0,1,0-4.24-4.28,4.26,4.26,0,0,0,4.24,4.28Zm0-7.52a3.26,3.26,0,1,1-3.27,3.24,3.27,3.27,0,0,1,3.27-3.24Z" transform="translate(1.39 1.01)"/><path class="cls-6" d="M774.89,1054a3.76,3.76,0,1,0-3.93,3.58A3.76,3.76,0,0,0,774.89,1054Z" transform="translate(1.39 1.01)"/><path class="cls-6" d="M775.39,1054a4.26,4.26,0,1,1-4-4.45,4.26,4.26,0,0,1,4,4.45C775.28,1056.39,775.5,1051.7,775.39,1054Zm-7.51-.35a3.26,3.26,0,1,0,3.41-3.1,3.26,3.26,0,0,0-3.41,3.1C767.8,1055.49,768,1051.9,767.88,1053.69Z" transform="translate(1.39 1.01)"/><polyline class="cls-1" points="71.11 903.3 71.11 1021.57 117.98 1021.57"/><path class="cls-6" d="M66,902.29a3.76,3.76,0,1,1,3.76,3.76A3.77,3.77,0,0,1,66,902.29Z" transform="translate(1.39 1.01)"/><path class="cls-6" d="M65.46,902.29A4.26,4.26,0,1,0,69.72,898a4.26,4.26,0,0,0-4.26,4.26Zm7.52,0A3.26,3.26,0,1,1,69.72,899,3.26,3.26,0,0,1,73,902.29Z" transform="translate(1.39 1.01)"/><path class="cls-6" d="M116.59,1024.33a3.76,3.76,0,1,0-3.76-3.76A3.76,3.76,0,0,0,116.59,1024.33Z" transform="translate(1.39 1.01)"/><path class="cls-6" d="M116.59,1024.83a4.26,4.26,0,1,1,4.26-4.26,4.27,4.27,0,0,1-4.26,4.26Zm0-7.52a3.26,3.26,0,1,0,3.26,3.26,3.26,3.26,0,0,0-3.26-3.26Z" transform="translate(1.39 1.01)"/><line class="cls-1" x1="561.13" y1="868.86" x2="701.36" y2="981.58"/><path class="cls-6" d="M557.38,870.78a3.76,3.76,0,1,1,5.29-.57A3.76,3.76,0,0,1,557.38,870.78Z" transform="translate(1.39 1.01)"/><path class="cls-6" d="M557.07,871.17a4.26,4.26,0,1,0-.65-6,4.27,4.27,0,0,0,.65,6Zm4.71-5.86a3.26,3.26,0,1,1-4.58.5,3.26,3.26,0,0,1,4.58-.5Z" transform="translate(1.39 1.01)"/><path class="cls-6" d="M697.62,983.5a3.76,3.76,0,1,0-.58-5.28A3.76,3.76,0,0,0,697.62,983.5Z" transform="translate(1.39 1.01)"/><path class="cls-6" d="M697.3,983.89a4.26,4.26,0,1,1,6-.65,4.27,4.27,0,0,1-6,.65ZM702,978a3.26,3.26,0,1,0,.49,4.58A3.27,3.27,0,0,0,702,978Z" transform="translate(1.39 1.01)"/><line class="cls-1" x1="670.89" y1="956.96" x2="701.84" y2="957.49"/><path class="cls-6" d="M700.39,960.24a3.76,3.76,0,1,0-3.7-3.82A3.75,3.75,0,0,0,700.39,960.24Z" transform="translate(1.39 1.01)"/><path class="cls-6" d="M700.38,960.74a4.26,4.26,0,1,1,4.33-4.19,4.26,4.26,0,0,1-4.33,4.19Zm.13-7.52a3.26,3.26,0,1,0,3.2,3.32,3.27,3.27,0,0,0-3.2-3.32Z" transform="translate(1.39 1.01)"/><line class="cls-1" x1="492.95" y1="814.84" x2="441.69" y2="775.49"/><path class="cls-6" d="M493.85,810.85a3.76,3.76,0,1,1-5.27.69A3.75,3.75,0,0,1,493.85,810.85Z" transform="translate(1.39 1.01)"/><path class="cls-6" d="M494.15,810.45a4.26,4.26,0,1,0,.79,6,4.26,4.26,0,0,0-.79-6Zm-4.58,6a3.26,3.26,0,1,1,4.57-.6,3.27,3.27,0,0,1-4.57.6C488.15,815.32,491,817.51,489.57,816.42Z" transform="translate(1.39 1.01)"/><polyline class="cls-1" points="123.16 1112.19 195.42 1112.19 239.84 1056.79 286.54 1004.39"/><path class="cls-6" d="M121.77,1115a3.76,3.76,0,1,1,3.76-3.76A3.76,3.76,0,0,1,121.77,1115Z" transform="translate(1.39 1.01)"/><path class="cls-6" d="M121.77,1115.45a4.26,4.26,0,1,0-4.26-4.26,4.26,4.26,0,0,0,4.26,4.26Zm0-7.52a3.26,3.26,0,1,1-3.26,3.26,3.26,3.26,0,0,1,3.26-3.26Z" transform="translate(1.39 1.01)"/><path class="cls-6" d="M288,1005.88a3.76,3.76,0,1,0-5.31.31A3.75,3.75,0,0,0,288,1005.88Z" transform="translate(1.39 1.01)"/><path class="cls-6" d="M288.33,1006.22a4.26,4.26,0,1,1-.34-6,4.26,4.26,0,0,1,.34,6Zm-5.61-5a3.26,3.26,0,1,0,4.6-.26,3.27,3.27,0,0,0-4.6.26Z" transform="translate(1.39 1.01)"/><line class="cls-1" x1="239.84" y1="1056.79" x2="279.84" y2="956.82"/><line class="cls-1" x1="620.69" y1="1128.76" x2="586.4" y2="1075.29"/><path class="cls-6" d="M588.18,1072.26a3.76,3.76,0,1,0-1.14,5.19A3.77,3.77,0,0,0,588.18,1072.26Z" transform="translate(1.39 1.01)"/><path class="cls-6" d="M588.6,1072a4.26,4.26,0,1,1-5.89-1.29,4.26,4.26,0,0,1,5.89,1.29Zm-6.33,4.06a3.26,3.26,0,1,0,1-4.51,3.26,3.26,0,0,0-1,4.51Z" transform="translate(1.39 1.01)"/><path class="cls-1" d="M560.65,1062.05c5.29-.26,7.77-3.17,7.77-3.17s1.19-1,1.73-5.64a43.68,43.68,0,0,0,.22-4.42,1.17,1.17,0,0,1,.21-.59c4.94-6.79,10.68-13.7,6.42-21.52-3.17-5.8-9.22-10.28-16.35-10.45h0c-7.12.17-13,4.61-16.18,10.42-4.26,7.82,1.48,14.72,6.42,21.52a1.16,1.16,0,0,1,.21.57,44.22,44.22,0,0,0,.22,4.43c.54,4.66,1.73,5.65,1.73,5.65s2.4,2.94,7.69,3.2Z" transform="translate(1.39 1.01)"/><line class="cls-1" x1="552.9" y1="1055.6" x2="571.35" y2="1055.6"/><line class="cls-1" x1="552.46" y1="1049.45" x2="571.79" y2="1049.48"/><path class="cls-1" d="M560.74,1040.23c2.92,1.49,6.45,2,8.83-.16,2.17-2,4.21-5.68,3.46-8.56-.95-.37-4-.23-6.08.34-3.29.9-5.78,4.21-6.21,8.33v8.28" transform="translate(1.39 1.01)"/><path class="cls-1" d="M560.81,1040.23c-4.2.49-8.46-.31-10.6-3.57a10.43,10.43,0,0,1-1.45-7.27c.25-.06,5.52-1.32,9.31,2.5a10.11,10.11,0,0,1,2.67,8.29" transform="translate(1.39 1.01)"/><polyline class="cls-1" points="511.93 958.18 538.86 957.43 602.51 903.2"/><path class="cls-6" d="M510.64,960.93a3.76,3.76,0,1,1,3.66-3.86A3.76,3.76,0,0,1,510.64,960.93Z" transform="translate(1.39 1.01)"/><path class="cls-6" d="M510.66,961.43a4.26,4.26,0,1,0-4.38-4.14,4.26,4.26,0,0,0,4.38,4.14C513,961.37,508.31,961.5,510.66,961.43Zm-.21-7.52a3.26,3.26,0,1,1-3.17,3.35,3.28,3.28,0,0,1,3.17-3.35C512.25,953.87,508.65,954,510.45,953.91Z" transform="translate(1.39 1.01)"/><line class="cls-1" x1="565.05" y1="1002.58" x2="565.26" y2="935.72"/><path class="cls-6" d="M567.63,934.72a3.76,3.76,0,1,0-3.77,3.75A3.76,3.76,0,0,0,567.63,934.72Z" transform="translate(1.39 1.01)"/><path class="cls-6" d="M568.13,934.72a4.26,4.26,0,1,1-4.24-4.27,4.26,4.26,0,0,1,4.24,4.27C568.13,937.07,568.14,932.38,568.13,934.72Zm-7.52,0a3.26,3.26,0,1,0,3.27-3.25,3.27,3.27,0,0,0-3.27,3.25C560.61,936.5,560.62,932.9,560.61,934.7Z" transform="translate(1.39 1.01)"/><polyline class="cls-1" points="609.83 1111.32 646.84 1055.81 646.84 939.06"/><line class="cls-1" x1="71.11" y1="932.96" x2="144.93" y2="904.61"/><line class="cls-1" x1="159.68" y1="772.43" x2="249.84" y2="841.85"/><path class="cls-6" d="M156,774.4a3.76,3.76,0,1,1,5.27-.69A3.77,3.77,0,0,1,156,774.4Z" transform="translate(1.39 1.01)"/><path class="cls-6" d="M155.7,774.8a4.26,4.26,0,1,0-.78-6,4.26,4.26,0,0,0,.78,6Zm4.58-6a3.26,3.26,0,1,1-4.57.59,3.26,3.26,0,0,1,4.57-.59C161.71,769.93,158.86,767.74,160.28,768.84Z" transform="translate(1.39 1.01)"/><path class="cls-6" d="M246.16,843.82a3.76,3.76,0,1,0-.68-5.27A3.77,3.77,0,0,0,246.16,843.82Z" transform="translate(1.39 1.01)"/><path class="cls-6" d="M245.86,844.22a4.26,4.26,0,1,1,6-.78,4.26,4.26,0,0,1-6,.78Zm4.59-6a3.26,3.26,0,1,0,.59,4.57,3.27,3.27,0,0,0-.59-4.57C249,837.17,251.87,839.36,250.45,838.26Z" transform="translate(1.39 1.01)"/><line class="cls-1" x1="69.45" y1="716.19" x2="69.62" y2="814.84"/><path class="cls-6" d="M64.3,715.19a3.76,3.76,0,1,1,3.77,3.75A3.77,3.77,0,0,1,64.3,715.19Z" transform="translate(1.39 1.01)"/><path class="cls-6" d="M63.8,715.19a4.26,4.26,0,1,0,4.26-4.27,4.26,4.26,0,0,0-4.26,4.27C63.81,717.54,63.8,712.84,63.8,715.19Zm7.52,0a3.26,3.26,0,1,1-3.26-3.26,3.25,3.25,0,0,1,3.26,3.26C71.33,717,71.32,713.38,71.32,715.18Z" transform="translate(1.39 1.01)"/><path class="cls-6" d="M64.47,813.84a3.76,3.76,0,1,0,3.75-3.77A3.76,3.76,0,0,0,64.47,813.84Z" transform="translate(1.39 1.01)"/><path class="cls-6" d="M64,813.84a4.26,4.26,0,1,1,4.27,4.25A4.27,4.27,0,0,1,64,813.84Zm7.52,0a3.26,3.26,0,1,0-3.25,3.26,3.27,3.27,0,0,0,3.25-3.26Z" transform="translate(1.39 1.01)"/><polyline class="cls-1" points="24.26 622.67 24.26 738.96 68.98 772.21"/><path class="cls-6" d="M19.11,621.66a3.76,3.76,0,1,1,3.76,3.76A3.77,3.77,0,0,1,19.11,621.66Z" transform="translate(1.39 1.01)"/><path class="cls-6" d="M18.61,621.66a4.26,4.26,0,1,0,4.26-4.26,4.26,4.26,0,0,0-4.26,4.26Zm7.52,0a3.26,3.26,0,1,1-3.26-3.26,3.26,3.26,0,0,1,3.26,3.26Z" transform="translate(1.39 1.01)"/><line class="cls-1" x1="377.11" y1="1156.29" x2="255.84" y2="1038.92"/><line class="cls-1" x1="41.98" y1="752.69" x2="1.39" y2="813.12"/><line class="cls-1" x1="671.83" y1="1130.2" x2="706.71" y2="1194.5"/><line class="cls-1" x1="595.95" y1="737.95" x2="595.95" y2="783.4"/><path class="cls-6" d="M590.8,782.4a3.76,3.76,0,1,0,3.76-3.76A3.76,3.76,0,0,0,590.8,782.4Z" transform="translate(1.39 1.01)"/><path class="cls-6" d="M590.3,782.4a4.26,4.26,0,1,1,4.26,4.26,4.26,4.26,0,0,1-4.26-4.26Zm7.52,0a3.26,3.26,0,1,0-3.26,3.26,3.26,3.26,0,0,0,3.26-3.26Z" transform="translate(1.39 1.01)"/><polyline class="cls-1" points="595.95 751.09 647.97 785.39 703.84 786.39"/><path class="cls-6" d="M702.38,789.14a3.76,3.76,0,1,0-3.69-3.83A3.76,3.76,0,0,0,702.38,789.14Z" transform="translate(1.39 1.01)"/><path class="cls-6" d="M702.38,789.64a4.26,4.26,0,1,1,4.33-4.18,4.27,4.27,0,0,1-4.33,4.18Zm.13-7.52a3.26,3.26,0,1,0,3.2,3.32,3.27,3.27,0,0,0-3.2-3.32Z" transform="translate(1.39 1.01)"/><line class="cls-1" x1="636.48" y1="777.87" x2="636.48" y2="929.42"/><line class="cls-1" x1="703.84" y1="821.06" x2="636.48" y2="876.83"/><path class="cls-6" d="M700.05,817.16a3.76,3.76,0,1,1-.49,5.3A3.77,3.77,0,0,1,700.05,817.16Z" transform="translate(1.39 1.01)"/><path class="cls-6" d="M699.74,816.78a4.26,4.26,0,1,0,6,.56,4.25,4.25,0,0,0-6-.56C697.93,818.27,701.54,815.28,699.74,816.78Zm4.79,5.79A3.26,3.26,0,1,1,705,818a3.26,3.26,0,0,1-.43,4.59Z" transform="translate(1.39 1.01)"/><line class="cls-1" x1="679.76" y1="841.4" x2="843.54" y2="841.85"/><polyline class="cls-1" points="680.76 785.39 745.56 713.54 745.56 609.12"/><path class="cls-6" d="M747.94,608.11a3.76,3.76,0,1,0-3.76,3.76A3.77,3.77,0,0,0,747.94,608.11Z" transform="translate(1.39 1.01)"/><path class="cls-6" d="M748.44,608.11a4.26,4.26,0,1,1-4.26-4.26,4.26,4.26,0,0,1,4.26,4.26Zm-7.52,0a3.26,3.26,0,1,0,3.26-3.26,3.26,3.26,0,0,0-3.26,3.26Z" transform="translate(1.39 1.01)"/><line class="cls-1" x1="745.56" y1="653.21" x2="843.54" y2="533.69"/><polyline class="cls-1" points="817.31 841.85 817.31 821.98 794.55 785.39"/><path class="cls-6" d="M796.36,782.4a3.76,3.76,0,1,0-1.21,5.17A3.75,3.75,0,0,0,796.36,782.4Z" transform="translate(1.39 1.01)"/><path class="cls-6" d="M796.78,782.13a4.26,4.26,0,1,1-5.86-1.37,4.26,4.26,0,0,1,5.86,1.37Zm-6.38,4a3.26,3.26,0,1,0,1.05-4.49,3.26,3.26,0,0,0-1.05,4.49Z" transform="translate(1.39 1.01)"/><polyline class="cls-1" points="817.31 563.28 743.46 518.62 745.56 335.11"/><path class="cls-6" d="M747.94,334.14a3.76,3.76,0,1,0-3.81,3.72A3.76,3.76,0,0,0,747.94,334.14Z" transform="translate(1.39 1.01)"/><path class="cls-6" d="M748.44,334.15a4.26,4.26,0,1,1-4.21-4.31,4.26,4.26,0,0,1,4.21,4.31C748.41,336.5,748.46,331.8,748.44,334.15Zm-7.52-.09a3.26,3.26,0,1,0,3.29-3.22,3.26,3.26,0,0,0-3.29,3.22Z" transform="translate(1.39 1.01)"/><line class="cls-1" x1="743.92" y1="428.72" x2="843.28" y2="309.57"/><line class="cls-1" x1="772.53" y1="841.85" x2="843.54" y2="903.3"/><path class="cls-1" d="M631.17,563.85" transform="translate(1.39 1.01)"/><polyline class="cls-1" points="814.06 344.61 814.06 306.14 790.5 291.91"/><path class="cls-6" d="M791.06,287.69a3.76,3.76,0,1,0,1.27,5.16A3.75,3.75,0,0,0,791.06,287.69Z" transform="translate(1.39 1.01)"/><path class="cls-6" d="M791.32,287.26a4.26,4.26,0,1,1-5.85,1.44,4.26,4.26,0,0,1,5.85-1.44Zm-3.89,6.43a3.26,3.26,0,1,0-1.1-4.47,3.27,3.27,0,0,0,1.1,4.47Z" transform="translate(1.39 1.01)"/><line class="cls-1" x1="344.13" y1="412.75" x2="344.13" y2="335.19"/><path class="cls-6" d="M346.51,334.18a3.76,3.76,0,1,0-3.76,3.76A3.77,3.77,0,0,0,346.51,334.18Z" transform="translate(1.39 1.01)"/><path class="cls-6" d="M347,334.18a4.26,4.26,0,1,1-4.26-4.26,4.26,4.26,0,0,1,4.26,4.26Zm-7.52,0a3.26,3.26,0,1,0,3.26-3.26,3.26,3.26,0,0,0-3.26,3.26Z" transform="translate(1.39 1.01)"/><line class="cls-1" x1="476.88" y1="391.21" x2="566.59" y2="355.13"/><path class="cls-6" d="M476.89,393.69A3.76,3.76,0,1,1,479,388.8,3.76,3.76,0,0,1,476.89,393.69Z" transform="translate(1.39 1.01)"/><path class="cls-6" d="M477.08,394.16a4.26,4.26,0,1,0-5.54-2.37,4.27,4.27,0,0,0,5.54,2.37C479.26,393.28,474.9,395,477.08,394.16Zm-2.81-7a3.26,3.26,0,1,1-1.81,4.24,3.26,3.26,0,0,1,1.81-4.24Z" transform="translate(1.39 1.01)"/><path class="cls-6" d="M566.61,357.62a3.76,3.76,0,1,0-4.89-2.09A3.75,3.75,0,0,0,566.61,357.62Z" transform="translate(1.39 1.01)"/><path class="cls-6" d="M566.8,358.08a4.26,4.26,0,1,1,2.36-5.54,4.27,4.27,0,0,1-2.36,5.54Zm-2.81-7a3.26,3.26,0,1,0,4.24,1.81A3.26,3.26,0,0,0,564,351.1Z" transform="translate(1.39 1.01)"/><line class="cls-1" x1="496.86" y1="382.41" x2="604.51" y2="154.34"/><path class="cls-6" d="M606.52,154.94a3.76,3.76,0,1,0-5,1.8A3.76,3.76,0,0,0,606.52,154.94Z" transform="translate(1.39 1.01)"/><path class="cls-6" d="M607,155.16a4.26,4.26,0,1,1-2-5.67,4.27,4.27,0,0,1,2,5.67C606,157.28,608,153,607,155.16Zm-6.8-3.21a3.26,3.26,0,1,0,4.34-1.56,3.27,3.27,0,0,0-4.34,1.56C599.41,153.57,600.94,150.32,600.17,152Z" transform="translate(1.39 1.01)"/><line class="cls-1" x1="539.29" y1="291.91" x2="703.84" y2="290.7"/><path class="cls-6" d="M702.48,293.46a3.76,3.76,0,1,0-3.79-3.74A3.76,3.76,0,0,0,702.48,293.46Z" transform="translate(1.39 1.01)"/><path class="cls-6" d="M702.48,294a4.26,4.26,0,1,1,4.23-4.3,4.28,4.28,0,0,1-4.23,4.3Zm-.05-7.52a3.26,3.26,0,1,0,3.28,3.23,3.26,3.26,0,0,0-3.28-3.23Z" transform="translate(1.39 1.01)"/><line class="cls-1" x1="790.5" y1="373.97" x2="843.28" y2="373.97"/><line class="cls-1" x1="772.53" y1="1001.55" x2="843.54" y2="957.83"/><path class="cls-6" d="M773.11,1003.75a3.76,3.76,0,1,1,1.23-5.17A3.75,3.75,0,0,1,773.11,1003.75Z" transform="translate(1.39 1.01)"/><path class="cls-6" d="M773.37,1004.18a4.26,4.26,0,1,0-5.86-1.4,4.27,4.27,0,0,0,5.86,1.4Zm-3.94-6.41a3.26,3.26,0,1,1-1.07,4.49,3.26,3.26,0,0,1,1.07-4.49C771,996.83,767.9,998.72,769.43,997.77Z" transform="translate(1.39 1.01)"/><polyline class="cls-1" points="476.41 237.25 475.82 290.11 517.85 336.19"/><path class="cls-6" d="M471.27,236.2A3.76,3.76,0,1,1,475,240,3.75,3.75,0,0,1,471.27,236.2Z" transform="translate(1.39 1.01)"/><path class="cls-6" d="M470.77,236.2a4.26,4.26,0,1,0,4.3-4.21,4.25,4.25,0,0,0-4.3,4.21C470.74,238.55,470.79,233.85,470.77,236.2Zm7.51.08a3.26,3.26,0,1,1-3.22-3.29,3.26,3.26,0,0,1,3.22,3.29Z" transform="translate(1.39 1.01)"/><polyline class="cls-1" points="843.28 237.25 814.06 237.25 745.5 57.5 723.06 0.97"/><polyline class="cls-1" points="628.96 355.88 682.36 391.21 745.56 391.21"/><path class="cls-6" d="M625.5,358a3.76,3.76,0,1,1,5.21-1.07A3.77,3.77,0,0,1,625.5,358Z" transform="translate(1.39 1.01)"/><path class="cls-6" d="M625.22,358.42a4.26,4.26,0,1,0-1.2-5.9,4.27,4.27,0,0,0,1.2,5.9Zm4.15-6.27a3.26,3.26,0,1,1-4.51.92,3.26,3.26,0,0,1,4.51-.92Z" transform="translate(1.39 1.01)"/><line class="cls-1" x1="627.27" y1="291.91" x2="615.22" y2="314.11"/><path class="cls-6" d="M610.53,311.31a3.76,3.76,0,1,0,5.1-1.51A3.76,3.76,0,0,0,610.53,311.31Z" transform="translate(1.39 1.01)"/><path class="cls-6" d="M610.09,311.07a4.26,4.26,0,1,1,1.71,5.77,4.26,4.26,0,0,1-1.71-5.77Zm6.61,3.58a3.26,3.26,0,1,0-4.42,1.31,3.26,3.26,0,0,0,4.42-1.31Z" transform="translate(1.39 1.01)"/><line class="cls-1" x1="151.68" y1="536.16" x2="41.98" y2="391.21"/><path class="cls-6" d="M43.59,387.93a3.76,3.76,0,1,0-.73,5.27A3.76,3.76,0,0,0,43.59,387.93Z" transform="translate(1.39 1.01)"/><path class="cls-6" d="M44,387.63a4.26,4.26,0,1,1-6-.82,4.27,4.27,0,0,1,6,.82C45.41,389.5,42.58,385.76,44,387.63Zm-6,4.54a3.26,3.26,0,1,0,.63-4.57,3.25,3.25,0,0,0-.63,4.57C39.08,393.6,36.91,390.74,38,392.17Z" transform="translate(1.39 1.01)"/><line class="cls-1" x1="79.53" y1="441.74" x2="266.93" y2="354.77"/><path class="cls-6" d="M267.12,357.17a3.76,3.76,0,1,0-5-1.82A3.75,3.75,0,0,0,267.12,357.17Z" transform="translate(1.39 1.01)"/><path class="cls-6" d="M267.33,357.63A4.26,4.26,0,1,1,269.4,352a4.26,4.26,0,0,1-2.07,5.66Zm-3.16-6.82a3.26,3.26,0,1,0,4.33,1.58,3.27,3.27,0,0,0-4.33-1.58Z" transform="translate(1.39 1.01)"/><path class="cls-1" d="M638.9,254.82l-3,.6a2.72,2.72,0,0,1-3.19-2.19l-3.34-18.86a1.17,1.17,0,0,1,.93-1.36l5.41-1a1.18,1.18,0,0,1,1.38.9l4,18.73A2.7,2.7,0,0,1,638.9,254.82Z" transform="translate(1.39 1.01)"/><rect class="cls-1" x="628.11" y="216.16" width="6.41" height="16.49" transform="translate(-29.92 126.19) rotate(-11.05)"/><path class="cls-1" d="M632.94,215.7h0a7,7,0,0,1,3.13-2.1c2.91-.94,6.35.22,8.92,2.9,0,0,.11,0,.08-.05a15.27,15.27,0,0,0-8.71-8.28c-5.22-1.84-11-.15-12.09.31l0,0c-.25.77.46,1.66.22,2.43a.09.09,0,0,1,0,0c-.75.12-1.21.32-2,.43l-1.48.23a.4.4,0,0,1-.41-.24,3.17,3.17,0,0,0-.36-1,1.3,1.3,0,0,0-1.06-.55l-2.17.42a1.18,1.18,0,0,0-.93,1.38l1.16,5.94a1.17,1.17,0,0,0,1.38.92l2-.4a1.17,1.17,0,0,0,.93-1.38h0a1.31,1.31,0,0,1,1.15-1.42l2.4-.28a.61.61,0,0,1,.61.32l.83,1.57a.07.07,0,0,0,.06,0Z" transform="translate(1.39 1.01)"/><path class="cls-1" d="M642.67,223.21" transform="translate(1.39 1.01)"/><line class="cls-1" x1="563.88" y1="240.43" x2="615.22" y2="232.94"/><path class="cls-6" d="M614.38,235.66a3.76,3.76,0,1,0-4.27-3.18A3.76,3.76,0,0,0,614.38,235.66Z" transform="translate(1.39 1.01)"/><path class="cls-6" d="M614.45,236.15a4.26,4.26,0,1,1,3.6-4.83,4.26,4.26,0,0,1-3.6,4.83Zm-1.09-7.44a3.26,3.26,0,1,0,3.7,2.75,3.26,3.26,0,0,0-3.7-2.75Z" transform="translate(1.39 1.01)"/><polyline class="cls-1" points="631.28 189.97 703.72 190.8 781.09 149.88"/><path class="cls-6" d="M629.85,192.72a3.76,3.76,0,1,1,3.8-3.71A3.75,3.75,0,0,1,629.85,192.72Z" transform="translate(1.39 1.01)"/><path class="cls-6" d="M629.85,193.22a4.26,4.26,0,1,0-4.21-4.31,4.26,4.26,0,0,0,4.21,4.31Zm.08-7.52a3.26,3.26,0,1,1-3.29,3.22,3.25,3.25,0,0,1,3.29-3.22Z" transform="translate(1.39 1.01)"/><polyline class="cls-1" points="151.69 407.45 152.59 384.24 112.96 361.16"/><line class="cls-1" x1="112.61" y1="362.43" x2="112.61" y2="240.43"/><path class="cls-6" d="M115,239.43a3.76,3.76,0,1,0-3.76,3.76A3.76,3.76,0,0,0,115,239.43Z" transform="translate(1.39 1.01)"/><path class="cls-6" d="M115.49,239.43a4.26,4.26,0,1,1-4.26-4.26,4.28,4.28,0,0,1,4.26,4.26Zm-7.52,0a3.26,3.26,0,1,0,3.26-3.26,3.27,3.27,0,0,0-3.26,3.26Z" transform="translate(1.39 1.01)"/><polyline class="cls-1" points="107.11 477.27 36.52 478.85 1.39 430.96"/><polyline class="cls-1" points="112.61 291.91 266.93 219.51 266.93 154.34 345.11 23.13"/><polyline class="cls-1" points="112.61 334.16 54.25 244.71 54.25 114.5"/><path class="cls-6" d="M56.62,113.49a3.76,3.76,0,1,0-3.76,3.76A3.76,3.76,0,0,0,56.62,113.49Z" transform="translate(1.39 1.01)"/><path class="cls-6" d="M57.12,113.49a4.26,4.26,0,1,1-4.26-4.26,4.26,4.26,0,0,1,4.26,4.26Zm-7.52,0a3.26,3.26,0,1,0,3.26-3.26,3.27,3.27,0,0,0-3.26,3.26Z" transform="translate(1.39 1.01)"/><line class="cls-1" x1="83.49" y1="291.91" x2="61.11" y2="324.19"/><path class="cls-6" d="M56.63,321a3.76,3.76,0,1,0,5.23-1A3.76,3.76,0,0,0,56.63,321Z" transform="translate(1.39 1.01)"/><path class="cls-6" d="M56.22,320.75a4.26,4.26,0,1,1,1.07,5.93,4.27,4.27,0,0,1-1.07-5.93ZM62.4,325a3.26,3.26,0,1,0-4.54.82A3.27,3.27,0,0,0,62.4,325Z" transform="translate(1.39 1.01)"/><line class="cls-4" x1="54.07" y1="155.34" x2="1.39" y2="76.23"/><polyline class="cls-4" points="393.01 104.2 393.01 66.97 345.53 66.97 345.13 1.01"/><path class="cls-6" d="M395.39,103.19a3.76,3.76,0,1,1-3.76-3.76A3.76,3.76,0,0,1,395.39,103.19Z" transform="translate(1.39 1.01)"/><path class="cls-6" d="M395.89,103.19a4.26,4.26,0,1,0-4.26,4.26,4.26,4.26,0,0,0,4.26-4.26Zm-7.52,0a3.26,3.26,0,1,1,3.26,3.26,3.27,3.27,0,0,1-3.26-3.26Z" transform="translate(1.39 1.01)"/><line class="cls-4" x1="211.36" y1="245.58" x2="268.45" y2="289.7"/><path class="cls-6" d="M264.76,291.67a3.76,3.76,0,1,0-.68-5.27A3.75,3.75,0,0,0,264.76,291.67Z" transform="translate(1.39 1.01)"/><path class="cls-6" d="M264.45,292.07a4.26,4.26,0,1,1,6-.77,4.27,4.27,0,0,1-6,.77C262.6,290.63,266.31,293.5,264.45,292.07Zm4.6-5.95a3.26,3.26,0,1,0,.59,4.57,3.26,3.26,0,0,0-.59-4.57Z" transform="translate(1.39 1.01)"/><polyline class="cls-4" points="36.52 354.77 13.16 354.42 13.16 94.24"/><path class="cls-6" d="M35.19,350a3.76,3.76,0,1,1-3.82,3.71A3.77,3.77,0,0,1,35.19,350Z" transform="translate(1.39 1.01)"/><path class="cls-6" d="M35.19,349.5a4.26,4.26,0,1,0,4.2,4.33,4.27,4.27,0,0,0-4.2-4.33C32.84,349.47,37.54,349.54,35.19,349.5ZM35.08,357a3.26,3.26,0,1,1,3.31-3.21A3.25,3.25,0,0,1,35.08,357C33.28,357,36.88,357.05,35.08,357Z" transform="translate(1.39 1.01)"/><line class="cls-4" x1="13.16" y1="203.58" x2="1.39" y2="185.81"/><line class="cls-4" x1="345.53" y1="154.34" x2="477.41" y2="155.34"/><path class="cls-6" d="M344.11,157.1a3.76,3.76,0,1,1,3.79-3.73A3.76,3.76,0,0,1,344.11,157.1Z" transform="translate(1.39 1.01)"/><path class="cls-6" d="M344.11,157.6a4.26,4.26,0,1,0-4.23-4.29,4.26,4.26,0,0,0,4.23,4.29Zm.05-7.52a3.26,3.26,0,1,1-3.28,3.23,3.27,3.27,0,0,1,3.28-3.23Z" transform="translate(1.39 1.01)"/><path class="cls-6" d="M476,158.1a3.76,3.76,0,1,0-3.73-3.79A3.76,3.76,0,0,0,476,158.1Z" transform="translate(1.39 1.01)"/><path class="cls-6" d="M476,158.6a4.26,4.26,0,1,1,4.29-4.23A4.26,4.26,0,0,1,476,158.6Zm.06-7.52a3.26,3.26,0,1,0,3.23,3.28,3.26,3.26,0,0,0-3.23-3.28Z" transform="translate(1.39 1.01)"/><line class="cls-4" x1="196.53" y1="153.37" x2="196.53" y2="1.01"/><path class="cls-6" d="M198.9,152.36a3.76,3.76,0,1,1-3.76-3.76A3.76,3.76,0,0,1,198.9,152.36Z" transform="translate(1.39 1.01)"/><path class="cls-6" d="M199.4,152.36a4.26,4.26,0,1,0-4.26,4.26,4.26,4.26,0,0,0,4.26-4.26Zm-7.52,0a3.26,3.26,0,1,1,3.26,3.26,3.27,3.27,0,0,1-3.26-3.26Z" transform="translate(1.39 1.01)"/><line class="cls-4" x1="196.53" y1="46.97" x2="112.61" y2="81.69"/><path class="cls-6" d="M109.79,77.21a3.76,3.76,0,1,0,4.91,2A3.76,3.76,0,0,0,109.79,77.21Z" transform="translate(1.39 1.01)"/><path class="cls-6" d="M109.6,76.74a4.26,4.26,0,1,1-2.31,5.57,4.27,4.27,0,0,1,2.31-5.57C111.77,75.85,107.43,77.64,109.6,76.74Zm2.87,7a3.26,3.26,0,1,0-4.26-1.76,3.27,3.27,0,0,0,4.26,1.76Z" transform="translate(1.39 1.01)"/><rect class="cls-1" x="223.89" y="49.4" width="7.36" height="10.47" rx="3.45"/><rect class="cls-1" x="235.72" y="49.4" width="7.36" height="10.47" rx="3.45"/><rect class="cls-1" x="223.89" y="65.66" width="7.36" height="10.47" rx="3.45"/><rect class="cls-1" x="235.72" y="65.66" width="7.36" height="10.47" rx="3.45"/><rect class="cls-1" x="265.65" y="49.4" width="7.36" height="10.47" rx="3.45"/><rect class="cls-1" x="277.48" y="49.4" width="7.36" height="10.47" rx="3.45"/><rect class="cls-1" x="265.65" y="65.66" width="7.36" height="10.47" rx="3.45"/><rect class="cls-1" x="277.48" y="65.66" width="7.36" height="10.47" rx="3.45"/><rect class="cls-1" x="247.43" y="62.46" width="13.76" height="19.59" rx="3.45"/><line class="cls-1" x1="254.59" y1="62.83" x2="254.31" y2="82.04"/><circle class="cls-1" cx="254.43" cy="43.09" r="8.27"/><path class="cls-4" d="M259.13,27.73H285.2a.36.36,0,0,1,.33.21l5.75,13.7a.35.35,0,0,1-.33.49h-2.16V81.51H217.61V42.09" transform="translate(1.39 1.01)"/><path class="cls-4" d="M246.83,27.73H221.52a.37.37,0,0,0-.33.2l-6.45,13.69a.35.35,0,0,0,.32.51H236l17-20.91,17.23,20.91h18.53" transform="translate(1.39 1.01)"/><line class="cls-7" x1="254.42" y1="22.22" x2="254.42" y2="2.41"/><path class="cls-4" d="M253,4.23h10.46a.14.14,0,0,1,.12.22l-1.83,2.88a0,0,0,0,0,0,0l1.87,3.74a.15.15,0,0,1-.13.21H253" transform="translate(1.39 1.01)"/><polyline class="cls-7" points="254.31 39.08 254.43 43.09 252.74 45.38"/><line class="cls-4" x1="330.41" y1="45.38" x2="310.11" y2="45.97"/><path class="cls-6" d="M308.61,41.21a3.76,3.76,0,1,0,3.87,3.65A3.76,3.76,0,0,0,308.61,41.21Z" transform="translate(1.39 1.01)"/><path class="cls-6" d="M308.59,40.71a4.26,4.26,0,1,1-4.13,4.38,4.27,4.27,0,0,1,4.13-4.38Zm.22,7.51a3.26,3.26,0,1,0-3.35-3.16,3.26,3.26,0,0,0,3.35,3.16C310.61,48.17,307,48.28,308.81,48.22Z" transform="translate(1.39 1.01)"/><polyline class="cls-4" points="345.11 382.42 391.48 336.19 391.48 155.34"/><polyline class="cls-4" points="413.42 195.69 428.25 216.35 446.41 216.35"/><path class="cls-6" d="M445,219.1a3.76,3.76,0,1,0-3.76-3.76A3.76,3.76,0,0,0,445,219.1Z" transform="translate(1.39 1.01)"/><path class="cls-6" d="M445,219.6a4.26,4.26,0,1,1,4.26-4.26A4.26,4.26,0,0,1,445,219.6Zm0-7.52a3.26,3.26,0,1,0,3.26,3.26,3.26,3.26,0,0,0-3.26-3.26Z" transform="translate(1.39 1.01)"/><polyline class="cls-4" points="194.05 103.3 147.47 103.53 112.68 164.47"/><path class="cls-6" d="M108,161.6a3.76,3.76,0,1,0,5.13-1.41A3.76,3.76,0,0,0,108,161.6Z" transform="translate(1.39 1.01)"/><path class="cls-6" d="M107.6,161.35a4.26,4.26,0,1,1,1.58,5.81,4.27,4.27,0,0,1-1.58-5.81C108.76,159.31,106.43,163.39,107.6,161.35Zm6.53,3.73a3.27,3.27,0,1,0-4.45,1.21,3.27,3.27,0,0,0,4.45-1.21C115,163.51,113.23,166.64,114.13,165.08Z" transform="translate(1.39 1.01)"/><line class="cls-1" x1="196.53" y1="129.34" x2="246.08" y2="104.34"/><path class="cls-6" d="M246.39,106.69a3.76,3.76,0,1,0-5-1.67A3.76,3.76,0,0,0,246.39,106.69Z" transform="translate(1.39 1.01)"/><path class="cls-6" d="M246.61,107.13a4.26,4.26,0,1,1,1.89-5.72,4.26,4.26,0,0,1-1.89,5.72C244.52,108.19,248.71,106.08,246.61,107.13Zm-3.38-6.71a3.26,3.26,0,1,0,4.37,1.44,3.26,3.26,0,0,0-4.37-1.44Z" transform="translate(1.39 1.01)"/><line class="cls-4" x1="445.4" y1="154.34" x2="529.13" y2="2.41"/><polyline class="cls-4" points="505.97 45.97 537.67 102.07 590.99 101.4"/><path class="cls-6" d="M589.65,104.15a3.76,3.76,0,1,0-3.81-3.71A3.75,3.75,0,0,0,589.65,104.15Z" transform="translate(1.39 1.01)"/><path class="cls-6" d="M589.65,104.65a4.26,4.26,0,1,1,4.21-4.31,4.27,4.27,0,0,1-4.21,4.31Zm-.09-7.52a3.26,3.26,0,1,0,3.3,3.22,3.27,3.27,0,0,0-3.3-3.22C587.76,97.16,591.36,97.11,589.56,97.13Z" transform="translate(1.39 1.01)"/><line class="cls-1" x1="523.01" y1="76.13" x2="561.67" y2="2.41"/><line class="cls-4" x1="1.63" y1="1012.52" x2="70.16" y2="960.66"/><path class="cls-4" d="M69.06,1110.3" transform="translate(1.39 1.01)"/><line class="cls-4" x1="1.63" y1="1038.92" x2="70.45" y2="1111.31"/><path class="cls-6" d="M66.34,1112.89a3.76,3.76,0,1,0,.13-5.31A3.75,3.75,0,0,0,66.34,1112.89Z" transform="translate(1.39 1.01)"/><path class="cls-6" d="M66,1113.24a4.26,4.26,0,1,1,6,.15,4.26,4.26,0,0,1-6-.15C64.36,1111.54,67.59,1114.94,66,1113.24Zm5.45-5.18a3.26,3.26,0,1,0-.12,4.61,3.26,3.26,0,0,0,.12-4.61Z" transform="translate(1.39 1.01)"/><polyline class="cls-4" points="790.5 175.49 705.62 219.51 663.31 219.51"/><path class="cls-6" d="M661.93,214.75a3.76,3.76,0,1,0,3.76,3.76A3.76,3.76,0,0,0,661.93,214.75Z" transform="translate(1.39 1.01)"/><path class="cls-6" d="M661.93,214.25a4.26,4.26,0,1,1-4.26,4.26,4.27,4.27,0,0,1,4.26-4.26Zm0,7.52a3.26,3.26,0,1,0-3.26-3.26,3.27,3.27,0,0,0,3.26,3.26Z" transform="translate(1.39 1.01)"/><polyline class="cls-1" points="742.03 45.55 701.09 45.21 684.42 102.22"/><path class="cls-6" d="M679.43,100.16a3.76,3.76,0,1,0,4.66-2.55A3.76,3.76,0,0,0,679.43,100.16Z" transform="translate(1.39 1.01)"/><path class="cls-6" d="M679,100a4.26,4.26,0,1,1,2.89,5.28A4.26,4.26,0,0,1,679,100Zm7.22,2.11a3.26,3.26,0,1,0-4,2.21,3.26,3.26,0,0,0,4-2.21C686.67,100.4,685.66,103.85,686.17,102.13Z" transform="translate(1.39 1.01)"/><line class="cls-1" x1="367.63" y1="491.05" x2="253.66" y2="578.93"/><path class="cls-6" d="M250,575a3.76,3.76,0,1,0,5.28.68A3.76,3.76,0,0,0,250,575Z" transform="translate(1.39 1.01)"/><path class="cls-6" d="M249.67,574.55a4.26,4.26,0,1,1-.77,6,4.26,4.26,0,0,1,.77-6C251.53,573.12,247.81,576,249.67,574.55Zm4.59,6a3.26,3.26,0,1,0-4.57-.59,3.27,3.27,0,0,0,4.57.59Z" transform="translate(1.39 1.01)"/><line class="cls-4" x1="411.47" y1="157.52" x2="415.45" y2="355.88"/><path class="cls-6" d="M410.3,355a3.76,3.76,0,1,0,3.68-3.84A3.76,3.76,0,0,0,410.3,355Z" transform="translate(1.39 1.01)"/><path class="cls-6" d="M409.8,355a4.26,4.26,0,1,1,4.34,4.17A4.26,4.26,0,0,1,409.8,355Zm7.52-.16a3.26,3.26,0,1,0-3.2,3.33,3.27,3.27,0,0,0,3.2-3.33C417.28,353,417.35,356.6,417.32,354.8Z" transform="translate(1.39 1.01)"/><polyline class="cls-4" points="744.29 463.68 793.6 411.17 843.28 411.17"/><polyline class="cls-4" points="421.56 775.49 474.14 816.91 473.82 891.41"/><path class="cls-6" d="M468.67,890.39a3.76,3.76,0,1,0,3.78-3.74A3.76,3.76,0,0,0,468.67,890.39Z" transform="translate(1.39 1.01)"/><path class="cls-6" d="M468.17,890.39a4.26,4.26,0,1,1,4.24,4.28,4.26,4.26,0,0,1-4.24-4.28Zm7.52,0a3.26,3.26,0,1,0-3.27,3.25,3.27,3.27,0,0,0,3.27-3.25C475.7,888.63,475.68,892.22,475.69,890.42Z" transform="translate(1.39 1.01)"/><polyline class="cls-4" points="112.96 271.92 198.9 232.25 197.17 203.32"/><path class="cls-6" d="M199.54,202.09a3.76,3.76,0,1,0-3.53,4A3.76,3.76,0,0,0,199.54,202.09Z" transform="translate(1.39 1.01)"/><path class="cls-6" d="M200,202.06a4.26,4.26,0,1,1-4.51-4,4.27,4.27,0,0,1,4.51,4Zm-7.51.45a3.26,3.26,0,1,0,3.06-3.44,3.26,3.26,0,0,0-3.06,3.44C192.64,204.31,192.42,200.72,192.53,202.51Z" transform="translate(1.39 1.01)"/></g></svg>