<svg id="Layer_1" data-name="Layer 1" xmlns="http://www.w3.org/2000/svg" viewBox="0 0 849.11 600.3"><defs><style>.cls-1,.cls-10,.cls-2,.cls-3,.cls-4,.cls-5,.cls-8,.cls-9{fill:none;}.cls-1,.cls-2,.cls-3,.cls-4,.cls-5,.cls-8,.cls-9{stroke:#1d1d1b;}.cls-1,.cls-2,.cls-3,.cls-4,.cls-8{stroke-miterlimit:10;}.cls-1,.cls-4,.cls-5,.cls-8,.cls-9{stroke-width:2px;}.cls-2,.cls-8,.cls-9{stroke-linecap:round;}.cls-2{stroke-width:4px;}.cls-3{stroke-width:8px;}.cls-4,.cls-5{stroke-linecap:square;}.cls-5,.cls-9{stroke-linejoin:round;}.cls-6{fill:#fff;}.cls-7{fill:#1d1d1b;}</style></defs><title>rotated_pattern</title><rect class="cls-1" x="349.9" y="227.68" width="43.32" height="27.08" rx="7.07"/><line class="cls-2" x1="358.44" y1="263.86" x2="384.77" y2="263.86"/><line class="cls-1" x1="374.09" y1="233.39" x2="369.34" y2="248.82"/><path class="cls-1" d="M372.35,234.63l7,3.38a.41.41,0,0,1,0,.74l-7,3.27" transform="translate(3.98 2.72)"/><path class="cls-1" d="M363.09,234.63l-7,3.38a.41.41,0,0,0,0,.74l7,3.27" transform="translate(3.98 2.72)"/><line class="cls-3" x1="371.49" y1="255.29" x2="371.49" y2="263.86"/><path class="cls-1" d="M512,334.17a7.87,7.87,0,0,0,5.52-2.25s.84-.7,1.23-4c.2-1.71.1-2.23.16-3.14a.82.82,0,0,1,.15-.42c3.5-4.82,7.58-9.72,4.55-15.28A13.9,13.9,0,0,0,512,301.65h0a13.67,13.67,0,0,0-11.49,7.41c-3,5.55,1.06,10.45,4.56,15.28a.76.76,0,0,1,.15.4,29.37,29.37,0,0,0,.16,3.15c.38,3.31,1.23,4,1.23,4a7.58,7.58,0,0,0,5.45,2.27Z" transform="translate(3.98 2.72)"/><line class="cls-1" x1="509.47" y1="331.6" x2="522.57" y2="331.6"/><line class="cls-1" x1="509.15" y1="327.23" x2="522.88" y2="327.26"/><path class="cls-1" d="M512,318.68c2.08,1.06,4.59,1.4,6.28-.12s3-4,2.46-6.07a9.91,9.91,0,0,0-4.32.24,6.59,6.59,0,0,0-4.41,5.92c0,2.74,0,3.14,0,5.88" transform="translate(3.98 2.72)"/><path class="cls-1" d="M512.08,318.68c-3,.35-6-.22-7.52-2.53a7.4,7.4,0,0,1-1-5.17,7.35,7.35,0,0,1,6.61,1.78,7.19,7.19,0,0,1,1.9,5.89" transform="translate(3.98 2.72)"/><path class="cls-4" d="M449.14,196.31a.35.35,0,0,0,.08.54,1.77,1.77,0,0,1,.59.55,2,2,0,0,1,.28.71.33.33,0,0,0,.49.24,29.25,29.25,0,0,0,4.93-3.24,29.92,29.92,0,0,0,4.62-4.67.07.07,0,0,0-.07-.11,22.25,22.25,0,0,0-6.32,2.29A19.46,19.46,0,0,0,449.14,196.31Z" transform="translate(3.98 2.72)"/><path class="cls-4" d="M448.62,202.34a.35.35,0,0,0-.51-.2,1.75,1.75,0,0,1-.77.23,1.86,1.86,0,0,1-.75-.11.34.34,0,0,0-.46.3,29.66,29.66,0,0,0,2.08,12.23.07.07,0,0,0,.13,0,21.18,21.18,0,0,0,.28-12.45Z" transform="translate(3.98 2.72)"/><path class="cls-4" d="M443.25,198.72a.35.35,0,0,0,.44-.32,1.72,1.72,0,0,1,.22-.78,1.76,1.76,0,0,1,.49-.57.34.34,0,0,0,0-.55,28.52,28.52,0,0,0-5.17-2.85,29.65,29.65,0,0,0-6.29-1.89.06.06,0,0,0-.06.1,21,21,0,0,0,10.39,6.86Z" transform="translate(3.98 2.72)"/><path class="cls-5" d="M477.26,197.6v2.74c0,.21-.36.38-.55.38l-25.89-1.2a.36.36,0,0,1-.33-.38V199a.36.36,0,0,1,.33-.38l25.89-1.4C476.9,197.21,477.26,197.38,477.26,197.6Z" transform="translate(3.98 2.72)"/><circle class="cls-5" cx="450.98" cy="201.75" r="1.08"/><path class="cls-1" d="M409.06,331.44l-1.23-2a2,2,0,0,1,.68-2.84l12.37-7.43a.91.91,0,0,1,1.21.29l2.2,3.53a.89.89,0,0,1-.27,1.21l-12.11,7.85A2,2,0,0,1,409.06,331.44Z" transform="translate(3.98 2.72)"/><rect class="cls-1" x="426.02" y="311.71" width="4.83" height="12.43" transform="translate(475.28 -211.14) rotate(58.03)"/><path class="cls-1" d="M435,316.72v0a5.33,5.33,0,0,1,2.33,1.64c1.44,1.8,1.54,4.53.35,7.06a0,0,0,0,0,.06,0,11.48,11.48,0,0,0,3.48-8.35,14.5,14.5,0,0,0-3.47-8.43l0,0c-.6,0-1,.77-1.64.81l0,0c-.28-.5-.55-.77-.84-1.28l-.55-1a.28.28,0,0,1,.06-.35,2.68,2.68,0,0,0,.61-.52,1,1,0,0,0,.1-.9l-.88-1.41a.89.89,0,0,0-1.22-.29l-3.87,2.42a.89.89,0,0,0-.28,1.22l.84,1.33a.88.88,0,0,0,1.22.29h0a1,1,0,0,1,1.31.43l.84,1.61a.46.46,0,0,1-.06.51l-.88,1a.07.07,0,0,0,0,.05Z" transform="translate(3.98 2.72)"/><path class="cls-1" d="M432.33,325.59" transform="translate(3.98 2.72)"/><path class="cls-1" d="M324.8,368" transform="translate(3.98 2.72)"/><path class="cls-1" d="M328.84,365.21" transform="translate(3.98 2.72)"/><path class="cls-1" d="M324.8,368l-20.6-29.61-5.91-1.49a.51.51,0,0,1-.14-.92l10.07-6.8a.51.51,0,0,1,.79.48l-.7,6,20.53,29.51" transform="translate(3.98 2.72)"/><path class="cls-1" d="M328.84,365.21l6.25,12.85a.43.43,0,0,1-.7.46L324.8,368l-8.1,4.06a1.28,1.28,0,0,0-.45,1.92l9.19,12.59a4.07,4.07,0,0,0,1.09,1,17.31,17.31,0,0,0,8.06,2.21c3.6.16,5.66-.06,7.57-.82l.77-.57c1.27-1.62,2.07-3.53,2.93-7A17.39,17.39,0,0,0,346,373a4.19,4.19,0,0,0-.68-1.33l-7.8-12.42a1.29,1.29,0,0,0-2-.12Z" transform="translate(3.98 2.72)"/><path class="cls-1" d="M305.35,334.9l-.68.43h0l-.67-.07s0,0,0,0l1.53-1s.05,0,0,0l-.18.66Z" transform="translate(3.98 2.72)"/><polyline class="cls-1" points="370.97 434.18 339.96 433.95 292.95 367.8 292.31 321.92"/><path class="cls-6" d="M292.09,319.15a3.76,3.76,0,1,0-3.71,3.81A3.76,3.76,0,0,0,292.09,319.15Z" transform="translate(3.98 2.72)"/><path class="cls-7" d="M292.59,319.14a4.26,4.26,0,1,1-4.32-4.2,4.27,4.27,0,0,1,4.32,4.2C292.62,321.49,292.55,316.79,292.59,319.14Zm-7.52.1a3.26,3.26,0,1,0,3.21-3.3,3.26,3.26,0,0,0-3.21,3.3C285.09,321,285,317.45,285.07,319.24Z" transform="translate(3.98 2.72)"/><line class="cls-1" x1="339.78" y1="218.04" x2="314.02" y2="218.04"/><rect class="cls-1" x="315.83" y="113.74" width="5.55" height="7.89" rx="2.76"/><rect class="cls-1" x="324.74" y="113.74" width="5.55" height="7.89" rx="2.76"/><rect class="cls-1" x="315.83" y="125.99" width="5.55" height="7.89" rx="2.76"/><rect class="cls-1" x="324.74" y="125.99" width="5.55" height="7.89" rx="2.76"/><rect class="cls-1" x="347.3" y="113.74" width="5.55" height="7.89" rx="2.76"/><rect class="cls-1" x="356.21" y="113.74" width="5.55" height="7.89" rx="2.76"/><rect class="cls-1" x="347.3" y="125.99" width="5.55" height="7.89" rx="2.76"/><rect class="cls-1" x="356.21" y="125.99" width="5.55" height="7.89" rx="2.76"/><rect class="cls-1" x="333.56" y="123.58" width="10.37" height="14.76" rx="3.45"/><line class="cls-1" x1="338.96" y1="123.86" x2="338.75" y2="138.34"/><circle class="cls-1" cx="338.84" cy="108.99" r="6.23"/><path class="cls-4" d="M339.45,95.45h19.64a.27.27,0,0,1,.25.16l4.33,10.32a.26.26,0,0,1-.25.37h-1.63V136H308.16V106.27" transform="translate(3.98 2.72)"/><path class="cls-4" d="M330.17,95.45H311.1a.26.26,0,0,0-.24.15L306,105.92a.27.27,0,0,0,.24.38H322l12.83-15.76,13,15.76h14" transform="translate(3.98 2.72)"/><line class="cls-8" x1="338.83" y1="93.26" x2="338.83" y2="78.33"/><path class="cls-4" d="M334.85,77.74h7.88a.11.11,0,0,1,.09.17l-1.38,2.17s0,0,0,0l1.41,2.82a.12.12,0,0,1-.1.16h-7.9" transform="translate(3.98 2.72)"/><polyline class="cls-8" points="338.75 105.97 338.84 108.99 337.56 110.71"/><path class="cls-1" d="M438,423.74" transform="translate(3.98 2.72)"/><path class="cls-1" d="M425.19,443.86l3.69-6.49a.17.17,0,0,0-.06-.23l-4.65-2.62-7.43,4.28.06.14a.27.27,0,0,0,.07.08c1.31,1,2.75,1.76,4.33,2.74,1.3.8,2.56,1.52,3.77,2.16A.15.15,0,0,0,425.19,443.86Z" transform="translate(3.98 2.72)"/><path class="cls-1" d="M416.33,437.57c-.12-.53-.23-.92-.32-1.56-.11-.8-.19-1.88-.22-2.82a19.3,19.3,0,0,1,.13-2.53c.06-.45.13-.88.21-1.28a1.33,1.33,0,0,1,.21-.47,4.8,4.8,0,0,1,.88-.93c1.66-1.32,3.84-2.16,5.65-3.23l-.93-1.82,6.66,3.17-1,6.93-.88-1.56-3,1.82Z" transform="translate(3.98 2.72)"/><path class="cls-1" d="M446.93,436.37l-7.47.05a.15.15,0,0,0-.16.16l0,5.34,7.43,4.3.09-.13a.18.18,0,0,0,0-.1c.18-1.61.14-3.26.2-5.12,0-1.52,0-3,0-4.34A.16.16,0,0,0,446.93,436.37Z" transform="translate(3.98 2.72)"/><path class="cls-1" d="M445.91,447.19c-.4.37-.68.66-1.19,1.06a27.9,27.9,0,0,1-2.34,1.59,18,18,0,0,1-2.25,1.16c-.42.17-.83.32-1.21.45a1.12,1.12,0,0,1-.51.06,4.91,4.91,0,0,1-1.26-.3c-2-.77-3.78-2.24-5.62-3.28l-1.1,1.72-.58-7.35,6.48-2.61-.91,1.54,3.07,1.66Z" transform="translate(3.98 2.72)"/><path class="cls-1" d="M429.1,421.09l3.78,6.45a.15.15,0,0,0,.22.06l4.6-2.71v-8.58l-.16,0-.1,0c-1.49.65-2.89,1.51-4.53,2.39-1.35.72-2.6,1.45-3.76,2.18A.15.15,0,0,0,429.1,421.09Z" transform="translate(3.98 2.72)"/><path class="cls-1" d="M439,416.57c.52.16.91.26,1.51.5A23.49,23.49,0,0,1,443,418.3a17.86,17.86,0,0,1,2.13,1.37c.36.28.69.55,1,.82a1.25,1.25,0,0,1,.3.42,4.65,4.65,0,0,1,.37,1.23c.31,2.09,0,4.4,0,6.51l2,.1-6.07,4.18-5.51-4.32,1.79,0-.09-3.48Z" transform="translate(3.98 2.72)"/><path class="cls-1" d="M479.58,103.71l9.54,9.23A3,3,0,0,1,490,115v2.54a4.94,4.94,0,0,0,3.69,4.77l7.49,2,1.94,3.59-1.94-4.33,2.5-6.73a2.63,2.63,0,0,0-1.66-3.43l-3.25-1a1.85,1.85,0,0,1-.95-2.82l2.57-3.7a5.57,5.57,0,0,0-.65-7.12l-6.21-6.17c-.55-.55-.06-2.08.72-2a14.76,14.76,0,0,1,6.68-.75c3.7.26,4.55.93,6.57,2.31a12.54,12.54,0,0,1,1.42,1.08,1.61,1.61,0,0,1,.24.28,7.25,7.25,0,0,1,.93,1.49,3,3,0,0,1,.32,1.22l.27,4.77a4.65,4.65,0,0,0,3.77,4.1l4.57.86" transform="translate(3.98 2.72)"/><path class="cls-9" d="M477.29,123.91h-6.68a.9.9,0,0,0-.9.9v11.52a1.08,1.08,0,0,0,.17.55,1.63,1.63,0,0,0,1.38.71h5.38a1.61,1.61,0,0,0,1.37-.71,1,1,0,0,0,.18-.55V124.81A.9.9,0,0,0,477.29,123.91Z" transform="translate(3.98 2.72)"/><path class="cls-9" d="M519.84,122.92c-1.19-1.26-3-.79-5.93,1l-10.42,6.37a3.18,3.18,0,0,1-1.68.47h-2a3,3,0,0,0,3-2.8c9.36-1.74,16.43-9.56,16.43-18.94,0-10.66-9.11-19.3-20.36-19.3s-20.36,8.64-20.36,19.3a18.54,18.54,0,0,0,4.16,11.68,3.72,3.72,0,0,0-2.26,1.58l-1.08,1.64a1.68,1.68,0,0,0-.29.94v12.8l21.92-.06a10.9,10.9,0,0,0,6.18-1.87l10.87-7.56C520.64,126.26,521.06,124.21,519.84,122.92Z" transform="translate(3.98 2.72)"/><path class="cls-1" d="M476.64,137.59h-5.38a1.63,1.63,0,0,1-1.38-.71,1.08,1.08,0,0,1-.17-.55V124.81a.9.9,0,0,1,.9-.9h6.68a.9.9,0,0,1,.9.9v11.52a1,1,0,0,1-.18.55A1.61,1.61,0,0,1,476.64,137.59Z" transform="translate(3.98 2.72)"/><path class="cls-9" d="M481.57,120.59" transform="translate(3.98 2.72)"/><path class="cls-9" d="M513.91,123.91c2.93-1.78,4.74-2.25,5.93-1s.8,3.34-1.78,5.24l-10.87,7.56a10.9,10.9,0,0,1-6.18,1.87l-21.92.06v-12.8a1.68,1.68,0,0,1,.29-.94l1.08-1.64a3.73,3.73,0,0,1,3.12-1.68h3.1a3.4,3.4,0,0,1,3.11,2.12,3.41,3.41,0,0,0,3.13,2.07h6.88a3,3,0,1,1,0,6h2a3.18,3.18,0,0,0,1.68-.47Z" transform="translate(3.98 2.72)"/><path class="cls-1" d="M517.22,443.58h7.31a0,0,0,0,1,0,0v8a0,0,0,0,1,0,0H516.9a3.79,3.79,0,0,1-3.79-3.79v0A4.11,4.11,0,0,1,517.22,443.58Z"/><rect class="cls-1" x="524.54" y="439.98" width="11.06" height="15.03" rx="5.5"/><path class="cls-1" d="M531.61,449.31v-.52a5.35,5.35,0,0,1,5.21,5.38v1.21c0,1,.8,1.46,1.8,1.46h4.59A1.81,1.81,0,0,0,545,455v-3.11A10.92,10.92,0,0,0,534.89,441l-3.28-.14Z" transform="translate(3.98 2.72)"/><rect class="cls-1" x="529.01" y="435.71" width="1.74" height="4.27"/><path class="cls-1" d="M533.6,432.42a2,2,0,0,1-2.85,1.3,10.51,10.51,0,0,0-4.68-.9,9.65,9.65,0,0,0-4.72,1,1.71,1.71,0,0,1-1.87-.09,1.37,1.37,0,0,1-.22-.2,2.14,2.14,0,0,1-.64-1.54v-.09a2.15,2.15,0,0,1,.64-1.55,2.4,2.4,0,0,1,1.55-.65c2.28-.22,3,1.57,5.14,1.62s3.47-1.82,5.51-1.62a2.52,2.52,0,0,1,1.55.65,2.19,2.19,0,0,1,.64,1.55V432A2.3,2.3,0,0,1,533.6,432.42Z" transform="translate(3.98 2.72)"/><path class="cls-1" d="M540.48,460.52l-2.78,7.15a3.64,3.64,0,0,0,2.87,5,3.83,3.83,0,0,0,2.75-.73,3.55,3.55,0,0,0,1.08-4.36l-3.3-7.06A.34.34,0,0,0,540.48,460.52Z" transform="translate(3.98 2.72)"/><line class="cls-8" x1="334.57" y1="468.54" x2="334.57" y2="505.82"/><polyline class="cls-9" points="344.15 482.26 334.57 489.25 325.55 482.26"/><polyline class="cls-9" points="326.81 474.24 334.57 479.42 341.56 474.24"/><path class="cls-1" d="M335.25,490.41H345a5.29,5.29,0,0,0,3.71-8.54,8,8,0,0,0,1.45-5.17c-.33-3.46-3.27-6.51-7.36-7.51a8,8,0,0,0-1.44-7c-1.9-2.24-5.6-1.45-6.16-1.5-.24-.39-1.54-5.24-4.92-5.8-3-.49-5.51,3.88-5.95,4.19-4.49-.78-7.34-.25-9.18,3.28a9.42,9.42,0,0,0-.61,7.34,7.25,7.25,0,0,0-4.5,6.21,7.44,7.44,0,0,0,2.43,5.69c-2.31,3.11-1.74,7,.41,8.55a5,5,0,0,0,3.86.66,22.73,22.73,0,0,1,4.11-.41h5.6" transform="translate(3.98 2.72)"/><line class="cls-1" x1="334.57" y1="501.42" x2="334.57" y2="507.11"/><line class="cls-1" x1="296.69" y1="296.6" x2="294.14" y2="300.5"/><path class="cls-9" d="M277.5,268.48l-3.82,5.44a5.53,5.53,0,0,1-1.76,1.61l-3.08,1.76a8.55,8.55,0,0,0-2.75,2.5l-5.34,7.6a1.51,1.51,0,0,0,0,2.24c1,.47,2.27-1.11,2.27-1.11s1.28-1.1,2-1.79l-3.21,3.95a1.67,1.67,0,0,0,.05,2.06c.35.31.94.59,2-.18,1.09-1.1,2.59-2.77,3.68-3.87l-3.53,5a1.47,1.47,0,0,0,.54,2.11,1.44,1.44,0,0,0,1.65-.57l3.53-5-2,4.17c-.37.78-.34,1.66.1,1.9s1,.71,1.86-.52l5.35-7.61a1.07,1.07,0,0,1,2,.79" transform="translate(3.98 2.72)"/><path class="cls-9" d="M285.45,273.34,283,277.42c-.69,2.14-1.67,4.08-2.37,6.22a1.33,1.33,0,0,0,0,.34,10.39,10.39,0,0,1-1.12,4.72l-.69,1.09" transform="translate(3.98 2.72)"/><path class="cls-9" d="M298,302.84l3.62-5.15a5.29,5.29,0,0,1,1.76-1.6l3.08-1.77a8.44,8.44,0,0,0,2.75-2.5l5.33-7.59a1.52,1.52,0,0,0,0-2.24c-1-.48-2.27,1.1-2.27,1.1s-1.29,1.1-2,1.8l3.21-4a1.67,1.67,0,0,0,0-2.05c-.35-.31-1-.6-2,.17-1.09,1.1-2.59,2.78-3.68,3.87l3.53-5a1.47,1.47,0,0,0-.54-2.11,1.44,1.44,0,0,0-1.65.57l-3.54,5,2-4.17c.37-.78.34-1.66-.11-1.9s-1-.7-1.86.52l-5.14,7.32a1.07,1.07,0,0,1-1.95-.79" transform="translate(3.98 2.72)"/><path class="cls-9" d="M305,275.71l-5.15-3.62a5.43,5.43,0,0,1-1.61-1.76l-2-2.79a8.55,8.55,0,0,0-2.5-2.75l-7.4-5.63a1.52,1.52,0,0,0-2.24,0c-.47,1,1.11,2.27,1.11,2.27s1.1,1.29,1.79,2l-3.95-3.21a1.68,1.68,0,0,0-2.06,0c-.3.35-.59.94.18,2,1.1,1.09,2.78,2.59,3.87,3.68l-5-3.53a1.47,1.47,0,0,0-2.11.54,1.44,1.44,0,0,0,.57,1.65l5,3.53-4.17-2c-.78-.37-1.66-.34-1.9.11s-.7,1,.52,1.86l7.32,5.14a1.11,1.11,0,0,1,.36,1.4,1.1,1.1,0,0,1-1.15.54" transform="translate(3.98 2.72)"/><path class="cls-9" d="M270.5,295.65l5.15,3.61a5.39,5.39,0,0,1,1.6,1.76l1.85,3.58a8.57,8.57,0,0,0,2.51,2.75l7.51,4.84a1.5,1.5,0,0,0,2.23,0c.48-1-1.1-2.27-1.1-2.27s-1.1-1.28-1.8-2l4,3.21a1.67,1.67,0,0,0,2-.05c.31-.35.6-.94-.17-2-1.1-1.09-2.78-2.59-3.87-3.68l5,3.53a1.47,1.47,0,0,0,2.11-.54,1.44,1.44,0,0,0-.57-1.65l-5-3.53,4.17,2c.78.37,1.66.34,1.9-.1s.7-1-.52-1.86l-7.32-5.14a1.12,1.12,0,0,1-.36-1.41,1.09,1.09,0,0,1,1.15-.54" transform="translate(3.98 2.72)"/><path class="cls-9" d="M283.45,276.7l1.61,1.19c1.93,1,5.2.87,6.2.86a1,1,0,0,1,.35.06c2.14.69,2.71,1.14,4.85,1.83l-.67,2.28a10.12,10.12,0,0,0-1.12,4.71,1.07,1.07,0,0,1-.06.35c-.63,2-1.27,3.93-1.9,5.9a.49.49,0,0,1-.67.3l-1.62-.72a10.06,10.06,0,0,0-4.91-.83,1.34,1.34,0,0,1-.35-.05c-2.14-.69-4.08-1.68-6.22-2.37l-3.91-2" transform="translate(3.98 2.72)"/><line class="cls-9" x1="300.73" y1="283.57" x2="303.64" y2="285.75"/><polyline class="cls-4" points="322.76 410.33 301.33 419.24 301.33 445.33 312.98 462.08"/><path class="cls-6" d="M305.92,461.51a3.76,3.76,0,1,0,.94-5.23A3.75,3.75,0,0,0,305.92,461.51Z" transform="translate(3.98 2.72)"/><path class="cls-7" d="M305.5,461.8a4.26,4.26,0,1,1,5.93,1.06,4.27,4.27,0,0,1-5.93-1.06C304.16,459.87,306.85,463.72,305.5,461.8Zm6.18-4.3a3.26,3.26,0,1,0-.82,4.54,3.27,3.27,0,0,0,.82-4.54C310.65,456,312.71,459,311.68,457.5Z" transform="translate(3.98 2.72)"/><polyline class="cls-4" points="401.45 247.67 508.87 247.83 508.87 298.43"/><path class="cls-6" d="M397.47,248.71a3.76,3.76,0,1,1,3.76-3.76A3.77,3.77,0,0,1,397.47,248.71Z" transform="translate(3.98 2.72)"/><path class="cls-7" d="M397.47,249.21a4.26,4.26,0,1,0-4.26-4.27,4.26,4.26,0,0,0,4.26,4.27C399.82,249.21,395.12,249.2,397.47,249.21Zm0-7.52a3.26,3.26,0,1,1-3.27,3.25,3.25,3.25,0,0,1,3.27-3.25Z" transform="translate(3.98 2.72)"/><path class="cls-6" d="M501.13,295.71a3.76,3.76,0,1,0,3.75-3.76A3.76,3.76,0,0,0,501.13,295.71Z" transform="translate(3.98 2.72)"/><path class="cls-7" d="M500.63,295.71a4.26,4.26,0,1,1,4.25,4.26,4.26,4.26,0,0,1-4.25-4.26Zm7.51,0a3.26,3.26,0,1,0-3.26,3.26,3.26,3.26,0,0,0,3.26-3.26Z" transform="translate(3.98 2.72)"/><line class="cls-4" x1="464.13" y1="247.67" x2="464.13" y2="218"/><path class="cls-6" d="M463.91,215.28a3.76,3.76,0,1,0-3.76,3.75A3.76,3.76,0,0,0,463.91,215.28Z" transform="translate(3.98 2.72)"/><path class="cls-7" d="M464.41,215.28a4.26,4.26,0,1,1-4.26-4.26,4.27,4.27,0,0,1,4.26,4.26Zm-7.52,0a3.26,3.26,0,1,0,3.26-3.26,3.26,3.26,0,0,0-3.26,3.26Z" transform="translate(3.98 2.72)"/><polyline class="cls-4" points="481.89 247.03 508.87 197.85 508.87 151.84"/><path class="cls-6" d="M508.64,149.12a3.76,3.76,0,1,0-3.76,3.76A3.76,3.76,0,0,0,508.64,149.12Z" transform="translate(3.98 2.72)"/><path class="cls-7" d="M509.14,149.12a4.26,4.26,0,1,1-4.26-4.26,4.26,4.26,0,0,1,4.26,4.26Zm-7.51,0a3.26,3.26,0,1,0,3.25-3.26,3.26,3.26,0,0,0-3.25,3.26Z" transform="translate(3.98 2.72)"/><line class="cls-4" x1="524.39" y1="298.43" x2="524.39" y2="151.84"/><path class="cls-6" d="M524.17,295.71a3.76,3.76,0,1,1-3.76-3.76A3.77,3.77,0,0,1,524.17,295.71Z" transform="translate(3.98 2.72)"/><path class="cls-7" d="M524.67,295.71a4.26,4.26,0,1,0-4.26,4.26,4.26,4.26,0,0,0,4.26-4.26Zm-7.52,0a3.26,3.26,0,1,1,3.26,3.26,3.26,3.26,0,0,1-3.26-3.26Z" transform="translate(3.98 2.72)"/><path class="cls-6" d="M524.17,149.12a3.76,3.76,0,1,0-3.76,3.76A3.76,3.76,0,0,0,524.17,149.12Z" transform="translate(3.98 2.72)"/><path class="cls-7" d="M524.67,149.12a4.26,4.26,0,1,1-4.26-4.26,4.26,4.26,0,0,1,4.26,4.26Zm-7.52,0a3.26,3.26,0,1,0,3.26-3.26,3.27,3.27,0,0,0-3.26,3.26Z" transform="translate(3.98 2.72)"/><polyline class="cls-4" points="379.06 132.03 401.45 150.65 401.45 233.8"/><path class="cls-6" d="M372.68,132.2a3.76,3.76,0,1,1,5.29-.49A3.76,3.76,0,0,1,372.68,132.2Z" transform="translate(3.98 2.72)"/><path class="cls-7" d="M372.36,132.58a4.26,4.26,0,1,0-.55-6,4.26,4.26,0,0,0,.55,6Zm4.81-5.78a3.26,3.26,0,1,1-4.59.42,3.26,3.26,0,0,1,4.59-.42Z" transform="translate(3.98 2.72)"/><path class="cls-6" d="M393.71,231.08a3.76,3.76,0,1,0,3.76-3.76A3.77,3.77,0,0,0,393.71,231.08Z" transform="translate(3.98 2.72)"/><path class="cls-7" d="M393.21,231.08a4.26,4.26,0,1,1,4.26,4.26,4.26,4.26,0,0,1-4.26-4.26Zm7.52,0a3.26,3.26,0,1,0-3.26,3.26,3.26,3.26,0,0,0,3.26-3.26Z" transform="translate(3.98 2.72)"/><polyline class="cls-4" points="550.11 434.5 550.11 389.72 521.02 341.95"/><path class="cls-6" d="M549.89,431.78a3.76,3.76,0,1,1-3.76-3.76A3.76,3.76,0,0,1,549.89,431.78Z" transform="translate(3.98 2.72)"/><path class="cls-7" d="M550.39,431.78a4.26,4.26,0,1,0-4.26,4.26,4.26,4.26,0,0,0,4.26-4.26Zm-7.52,0a3.26,3.26,0,1,1,3.26,3.26,3.26,3.26,0,0,1-3.26-3.26Z" transform="translate(3.98 2.72)"/><path class="cls-6" d="M520.25,337.27a3.76,3.76,0,1,0-1.26,5.17A3.76,3.76,0,0,0,520.25,337.27Z" transform="translate(3.98 2.72)"/><path class="cls-7" d="M520.68,337a4.26,4.26,0,1,1-5.86-1.42,4.27,4.27,0,0,1,5.86,1.42Zm-6.43,3.91a3.26,3.26,0,1,0,1.09-4.47,3.26,3.26,0,0,0-1.09,4.47Z" transform="translate(3.98 2.72)"/><polyline class="cls-4" points="401.45 261.72 425.55 277.21 425.55 310.51"/><path class="cls-6" d="M395.44,262.16a3.76,3.76,0,1,1,5.2-1.13A3.75,3.75,0,0,1,395.44,262.16Z" transform="translate(3.98 2.72)"/><path class="cls-7" d="M395.17,262.58a4.26,4.26,0,1,0-1.28-5.88,4.26,4.26,0,0,0,1.28,5.88Zm4.07-6.32a3.26,3.26,0,1,1-4.51,1,3.26,3.26,0,0,1,4.51-1Z" transform="translate(3.98 2.72)"/><path class="cls-6" d="M417.8,307.79a3.76,3.76,0,1,0,3.76-3.76A3.77,3.77,0,0,0,417.8,307.79Z" transform="translate(3.98 2.72)"/><path class="cls-7" d="M417.3,307.79a4.26,4.26,0,1,1,4.26,4.26,4.26,4.26,0,0,1-4.26-4.26Zm7.52,0a3.26,3.26,0,1,0-3.26,3.26,3.26,3.26,0,0,0,3.26-3.26Z" transform="translate(3.98 2.72)"/><path class="cls-10" d="M454.6,416.16" transform="translate(3.98 2.72)"/><polyline class="cls-4" points="549.9 401.37 464.26 401.37 425.55 341.31"/><path class="cls-6" d="M424.72,336.55a3.76,3.76,0,1,0-1.12,5.2A3.74,3.74,0,0,0,424.72,336.55Z" transform="translate(3.98 2.72)"/><path class="cls-7" d="M425.14,336.28a4.26,4.26,0,1,1-5.88-1.27,4.27,4.27,0,0,1,5.88,1.27C426.42,338.25,423.87,334.3,425.14,336.28Zm-6.32,4.07a3.26,3.26,0,1,0,1-4.5,3.28,3.28,0,0,0-1,4.5C419.8,341.86,417.85,338.84,418.82,340.35Z" transform="translate(3.98 2.72)"/><polyline class="cls-4" points="452.8 322.65 484.46 367.59 537.07 368.3"/><path class="cls-6" d="M445.75,322.09A3.76,3.76,0,1,1,451,323,3.76,3.76,0,0,1,445.75,322.09Z" transform="translate(3.98 2.72)"/><path class="cls-7" d="M445.34,322.38a4.26,4.26,0,1,0,1-5.94,4.26,4.26,0,0,0-1,5.94Zm6.15-4.33a3.26,3.26,0,1,1-4.55-.79,3.26,3.26,0,0,1,4.55.79C452.52,319.52,450.45,316.58,451.49,318.05Z" transform="translate(3.98 2.72)"/><polyline class="cls-4" points="424.9 298.21 376.08 298.21 338.82 354.5"/><path class="cls-6" d="M331.7,349.71a3.76,3.76,0,1,0,5.21-1.06A3.77,3.77,0,0,0,331.7,349.71Z" transform="translate(3.98 2.72)"/><path class="cls-7" d="M331.29,349.43a4.26,4.26,0,1,1,1.2,5.91,4.26,4.26,0,0,1-1.2-5.91C332.58,347.47,330,351.39,331.29,349.43Zm6.27,4.15a3.26,3.26,0,1,0-4.52.92,3.26,3.26,0,0,0,4.52-.92C338.55,352.08,336.56,355.08,337.56,353.58Z" transform="translate(3.98 2.72)"/><line class="cls-4" x1="361.04" y1="277.4" x2="323.77" y2="335.24"/><path class="cls-6" d="M353.9,272.64a3.76,3.76,0,1,1,1.13,5.2A3.76,3.76,0,0,1,353.9,272.64Z" transform="translate(3.98 2.72)"/><path class="cls-7" d="M353.48,272.37a4.26,4.26,0,1,0,5.89-1.27,4.27,4.27,0,0,0-5.89,1.27Zm6.32,4.08a3.26,3.26,0,1,1-1-4.51,3.26,3.26,0,0,1,1,4.51Z" transform="translate(3.98 2.72)"/><circle class="cls-6" cx="319.79" cy="332.52" r="3.76" transform="translate(-126.92 236.72) rotate(-33.79)"/><path class="cls-7" d="M316.21,330.21a4.26,4.26,0,1,1,1.27,5.89,4.26,4.26,0,0,1-1.27-5.89Zm6.32,4.07a3.26,3.26,0,1,0-4.51,1,3.27,3.27,0,0,0,4.51-1Z" transform="translate(3.98 2.72)"/><path class="cls-4" d="M521.1,215.74" transform="translate(3.98 2.72)"/><polyline class="cls-4" points="549.9 420.3 490.71 420.3 464.21 433.86"/><path class="cls-6" d="M458.51,427.79a3.76,3.76,0,1,0,5.06,1.63A3.76,3.76,0,0,0,458.51,427.79Z" transform="translate(3.98 2.72)"/><path class="cls-7" d="M458.29,427.34a4.26,4.26,0,1,1-1.86,5.74,4.27,4.27,0,0,1,1.86-5.74Zm3.42,6.7a3.26,3.26,0,1,0-4.39-1.42,3.27,3.27,0,0,0,4.39,1.42Z" transform="translate(3.98 2.72)"/><polyline class="cls-4" points="509.38 460.55 483.68 460.32 435.21 492.17 360.16 492.17"/><path class="cls-6" d="M505.43,454.07a3.76,3.76,0,1,1-3.79,3.73A3.76,3.76,0,0,1,505.43,454.07Z" transform="translate(3.98 2.72)"/><path class="cls-7" d="M505.44,453.57a4.26,4.26,0,1,0,4.22,4.3,4.26,4.26,0,0,0-4.22-4.3Zm-.07,7.52a3.26,3.26,0,1,1,3.29-3.23,3.26,3.26,0,0,1-3.29,3.23Z" transform="translate(3.98 2.72)"/><path class="cls-6" d="M356.18,485.69a3.76,3.76,0,1,0,3.76,3.76A3.76,3.76,0,0,0,356.18,485.69Z" transform="translate(3.98 2.72)"/><path class="cls-7" d="M356.18,485.19a4.26,4.26,0,1,1-4.26,4.26,4.26,4.26,0,0,1,4.26-4.26Zm0,7.52a3.26,3.26,0,1,0-3.26-3.26,3.26,3.26,0,0,0,3.26,3.26Z" transform="translate(3.98 2.72)"/><line class="cls-4" x1="401.46" y1="491.53" x2="353.57" y2="401.66"/><path class="cls-6" d="M352.91,397.17a3.76,3.76,0,1,0-1.55,5.09A3.76,3.76,0,0,0,352.91,397.17Z" transform="translate(3.98 2.72)"/><path class="cls-7" d="M353.35,396.94a4.26,4.26,0,1,1-5.76-1.76,4.26,4.26,0,0,1,5.76,1.76Zm-6.64,3.53a3.26,3.26,0,1,0,1.35-4.41,3.27,3.27,0,0,0-1.35,4.41C347.56,402.06,345.87,398.88,346.71,400.47Z" transform="translate(3.98 2.72)"/><polyline class="cls-4" points="508.22 170.57 401.37 109.03 379.06 109.12"/><path class="cls-6" d="M375.07,102.64a3.76,3.76,0,1,0,3.77,3.74A3.76,3.76,0,0,0,375.07,102.64Z" transform="translate(3.98 2.72)"/><path class="cls-7" d="M375.07,102.14a4.26,4.26,0,1,1-4.25,4.27,4.26,4.26,0,0,1,4.25-4.27Zm0,7.52a3.26,3.26,0,1,0-3.28-3.25,3.27,3.27,0,0,0,3.28,3.25Z" transform="translate(3.98 2.72)"/><polyline class="cls-4" points="402.1 197.5 425.55 183.44 442.08 183.44"/><path class="cls-6" d="M438.1,184.47a3.76,3.76,0,1,0-3.76-3.76A3.76,3.76,0,0,0,438.1,184.47Z" transform="translate(3.98 2.72)"/><path class="cls-7" d="M438.1,185a4.26,4.26,0,1,1,4.26-4.26A4.26,4.26,0,0,1,438.1,185Zm0-7.52a3.26,3.26,0,1,0,3.26,3.26,3.27,3.27,0,0,0-3.26-3.26Z" transform="translate(3.98 2.72)"/><polyline class="cls-4" points="442.58 132.81 442.51 116.19 453.3 108.89 464 108.89"/><path class="cls-6" d="M460,109.93a3.76,3.76,0,1,0-3.76-3.76A3.76,3.76,0,0,0,460,109.93Z" transform="translate(3.98 2.72)"/><path class="cls-7" d="M460,110.43a4.26,4.26,0,1,1,4.26-4.26,4.26,4.26,0,0,1-4.26,4.26Zm0-7.52a3.26,3.26,0,1,0,3.26,3.26,3.27,3.27,0,0,0-3.26-3.26Z" transform="translate(3.98 2.72)"/><polyline class="cls-4" points="441.71 367.56 401.54 367.56 361.52 320.78"/><line class="cls-4" x1="462.84" y1="474.08" x2="450.3" y2="462.68"/><path class="cls-6" d="M448.84,457.18a3.76,3.76,0,1,0,.26,5.31A3.75,3.75,0,0,0,448.84,457.18Z" transform="translate(3.98 2.72)"/><path class="cls-7" d="M449.18,456.81a4.26,4.26,0,1,1-6,.28,4.25,4.25,0,0,1,6-.28Zm-5.06,5.56a3.26,3.26,0,1,0-.22-4.6,3.27,3.27,0,0,0,.22,4.6Z" transform="translate(3.98 2.72)"/><polyline class="cls-4" points="339.25 310.55 339.25 196.94 360.47 171.22 401.45 170.57"/><polyline class="cls-4" points="333.23 151.56 313.91 170.8 313.65 261.72"/><path class="cls-6" d="M326.59,146.18a3.76,3.76,0,1,1,0,5.31A3.75,3.75,0,0,1,326.59,146.18Z" transform="translate(3.98 2.72)"/><path class="cls-7" d="M326.24,145.82a4.26,4.26,0,1,0,6,0,4.27,4.27,0,0,0-6,0C324.57,147.48,327.9,144.16,326.24,145.82Zm5.3,5.33a3.26,3.26,0,1,1,0-4.61,3.27,3.27,0,0,1,0,4.61Z" transform="translate(3.98 2.72)"/><circle class="cls-6" cx="309.67" cy="259" r="3.76" transform="translate(-89.41 238.88) rotate(-36.67)"/><path class="cls-7" d="M305.41,259a4.26,4.26,0,1,1,4.24,4.27,4.26,4.26,0,0,1-4.24-4.27C305.41,256.64,305.4,261.34,305.41,259Zm7.52,0a3.26,3.26,0,1,0-3.27,3.25,3.27,3.27,0,0,0,3.27-3.25C312.93,257.21,312.92,260.81,312.93,259Z" transform="translate(3.98 2.72)"/><polyline class="cls-4" points="550.11 389.72 551.47 239.65 525.08 218.46"/><rect class="cls-1" x="384.1" y="554.46" width="5.23" height="7.44" rx="2.6"/><rect class="cls-1" x="392.5" y="554.46" width="5.23" height="7.44" rx="2.6"/><rect class="cls-1" x="384.1" y="566.01" width="5.23" height="7.44" rx="2.6"/><rect class="cls-1" x="392.5" y="566.01" width="5.23" height="7.44" rx="2.6"/><rect class="cls-1" x="413.76" y="554.46" width="5.23" height="7.44" rx="2.6"/><rect class="cls-1" x="422.16" y="554.46" width="5.23" height="7.44" rx="2.6"/><rect class="cls-1" x="413.76" y="566.01" width="5.23" height="7.44" rx="2.6"/><rect class="cls-1" x="422.16" y="566.01" width="5.23" height="7.44" rx="2.6"/><rect class="cls-1" x="400.81" y="563.73" width="9.77" height="13.91" rx="3.45"/><line class="cls-1" x1="405.9" y1="564" x2="405.7" y2="577.64"/><circle class="cls-1" cx="405.79" cy="549.98" r="5.87"/><path class="cls-4" d="M406.13,537.06h18.51a.26.26,0,0,1,.24.16l4.08,9.72a.25.25,0,0,1-.23.35h-1.54v28H376.64v-28" transform="translate(3.98 2.72)"/><path class="cls-4" d="M397.39,537.06h-18a.28.28,0,0,0-.23.15l-4.58,9.72a.25.25,0,0,0,.23.36h14.88l12.09-14.85L414,547.29h13.16" transform="translate(3.98 2.72)"/><line class="cls-8" x1="405.78" y1="535.16" x2="405.78" y2="521.09"/><path class="cls-4" d="M401.8,520.38h7.43a.1.1,0,0,1,.08.15l-1.3,2.05s0,0,0,0l1.33,2.66a.1.1,0,0,1-.09.14H401.8" transform="translate(3.98 2.72)"/><polyline class="cls-8" points="405.7 547.13 405.79 549.98 404.58 551.6"/><line class="cls-1" x1="444.63" y1="486.49" x2="430.2" y2="520.63"/><path class="cls-6" d="M422.75,516.45a3.76,3.76,0,1,0,4.93-2A3.75,3.75,0,0,0,422.75,516.45Z" transform="translate(3.98 2.72)"/><path class="cls-7" d="M422.29,516.25a4.26,4.26,0,1,1,2.27,5.58,4.26,4.26,0,0,1-2.27-5.58C423.21,514.09,421.38,518.42,422.29,516.25Zm6.93,2.93a3.26,3.26,0,1,0-4.27,1.73,3.26,3.26,0,0,0,4.27-1.73Z" transform="translate(3.98 2.72)"/><path class="cls-1" d="M239.64,171.17h6.89a0,0,0,0,1,0,0v7.49a0,0,0,0,1,0,0h-7.2a3.57,3.57,0,0,1-3.57-3.57v0a3.88,3.88,0,0,1,3.88-3.88Z"/><rect class="cls-1" x="246.53" y="167.78" width="10.42" height="14.17" rx="5.18"/><path class="cls-1" d="M253,176.41v-.49a5.05,5.05,0,0,1,4.91,5.07v1.15c0,.94.76,1.37,1.69,1.37h4.33a1.7,1.7,0,0,0,1.7-1.7v-2.93a10.27,10.27,0,0,0-9.55-10.29l-3.09-.14Z" transform="translate(3.98 2.72)"/><rect class="cls-1" x="250.74" y="163.75" width="1.64" height="4.03"/><path class="cls-1" d="M254.84,160.49a1.86,1.86,0,0,1-2.68,1.23,10,10,0,0,0-4.41-.85,9.09,9.09,0,0,0-4.45.93,1.64,1.64,0,0,1-1.77-.09l-.2-.18a2,2,0,0,1-.61-1.46V160a2,2,0,0,1,.61-1.46,2.23,2.23,0,0,1,1.46-.6c2.14-.22,2.86,1.47,4.84,1.52s3.27-1.72,5.19-1.52a2.38,2.38,0,0,1,1.46.6,2,2,0,0,1,.61,1.46v.09A1.93,1.93,0,0,1,254.84,160.49Z" transform="translate(3.98 2.72)"/><path class="cls-1" d="M261.33,187l-2.62,6.74a3.48,3.48,0,0,0,1.38,4.22,3.47,3.47,0,0,0,3.92-.22,3.33,3.33,0,0,0,1-4.1L261.91,187A.32.32,0,0,0,261.33,187Z" transform="translate(3.98 2.72)"/><path class="cls-1" d="M410.42,59" transform="translate(3.98 2.72)"/><path class="cls-1" d="M398.34,78l3.48-6.12a.15.15,0,0,0-.06-.21l-4.38-2.48-7,4,.06.14a.23.23,0,0,0,.07.07c1.23.91,2.59,1.65,4.08,2.58,1.22.76,2.41,1.44,3.55,2A.16.16,0,0,0,398.34,78Z" transform="translate(3.98 2.72)"/><path class="cls-1" d="M390,72.06a12.85,12.85,0,0,1-.3-1.48,23.54,23.54,0,0,1-.21-2.66,18.56,18.56,0,0,1,.12-2.38c.06-.43.13-.83.2-1.21a1.06,1.06,0,0,1,.2-.43,4.33,4.33,0,0,1,.83-.89,45,45,0,0,1,5.33-3l-.88-1.71,6.27,3-.93,6.53-.83-1.47L397,68Z" transform="translate(3.98 2.72)"/><path class="cls-1" d="M418.83,70.92l-7.05,0a.15.15,0,0,0-.15.15l.05,5,7,4,.08-.13a.15.15,0,0,0,0-.09c.17-1.52.13-3.07.19-4.82,0-1.44,0-2.81,0-4.1A.15.15,0,0,0,418.83,70.92Z" transform="translate(3.98 2.72)"/><path class="cls-1" d="M417.87,81.12a13.08,13.08,0,0,1-1.13,1,22.71,22.71,0,0,1-2.2,1.51,16.61,16.61,0,0,1-2.12,1.09l-1.14.43a1.31,1.31,0,0,1-.48,0,4.88,4.88,0,0,1-1.19-.28,46.77,46.77,0,0,1-5.29-3.09l-1,1.62-.55-6.93,6.11-2.46L408,75.5l2.89,1.57Z" transform="translate(3.98 2.72)"/><path class="cls-1" d="M402,56.52l3.56,6.08a.15.15,0,0,0,.21.06l4.33-2.56V52H410a.15.15,0,0,0-.09,0c-1.41.61-2.73,1.42-4.28,2.24-1.27.68-2.45,1.38-3.54,2.06A.15.15,0,0,0,402,56.52Z" transform="translate(3.98 2.72)"/><path class="cls-1" d="M411.33,52.26a13.18,13.18,0,0,1,1.43.47,24.88,24.88,0,0,1,2.41,1.16,16.21,16.21,0,0,1,2,1.29c.34.26.65.52.94.78a1.14,1.14,0,0,1,.29.39,5.07,5.07,0,0,1,.35,1.16,46.45,46.45,0,0,1,0,6.13l1.92.1-5.72,3.94-5.19-4.07,1.68,0-.08-3.29Z" transform="translate(3.98 2.72)"/><path class="cls-4" d="M259.54,533.08a.32.32,0,0,0-.51.08,1.66,1.66,0,0,1-.52.55,1.74,1.74,0,0,1-.66.26.32.32,0,0,0-.24.47,28.45,28.45,0,0,0,7.46,9,.06.06,0,0,0,.1-.07,20.85,20.85,0,0,0-2.15-6A18.4,18.4,0,0,0,259.54,533.08Z" transform="translate(3.98 2.72)"/><path class="cls-4" d="M253.86,532.59a.33.33,0,0,0,.18-.48,1.75,1.75,0,0,1-.11-1.43.32.32,0,0,0-.29-.44,28.82,28.82,0,0,0-5.55.32,27.84,27.84,0,0,0-6,1.64.07.07,0,0,0,0,.12,20,20,0,0,0,11.74.27Z" transform="translate(3.98 2.72)"/><path class="cls-4" d="M257.27,527.53a.32.32,0,0,0,.3.41,1.6,1.6,0,0,1,.73.21,1.57,1.57,0,0,1,.54.46.32.32,0,0,0,.52,0,28,28,0,0,0,2.68-4.88,27.58,27.58,0,0,0,1.79-5.93.07.07,0,0,0-.1-.06,20.07,20.07,0,0,0-4.1,4.61A19.7,19.7,0,0,0,257.27,527.53Z" transform="translate(3.98 2.72)"/><path class="cls-5" d="M258.33,559.58h-2.59c-.2,0-.36-.34-.35-.51l1.12-24.41a.34.34,0,0,1,.36-.31H257a.34.34,0,0,1,.36.31l1.32,24.41C258.69,559.24,258.53,559.58,258.33,559.58Z" transform="translate(3.98 2.72)"/><circle class="cls-5" cx="260.95" cy="533.78" r="1.02"/><rect class="cls-1" x="591.14" y="532.48" width="40.82" height="25.52" rx="7.07"/><line class="cls-2" x1="599.2" y1="566.58" x2="624.01" y2="566.58"/><line class="cls-1" x1="613.94" y1="537.87" x2="609.47" y2="552.41"/><path class="cls-1" d="M612.08,538.88l6.6,3.19a.39.39,0,0,1,0,.7l-6.59,3.07" transform="translate(3.98 2.72)"/><path class="cls-1" d="M603.34,538.88l-6.6,3.19a.39.39,0,0,0,0,.7l6.59,3.07" transform="translate(3.98 2.72)"/><line class="cls-3" x1="611.5" y1="558.51" x2="611.5" y2="566.58"/><line class="cls-8" x1="556.11" y1="54.87" x2="556.11" y2="90"/><polyline class="cls-9" points="565.13 67.8 556.11 74.38 547.61 67.8"/><polyline class="cls-9" points="548.79 60.23 556.11 65.11 562.69 60.23"/><path class="cls-1" d="M556.52,75.32h9.18a5,5,0,0,0,3.5-8,7.54,7.54,0,0,0,1.37-4.88c-.32-3.25-3.08-6.13-6.94-7.07a7.58,7.58,0,0,0-1.36-6.59c-1.79-2.11-5.27-1.37-5.8-1.41-.22-.37-1.45-4.94-4.64-5.47-2.78-.46-5.19,3.66-5.61,3.95-4.23-.73-6.91-.23-8.65,3.09a8.83,8.83,0,0,0-.57,6.92,6.84,6.84,0,0,0-4.25,5.85,7,7,0,0,0,2.3,5.37c-2.18,2.92-1.65,6.57.39,8a4.68,4.68,0,0,0,3.63.62,22,22,0,0,1,3.88-.38h5.27" transform="translate(3.98 2.72)"/><line class="cls-1" x1="556.11" y1="85.85" x2="556.11" y2="91.22"/><path class="cls-1" d="M487.14,568.76l-1.95,1a1.93,1.93,0,0,1-2.62-.83l-6.19-12.1a.84.84,0,0,1,.35-1.12l3.46-1.84a.82.82,0,0,1,1.12.33l6.61,11.88A1.94,1.94,0,0,1,487.14,568.76Z" transform="translate(3.98 2.72)"/><rect class="cls-1" x="473.39" y="543.82" width="4.56" height="11.71" transform="translate(-198.73 291.24) rotate(-28.07)"/><path class="cls-1" d="M475,543.43h0a5.16,5.16,0,0,1,1.7-2.08,6.32,6.32,0,0,1,6.66.12s.07,0,0-.06a10.88,10.88,0,0,0-7.63-3.81,13.81,13.81,0,0,0-8.15,2.73,0,0,0,0,0,0,0c0,.57.65,1,.65,1.6l0,0c-.48.23-.76.47-1.25.7l-1,.46a.26.26,0,0,1-.32-.07,2.12,2.12,0,0,0-.46-.61.92.92,0,0,0-.83-.16L463,543a.84.84,0,0,0-.34,1.13l2,3.79a.83.83,0,0,0,1.13.34l1.31-.7a.83.83,0,0,0,.34-1.13h0a.94.94,0,0,1,.49-1.2l1.57-.69a.43.43,0,0,1,.48.09l.89.89a0,0,0,0,0,.05,0Z" transform="translate(3.98 2.72)"/><path class="cls-1" d="M483.13,546.51" transform="translate(3.98 2.72)"/><path class="cls-1" d="M579.43,214.48" transform="translate(3.98 2.72)"/><path class="cls-1" d="M583.24,211.86" transform="translate(3.98 2.72)"/><path class="cls-1" d="M579.43,214.48,560,186.58l-5.57-1.41a.48.48,0,0,1-.14-.86l9.5-6.41a.48.48,0,0,1,.74.45l-.65,5.7,19.34,27.81" transform="translate(3.98 2.72)"/><path class="cls-1" d="M583.24,211.86l5.9,12.1a.41.41,0,0,1-.67.44l-9-9.92-7.64,3.83a1.22,1.22,0,0,0-.42,1.81L580,232a4,4,0,0,0,1,1,16.25,16.25,0,0,0,7.6,2.08c3.4.16,5.34-.05,7.14-.77l.72-.54c1.2-1.53,2-3.32,2.76-6.63a16.37,16.37,0,0,0,.17-7.87,3.9,3.9,0,0,0-.64-1.25l-7.35-11.71a1.22,1.22,0,0,0-1.86-.12Z" transform="translate(3.98 2.72)"/><path class="cls-1" d="M561.1,183.29l-.64.41h0l-.63-.06s0,0,0,0l1.45-1s0,0,0,0l-.18.62Z" transform="translate(3.98 2.72)"/><line class="cls-1" x1="625.57" y1="405.95" x2="623.02" y2="409.86"/><path class="cls-9" d="M606.38,377.84l-3.82,5.44a5.73,5.73,0,0,1-1.76,1.6l-3.08,1.76a8.47,8.47,0,0,0-2.75,2.51l-5.34,7.59a1.51,1.51,0,0,0,0,2.24c1,.47,2.27-1.1,2.27-1.1s1.28-1.1,2-1.8L590.69,400a1.67,1.67,0,0,0,0,2.06c.36.31.95.59,2-.18,1.09-1.09,2.59-2.77,3.68-3.87l-3.53,5a1.47,1.47,0,0,0,.54,2.11,1.43,1.43,0,0,0,1.65-.57l3.53-5-2,4.17c-.37.78-.34,1.67.1,1.91s1,.7,1.86-.53l5.35-7.6a1.07,1.07,0,0,1,1.94.79" transform="translate(3.98 2.72)"/><path class="cls-9" d="M614.33,382.7l-2.43,4.07c-.69,2.14-1.68,4.08-2.37,6.22a1.34,1.34,0,0,0,0,.35,10.29,10.29,0,0,1-1.13,4.71l-.68,1.09" transform="translate(3.98 2.72)"/><path class="cls-9" d="M626.85,412.19l3.62-5.15a5.51,5.51,0,0,1,1.76-1.6l3.08-1.76a8.57,8.57,0,0,0,2.75-2.51l5.33-7.59a1.51,1.51,0,0,0,0-2.24c-1-.47-2.26,1.1-2.26,1.1s-1.29,1.1-2,1.8l3.21-3.95a1.68,1.68,0,0,0-.05-2.06c-.35-.31-.95-.59-2,.18-1.09,1.09-2.59,2.77-3.68,3.87l3.54-5a1.48,1.48,0,0,0-.54-2.11,1.44,1.44,0,0,0-1.66.57l-3.53,5,2-4.17c.37-.78.33-1.67-.11-1.91s-1-.7-1.86.53l-5.14,7.31a1.07,1.07,0,0,1-2-.79" transform="translate(3.98 2.72)"/><path class="cls-9" d="M633.86,385.06l-5.14-3.62a5.43,5.43,0,0,1-1.61-1.76l-2-2.79a8.55,8.55,0,0,0-2.51-2.74l-7.39-5.63a1.51,1.51,0,0,0-2.24,0c-.47,1,1.11,2.26,1.11,2.26s1.1,1.29,1.79,2L612,369.57a1.68,1.68,0,0,0-2.06.05c-.31.35-.59.95.18,2,1.1,1.09,2.77,2.59,3.87,3.68l-5-3.54a1.48,1.48,0,0,0-2.11.54,1.44,1.44,0,0,0,.57,1.66l5,3.53-4.17-2c-.78-.37-1.66-.33-1.9.11s-.71,1,.52,1.86l7.32,5.14a1.11,1.11,0,0,1,.35,1.41,1.1,1.1,0,0,1-1.15.54" transform="translate(3.98 2.72)"/><path class="cls-9" d="M599.38,405l5.15,3.62a5.4,5.4,0,0,1,1.6,1.76L608,414a8.55,8.55,0,0,0,2.5,2.75l7.51,4.84a1.51,1.51,0,0,0,2.24,0c.48-1-1.1-2.26-1.1-2.26s-1.1-1.29-1.8-2l4,3.22a1.67,1.67,0,0,0,2.05-.05c.31-.36.59-.95-.18-2-1.09-1.09-2.77-2.59-3.86-3.68l5,3.53a1.49,1.49,0,0,0,2.12-.53,1.45,1.45,0,0,0-.58-1.66l-5-3.53,4.16,2c.79.36,1.67.33,1.91-.11s.7-1-.52-1.86l-7.32-5.14a1.07,1.07,0,0,1,.79-2" transform="translate(3.98 2.72)"/><path class="cls-9" d="M612.32,386.06l1.62,1.18c1.92,1,5.2.87,6.2.87a1,1,0,0,1,.35.05c2.14.69,2.71,1.15,4.85,1.84l-.67,2.27a10.29,10.29,0,0,0-1.13,4.71,1,1,0,0,1,0,.35q-.94,3-1.91,5.9a.48.48,0,0,1-.66.3l-1.62-.71a10,10,0,0,0-4.92-.84,1,1,0,0,1-.34-.05c-2.14-.69-4.08-1.67-6.22-2.36l-3.91-2" transform="translate(3.98 2.72)"/><line class="cls-9" x1="629.61" y1="392.92" x2="632.52" y2="395.1"/><path class="cls-1" d="M139.74,247.26" transform="translate(3.98 2.72)"/><path class="cls-1" d="M127.66,266.22l3.48-6.13a.14.14,0,0,0-.06-.2l-4.38-2.48-7,4,.07.14a.16.16,0,0,0,.06.08c1.23.9,2.59,1.65,4.08,2.57,1.23.76,2.41,1.44,3.55,2A.16.16,0,0,0,127.66,266.22Z" transform="translate(3.98 2.72)"/><path class="cls-1" d="M119.31,260.29c-.11-.5-.22-.87-.3-1.47a26.36,26.36,0,0,1-.21-2.66,17,17,0,0,1,.13-2.38c0-.43.12-.83.19-1.21a1,1,0,0,1,.2-.44,4.29,4.29,0,0,1,.83-.88,47.41,47.41,0,0,1,5.33-3.05l-.88-1.71,6.27,3-.93,6.53-.83-1.47-2.79,1.72Z" transform="translate(3.98 2.72)"/><path class="cls-1" d="M148.15,259.16l-7.05,0a.16.16,0,0,0-.15.16l.05,5,7,4.05.09-.12a.32.32,0,0,0,0-.09c.17-1.52.13-3.08.19-4.83.05-1.44,0-2.81,0-4.1A.15.15,0,0,0,148.15,259.16Z" transform="translate(3.98 2.72)"/><path class="cls-1" d="M147.19,269.35c-.38.35-.64.62-1.12,1a26.44,26.44,0,0,1-2.21,1.51,16.65,16.65,0,0,1-2.12,1.08c-.4.17-.78.31-1.14.43a1.13,1.13,0,0,1-.48.05,4.3,4.3,0,0,1-1.18-.28,45.44,45.44,0,0,1-5.3-3.09l-1,1.62-.55-6.92,6.11-2.47-.85,1.46,2.88,1.56Z" transform="translate(3.98 2.72)"/><path class="cls-1" d="M131.35,244.76l3.56,6.08a.15.15,0,0,0,.21,0l4.33-2.55v-8.09h-.15a.14.14,0,0,0-.09,0c-1.41.62-2.73,1.42-4.28,2.25-1.27.68-2.45,1.37-3.54,2.05A.16.16,0,0,0,131.35,244.76Z" transform="translate(3.98 2.72)"/><path class="cls-1" d="M140.66,240.49c.49.16.86.25,1.42.48a24.69,24.69,0,0,1,2.41,1.15,16.37,16.37,0,0,1,2,1.3c.34.26.66.52.94.77a1.11,1.11,0,0,1,.29.39,5,5,0,0,1,.35,1.17,46.47,46.47,0,0,1,0,6.13L150,252l-5.72,3.94-5.19-4.06h1.69l-.09-3.28Z" transform="translate(3.98 2.72)"/><path class="cls-1" d="M666.17,87.93l-2.07.75a1.92,1.92,0,0,1-2.48-1.18l-4.44-12.85a.84.84,0,0,1,.5-1.06l3.68-1.34a.84.84,0,0,1,1.07.48l4.88,12.69A1.93,1.93,0,0,1,666.17,87.93Z" transform="translate(3.98 2.72)"/><rect class="cls-1" x="655.2" y="61.57" width="4.56" height="11.71" transform="translate(20.71 232.21) rotate(-20.05)"/><path class="cls-1" d="M657.65,61.15v0a5.17,5.17,0,0,1,2-1.82,6.34,6.34,0,0,1,6.58,1s.07,0,0,0a10.86,10.86,0,0,0-7-4.83A13.86,13.86,0,0,0,650.78,57a0,0,0,0,0,0,0c-.09.56.5,1.11.42,1.68l0,0c-.51.16-.82.35-1.34.52l-1,.32a.26.26,0,0,1-.31-.12,2.17,2.17,0,0,0-.37-.67.9.9,0,0,0-.8-.27l-1.48.54a.83.83,0,0,0-.49,1.07l1.47,4a.83.83,0,0,0,1.07.5l1.39-.51a.83.83,0,0,0,.5-1.07h0a.93.93,0,0,1,.65-1.12l1.65-.47a.41.41,0,0,1,.46.16l.76,1a0,0,0,0,0,.05,0Z" transform="translate(3.98 2.72)"/><path class="cls-1" d="M665.31,65.33" transform="translate(3.98 2.72)"/><line class="cls-1" x1="88.31" y1="155.48" x2="85.76" y2="159.38"/><path class="cls-9" d="M69.12,127.36,65.3,132.8a5.5,5.5,0,0,1-1.76,1.6l-3.08,1.76a8.58,8.58,0,0,0-2.75,2.51l-5.34,7.59a1.51,1.51,0,0,0,0,2.24c1,.48,2.27-1.1,2.27-1.1s1.28-1.1,2-1.8l-3.21,4a1.65,1.65,0,0,0,0,2.05c.35.31.94.59,2-.18,1.09-1.09,2.59-2.77,3.68-3.86l-3.53,5a1.48,1.48,0,0,0,.54,2.12,1.44,1.44,0,0,0,1.65-.58l3.53-5-2,4.16c-.37.79-.34,1.67.1,1.91s1,.7,1.86-.52l5.35-7.61a1.1,1.1,0,0,1,1.41-.36,1.12,1.12,0,0,1,.54,1.15" transform="translate(3.98 2.72)"/><path class="cls-9" d="M77.07,132.22l-2.43,4.07c-.69,2.14-1.68,4.08-2.37,6.22a1.34,1.34,0,0,0,0,.35,10.29,10.29,0,0,1-1.13,4.71l-.68,1.09" transform="translate(3.98 2.72)"/><path class="cls-9" d="M89.59,161.71l3.62-5.15A5.51,5.51,0,0,1,95,155l3.08-1.76a8.55,8.55,0,0,0,2.75-2.5l5.33-7.6a1.52,1.52,0,0,0,0-2.24c-1-.47-2.27,1.11-2.27,1.11s-1.29,1.1-2,1.79l3.21-3.95a1.68,1.68,0,0,0,0-2.06c-.35-.31-1-.59-2,.18-1.09,1.1-2.59,2.77-3.68,3.87l3.53-5a1.48,1.48,0,0,0-.54-2.11,1.42,1.42,0,0,0-1.65.57l-3.54,5,2-4.17c.37-.78.34-1.67-.11-1.9s-1-.71-1.86.52L92.06,142a1.07,1.07,0,0,1-2-.79" transform="translate(3.98 2.72)"/><path class="cls-9" d="M96.61,134.58,91.46,131a5.43,5.43,0,0,1-1.61-1.76l-2-2.78a8.47,8.47,0,0,0-2.51-2.75L78,118a1.51,1.51,0,0,0-2.24,0c-.47,1,1.11,2.26,1.11,2.26s1.1,1.29,1.79,2l-4-3.22a1.68,1.68,0,0,0-2.06,0c-.3.36-.59,1,.18,2,1.1,1.09,2.78,2.59,3.87,3.68l-5-3.53a1.48,1.48,0,0,0-2.11.53,1.45,1.45,0,0,0,.57,1.66l5,3.53L71,125c-.78-.37-1.66-.34-1.9.1s-.7,1,.52,1.86l7.32,5.14a1.13,1.13,0,0,1,.36,1.41,1.11,1.11,0,0,1-1.15.54" transform="translate(3.98 2.72)"/><path class="cls-9" d="M62.12,154.52l5.15,3.62a5.29,5.29,0,0,1,1.6,1.76l1.85,3.57a8.55,8.55,0,0,0,2.5,2.75l7.51,4.84a1.51,1.51,0,0,0,2.24,0c.48-1-1.1-2.26-1.1-2.26s-1.1-1.29-1.8-2L84,170a1.67,1.67,0,0,0,2,0c.31-.35.6-1-.18-2-1.09-1.09-2.77-2.59-3.86-3.68l5,3.54a1.49,1.49,0,0,0,2.11-.54,1.45,1.45,0,0,0-.57-1.66l-5-3.53,4.17,2c.78.37,1.66.33,1.9-.11s.7-1-.52-1.86L81.81,157a1.07,1.07,0,0,1,.79-2" transform="translate(3.98 2.72)"/><path class="cls-9" d="M75.07,135.58l1.61,1.18c1.93,1,5.2.87,6.2.87a1.34,1.34,0,0,1,.35.05c2.14.69,2.71,1.15,4.85,1.84l-.67,2.27a10.29,10.29,0,0,0-1.13,4.72,1,1,0,0,1,0,.34c-.63,2-1.27,3.94-1.9,5.91a.49.49,0,0,1-.67.29L82,152.34a10,10,0,0,0-4.91-.84,1,1,0,0,1-.35-.05c-2.14-.69-4.08-1.67-6.22-2.36l-3.91-2" transform="translate(3.98 2.72)"/><line class="cls-9" x1="92.35" y1="142.44" x2="95.26" y2="144.63"/><path class="cls-1" d="M715.12,71.36H722a0,0,0,0,1,0,0v7.49a0,0,0,0,1,0,0h-7.2a3.57,3.57,0,0,1-3.57-3.57v0A3.88,3.88,0,0,1,715.12,71.36Z"/><rect class="cls-1" x="722.01" y="67.97" width="10.42" height="14.17" rx="5.18"/><path class="cls-1" d="M728.45,76.6v-.49a5.05,5.05,0,0,1,4.91,5.07v1.14c0,.94.76,1.38,1.7,1.38h4.33a1.7,1.7,0,0,0,1.7-1.7V79.07a10.29,10.29,0,0,0-9.56-10.3l-3.09-.13Z" transform="translate(3.98 2.72)"/><rect class="cls-1" x="726.23" y="63.94" width="1.64" height="4.03"/><path class="cls-1" d="M730.33,60.68a1.88,1.88,0,0,1-2.69,1.23,10,10,0,0,0-4.41-.86,9.21,9.21,0,0,0-4.45.93,1.61,1.61,0,0,1-1.76-.09l-.21-.18a2.06,2.06,0,0,1-.6-1.46v-.08a2.06,2.06,0,0,1,.6-1.46,2.28,2.28,0,0,1,1.46-.61c2.15-.21,2.87,1.48,4.84,1.53s3.27-1.72,5.2-1.53a2.38,2.38,0,0,1,1.46.61,2.06,2.06,0,0,1,.6,1.46v.08A2,2,0,0,1,730.33,60.68Z" transform="translate(3.98 2.72)"/><path class="cls-1" d="M736.82,87.17l-2.62,6.74a3.44,3.44,0,0,0,1.38,4.21,3.4,3.4,0,0,0,1.31.48,3.63,3.63,0,0,0,2.6-.69,3.34,3.34,0,0,0,1-4.11l-3.1-6.65A.32.32,0,0,0,736.82,87.17Z" transform="translate(3.98 2.72)"/><path class="cls-1" d="M136.25,498.26" transform="translate(3.98 2.72)"/><path class="cls-1" d="M140.06,495.64" transform="translate(3.98 2.72)"/><path class="cls-1" d="M136.25,498.26l-19.42-27.9-5.57-1.4a.48.48,0,0,1-.13-.87l9.5-6.41a.48.48,0,0,1,.74.45l-.66,5.7,19.35,27.81" transform="translate(3.98 2.72)"/><path class="cls-1" d="M140.06,495.64l5.89,12.1a.4.4,0,0,1-.66.44l-9-9.92-7.64,3.83a1.23,1.23,0,0,0-.42,1.82l8.67,11.86a3.59,3.59,0,0,0,1,1,16.24,16.24,0,0,0,7.59,2.08c3.4.16,5.34,0,7.14-.77l.73-.54c1.2-1.52,1.95-3.32,2.76-6.63a16.25,16.25,0,0,0,.16-7.87,3.68,3.68,0,0,0-.63-1.25L148.27,490a1.21,1.21,0,0,0-1.86-.11Z" transform="translate(3.98 2.72)"/><path class="cls-1" d="M117.92,467.07l-.65.41h0l-.64-.06s0,0,0-.05l1.45-1s0,0,0,0l-.17.62Z" transform="translate(3.98 2.72)"/><rect class="cls-1" x="57.81" y="334.21" width="40.82" height="25.52" rx="7.07"/><line class="cls-2" x1="65.87" y1="368.32" x2="90.68" y2="368.32"/><line class="cls-1" x1="80.62" y1="339.6" x2="76.14" y2="354.15"/><path class="cls-1" d="M78.75,340.61l6.6,3.19a.39.39,0,0,1,0,.7l-6.59,3.07" transform="translate(3.98 2.72)"/><path class="cls-1" d="M70,340.61l-6.61,3.19a.39.39,0,0,0,0,.7l6.6,3.07" transform="translate(3.98 2.72)"/><line class="cls-3" x1="78.17" y1="360.24" x2="78.17" y2="368.32"/><path class="cls-1" d="M202,83.06a7.91,7.91,0,0,0,5.51-2.25s.85-.7,1.23-4c.2-1.71.1-2.23.16-3.14a.79.79,0,0,1,.15-.42c3.51-4.83,7.58-9.73,4.56-15.28A13.86,13.86,0,0,0,202,50.54h0a13.66,13.66,0,0,0-11.49,7.4c-3,5.56,1.05,10.46,4.55,15.29a.73.73,0,0,1,.15.4c.06.91,0,1.43.16,3.15.39,3.31,1.23,4,1.23,4a7.64,7.64,0,0,0,5.46,2.27Z" transform="translate(3.98 2.72)"/><line class="cls-1" x1="199.49" y1="80.49" x2="212.59" y2="80.49"/><line class="cls-1" x1="199.17" y1="76.12" x2="212.9" y2="76.15"/><path class="cls-1" d="M202.06,67.57c2.08,1.06,4.58,1.4,6.28-.12,1.54-1.38,3-4,2.45-6.07a9.76,9.76,0,0,0-4.32.24c-2.34.64-4.1,3-4.41,5.91v5.88" transform="translate(3.98 2.72)"/><path class="cls-1" d="M202.11,67.57c-3,.35-6-.22-7.53-2.54a7.34,7.34,0,0,1-1-5.16,7.29,7.29,0,0,1,6.61,1.78,7.15,7.15,0,0,1,1.89,5.88" transform="translate(3.98 2.72)"/><rect class="cls-1" x="650.56" y="278.5" width="5.55" height="7.89" rx="2.76"/><rect class="cls-1" x="659.47" y="278.5" width="5.55" height="7.89" rx="2.76"/><rect class="cls-1" x="650.56" y="290.76" width="5.55" height="7.89" rx="2.76"/><rect class="cls-1" x="659.47" y="290.76" width="5.55" height="7.89" rx="2.76"/><rect class="cls-1" x="682.03" y="278.5" width="5.55" height="7.89" rx="2.76"/><rect class="cls-1" x="690.94" y="278.5" width="5.55" height="7.89" rx="2.76"/><rect class="cls-1" x="682.03" y="290.76" width="5.55" height="7.89" rx="2.76"/><rect class="cls-1" x="690.94" y="290.76" width="5.55" height="7.89" rx="2.76"/><rect class="cls-1" x="668.29" y="288.35" width="10.37" height="14.76" rx="3.45"/><line class="cls-1" x1="673.69" y1="288.62" x2="673.48" y2="303.1"/><circle class="cls-1" cx="673.57" cy="273.76" r="6.23"/><path class="cls-4" d="M674.18,260.21h19.64a.27.27,0,0,1,.24.17l4.34,10.31a.28.28,0,0,1-.25.38h-1.63v29.67H642.88V271" transform="translate(3.98 2.72)"/><path class="cls-4" d="M664.9,260.21H645.83a.27.27,0,0,0-.25.16l-4.86,10.31a.28.28,0,0,0,.24.39h15.79l12.83-15.76,13,15.76h14" transform="translate(3.98 2.72)"/><line class="cls-8" x1="673.56" y1="258.03" x2="673.56" y2="243.09"/><path class="cls-4" d="M669.58,242.51h7.88a.11.11,0,0,1,.09.16l-1.38,2.17a0,0,0,0,0,0,0l1.41,2.82a.11.11,0,0,1-.1.15h-7.9" transform="translate(3.98 2.72)"/><polyline class="cls-8" points="673.48 270.73 673.57 273.75 672.29 275.48"/><path class="cls-1" d="M203.87,371.17l9.54,9.23a2.93,2.93,0,0,1,.88,2.09V385a4.94,4.94,0,0,0,3.69,4.78l7.49,2,1.94,3.58L225.47,391l2.5-6.73a2.63,2.63,0,0,0-1.66-3.43l-3.25-1.05a1.85,1.85,0,0,1-.95-2.82l2.57-3.7a5.55,5.55,0,0,0-.65-7.11L217.82,360c-.55-.55-.06-2.07.72-2a14.62,14.62,0,0,1,6.68-.75,10.16,10.16,0,0,1,6.57,2.3,12.54,12.54,0,0,1,1.42,1.08,2.37,2.37,0,0,1,.25.29,7.29,7.29,0,0,1,.92,1.48,3.07,3.07,0,0,1,.32,1.22l.27,4.77a4.65,4.65,0,0,0,3.77,4.1l4.57.86" transform="translate(3.98 2.72)"/><path class="cls-9" d="M201.58,391.37H194.9a.89.89,0,0,0-.9.89v11.52a1.06,1.06,0,0,0,.18.56,1.6,1.6,0,0,0,1.37.71h5.38a1.61,1.61,0,0,0,1.37-.71,1.06,1.06,0,0,0,.18-.56V392.26A.89.89,0,0,0,201.58,391.37Z" transform="translate(3.98 2.72)"/><path class="cls-9" d="M244.13,390.38c-1.19-1.27-3-.79-5.93,1l-10.42,6.37a3.18,3.18,0,0,1-1.68.47h-2a3,3,0,0,0,3-2.81c9.36-1.73,16.43-9.55,16.43-18.94,0-10.65-9.11-19.29-20.36-19.29s-20.36,8.64-20.36,19.29A18.57,18.57,0,0,0,207,388.15a3.7,3.7,0,0,0-2.26,1.57l-1.08,1.65a1.65,1.65,0,0,0-.29.93v12.8l21.92-.05a10.9,10.9,0,0,0,6.18-1.87l10.87-7.57C244.93,393.71,245.35,391.66,244.13,390.38Z" transform="translate(3.98 2.72)"/><path class="cls-1" d="M200.93,405.05h-5.38a1.6,1.6,0,0,1-1.37-.71,1.06,1.06,0,0,1-.18-.56V392.26a.89.89,0,0,1,.9-.89h6.68a.89.89,0,0,1,.9.89v11.52a1.06,1.06,0,0,1-.18.56A1.61,1.61,0,0,1,200.93,405.05Z" transform="translate(3.98 2.72)"/><path class="cls-9" d="M205.86,388" transform="translate(3.98 2.72)"/><path class="cls-9" d="M238.2,391.37c2.93-1.78,4.74-2.26,5.93-1s.8,3.33-1.78,5.23l-10.87,7.57a10.9,10.9,0,0,1-6.18,1.87l-21.92.05V392.3a1.65,1.65,0,0,1,.29-.93l1.08-1.65a3.73,3.73,0,0,1,3.12-1.68H211a3.4,3.4,0,0,1,3.11,2.12,3.4,3.4,0,0,0,3.13,2.08h6.88a3,3,0,1,1,0,6h2a3.18,3.18,0,0,0,1.68-.47Z" transform="translate(3.98 2.72)"/><path class="cls-1" d="M673,487.06l9.54,9.23a2.9,2.9,0,0,1,.89,2.09v2.54a4.93,4.93,0,0,0,3.68,4.78l7.5,2,1.93,3.58-1.93-4.32,2.5-6.74a2.64,2.64,0,0,0-1.67-3.43l-3.24-1a1.86,1.86,0,0,1-1-2.83l2.57-3.7a5.55,5.55,0,0,0-.64-7.11l-6.22-6.18c-.55-.55-.05-2.07.72-2a14.64,14.64,0,0,1,6.68-.75,10.21,10.21,0,0,1,6.58,2.3,12.86,12.86,0,0,1,1.41,1.09,1.67,1.67,0,0,1,.25.28,7.36,7.36,0,0,1,.93,1.48,3.44,3.44,0,0,1,.32,1.22l.27,4.77a4.64,4.64,0,0,0,3.76,4.1l4.58.86" transform="translate(3.98 2.72)"/><path class="cls-9" d="M670.71,507.26H664a.89.89,0,0,0-.89.89v11.52a1,1,0,0,0,.17.56,1.62,1.62,0,0,0,1.38.71h5.37a1.62,1.62,0,0,0,1.38-.71,1,1,0,0,0,.17-.56V508.15A.89.89,0,0,0,670.71,507.26Z" transform="translate(3.98 2.72)"/><path class="cls-9" d="M713.26,506.27c-1.2-1.27-3-.79-5.93,1l-10.43,6.37a3.17,3.17,0,0,1-1.67.47h-2a3,3,0,0,0,3-2.81c9.37-1.73,16.44-9.55,16.44-18.94,0-10.65-9.12-19.29-20.36-19.29S672,481.7,672,492.35A18.57,18.57,0,0,0,676.13,504a3.68,3.68,0,0,0-2.25,1.57l-1.09,1.65a1.72,1.72,0,0,0-.28.93V521l21.91,0a10.88,10.88,0,0,0,6.18-1.87l10.87-7.56C714.05,509.6,714.48,507.55,713.26,506.27Z" transform="translate(3.98 2.72)"/><path class="cls-1" d="M670.05,520.94h-5.37a1.62,1.62,0,0,1-1.38-.71,1,1,0,0,1-.17-.56V508.15a.89.89,0,0,1,.89-.89h6.69a.89.89,0,0,1,.89.89v11.52a1,1,0,0,1-.17.56A1.62,1.62,0,0,1,670.05,520.94Z" transform="translate(3.98 2.72)"/><path class="cls-9" d="M675,503.93" transform="translate(3.98 2.72)"/><path class="cls-9" d="M707.33,507.26c2.92-1.78,4.73-2.26,5.93-1s.79,3.33-1.79,5.24l-10.87,7.56a10.88,10.88,0,0,1-6.18,1.87l-21.91,0v-12.8a1.72,1.72,0,0,1,.28-.93l1.09-1.65a3.72,3.72,0,0,1,3.11-1.68h3.11a3.39,3.39,0,0,1,3.1,2.12,3.42,3.42,0,0,0,3.14,2.08h6.87a3,3,0,1,1,0,6h2a3.17,3.17,0,0,0,1.67-.47Z" transform="translate(3.98 2.72)"/><line class="cls-8" x1="725.89" y1="353.11" x2="725.89" y2="390.39"/><polyline class="cls-9" points="735.46 366.83 725.88 373.82 716.87 366.83"/><polyline class="cls-9" points="718.12 358.81 725.88 363.99 732.87 358.81"/><path class="cls-1" d="M726.56,375h9.75a5.29,5.29,0,0,0,3.71-8.55,8,8,0,0,0,1.45-5.17c-.33-3.46-3.26-6.51-7.36-7.51a8,8,0,0,0-1.44-7c-1.9-2.24-5.6-1.45-6.16-1.5-.23-.39-1.53-5.24-4.92-5.8-3-.49-5.51,3.88-6,4.19-4.48-.78-7.34-.25-9.18,3.28a9.47,9.47,0,0,0-.61,7.34,7.27,7.27,0,0,0-4.5,6.21,7.42,7.42,0,0,0,2.43,5.69c-2.31,3.11-1.74,7,.42,8.55a5,5,0,0,0,3.86.66,22.63,22.63,0,0,1,4.11-.4h5.59" transform="translate(3.98 2.72)"/><line class="cls-1" x1="725.89" y1="385.99" x2="725.89" y2="391.68"/><path class="cls-4" d="M803.55,529.72a.35.35,0,0,0-.54.08,1.79,1.79,0,0,1-1.25.87.34.34,0,0,0-.24.5,29.59,29.59,0,0,0,8,9.51.07.07,0,0,0,.11-.06,22.26,22.26,0,0,0-2.32-6.32A19.55,19.55,0,0,0,803.55,529.72Z" transform="translate(3.98 2.72)"/><path class="cls-4" d="M797.52,529.22a.34.34,0,0,0,.2-.5,1.84,1.84,0,0,1-.24-.78,1.88,1.88,0,0,1,.11-.75.33.33,0,0,0-.31-.45,29.45,29.45,0,0,0-12.21,2.13.06.06,0,0,0,0,.12,21,21,0,0,0,12.45.23Z" transform="translate(3.98 2.72)"/><path class="cls-4" d="M801.12,523.84a.34.34,0,0,0,.32.44,1.83,1.83,0,0,1,.78.21,1.66,1.66,0,0,1,.57.49.35.35,0,0,0,.56,0,30,30,0,0,0,2.82-5.18,30.3,30.3,0,0,0,1.87-6.3.07.07,0,0,0-.11-.06,21.34,21.34,0,0,0-4.33,4.9A21.06,21.06,0,0,0,801.12,523.84Z" transform="translate(3.98 2.72)"/><path class="cls-5" d="M802.38,557.85h-2.74c-.21,0-.38-.36-.38-.55l1.08-25.9a.37.37,0,0,1,.38-.33h.16a.37.37,0,0,1,.38.33l1.5,25.89C802.77,557.49,802.6,557.84,802.38,557.85Z" transform="translate(3.98 2.72)"/><circle class="cls-5" cx="804.8" cy="530.3" r="1.08"/><path class="cls-1" d="M792.84,257.46" transform="translate(3.98 2.72)"/><path class="cls-1" d="M780,277.57l3.69-6.49a.15.15,0,0,0-.06-.22L779,268.23l-7.43,4.28.06.15a.27.27,0,0,0,.07.08c1.31,1,2.75,1.75,4.33,2.73,1.3.81,2.56,1.52,3.77,2.17A.17.17,0,0,0,780,277.57Z" transform="translate(3.98 2.72)"/><path class="cls-1" d="M771.17,271.29c-.12-.54-.23-.93-.32-1.57-.11-.8-.19-1.88-.22-2.82a19.3,19.3,0,0,1,.13-2.53c.06-.45.13-.88.21-1.28a1.28,1.28,0,0,1,.21-.46,4.85,4.85,0,0,1,.88-.94c1.66-1.31,3.84-2.15,5.65-3.23l-.93-1.81,6.66,3.16-1,6.93-.88-1.56-3,1.82Z" transform="translate(3.98 2.72)"/><path class="cls-1" d="M801.77,270.08l-7.47.05a.15.15,0,0,0-.16.16l0,5.35,7.43,4.29.09-.13a.15.15,0,0,0,0-.09c.18-1.62.14-3.26.2-5.12,0-1.53,0-3,0-4.35A.16.16,0,0,0,801.77,270.08Z" transform="translate(3.98 2.72)"/><path class="cls-1" d="M800.75,280.9c-.4.37-.68.66-1.19,1.06a25.69,25.69,0,0,1-2.34,1.6,16.75,16.75,0,0,1-2.25,1.15c-.42.17-.82.33-1.21.46a1.27,1.27,0,0,1-.51.05,5,5,0,0,1-1.26-.3c-2-.77-3.78-2.24-5.62-3.28l-1.1,1.72-.58-7.35,6.48-2.61-.91,1.54,3.07,1.66Z" transform="translate(3.98 2.72)"/><path class="cls-1" d="M783.94,254.81l3.78,6.45a.16.16,0,0,0,.22.05l4.61-2.71V250h-.15a.2.2,0,0,0-.11,0c-1.49.65-2.89,1.51-4.53,2.39-1.35.72-2.6,1.45-3.76,2.18A.16.16,0,0,0,783.94,254.81Z" transform="translate(3.98 2.72)"/><path class="cls-1" d="M793.82,250.28c.52.16.91.26,1.51.5s1.73.78,2.56,1.23a18.64,18.64,0,0,1,2.12,1.37c.36.28.69.55,1,.82a1.25,1.25,0,0,1,.3.42,4.76,4.76,0,0,1,.37,1.23c.31,2.09,0,4.4,0,6.51l2,.1-6.07,4.18-5.51-4.31h1.79l-.09-3.48Z" transform="translate(3.98 2.72)"/><path class="cls-1" d="M57.5,559A7.91,7.91,0,0,0,63,556.79s.85-.71,1.23-4c.2-1.71.1-2.23.16-3.14a.82.82,0,0,1,.15-.42c3.5-4.82,7.58-9.72,4.55-15.28a13.84,13.84,0,0,0-11.6-7.42h0A13.64,13.64,0,0,0,46,533.92c-3,5.55,1.05,10.45,4.55,15.28a.76.76,0,0,1,.15.4c.06.91,0,1.44.16,3.16.39,3.3,1.23,4,1.23,4A7.62,7.62,0,0,0,57.56,559Z" transform="translate(3.98 2.72)"/><line class="cls-1" x1="54.99" y1="556.46" x2="68.09" y2="556.46"/><line class="cls-1" x1="54.67" y1="552.1" x2="68.4" y2="552.12"/><path class="cls-1" d="M57.56,543.54c2.07,1.06,4.58,1.4,6.27-.12,1.54-1.37,3-4,2.46-6.07a9.91,9.91,0,0,0-4.32.24c-2.34.64-4.1,3-4.41,5.92v5.88" transform="translate(3.98 2.72)"/><path class="cls-1" d="M57.61,543.54c-3,.35-6-.22-7.53-2.53a7.45,7.45,0,0,1-1-5.17,7.37,7.37,0,0,1,6.62,1.78,7.17,7.17,0,0,1,1.89,5.89" transform="translate(3.98 2.72)"/><line class="cls-1" x1="551.47" y1="331.81" x2="713.19" y2="331.81"/><circle class="cls-6" cx="713.19" cy="331.81" r="3.76"/><path class="cls-7" d="M709.21,333.35a4.26,4.26,0,1,1,4.26-4.26,4.26,4.26,0,0,1-4.26,4.26Zm0-7.52a3.26,3.26,0,1,0,3.26,3.26,3.26,3.26,0,0,0-3.26-3.26Z" transform="translate(3.98 2.72)"/><line class="cls-1" x1="662.72" y1="331.81" x2="679.91" y2="313.8"/><path class="cls-6" d="M678.65,313.68a3.76,3.76,0,1,0-5.32.12A3.77,3.77,0,0,0,678.65,313.68Z" transform="translate(3.98 2.72)"/><path class="cls-7" d="M679,314a4.26,4.26,0,1,1-.14-6,4.27,4.27,0,0,1,.14,6Zm-5.44-5.19a3.26,3.26,0,1,0,4.61-.11,3.27,3.27,0,0,0-4.61.11Z" transform="translate(3.98 2.72)"/><polyline class="cls-1" points="578.99 331.81 578.99 355.08 598.18 367.18"/><path class="cls-6" d="M592.19,367.64a3.76,3.76,0,1,0-1.17-5.18A3.76,3.76,0,0,0,592.19,367.64Z" transform="translate(3.98 2.72)"/><path class="cls-7" d="M591.92,368.07a4.26,4.26,0,1,1,5.88-1.33,4.28,4.28,0,0,1-5.88,1.33C589.94,366.81,593.91,369.32,591.92,368.07Zm4-6.36a3.26,3.26,0,1,0,1,4.49,3.27,3.27,0,0,0-1-4.49Z" transform="translate(3.98 2.72)"/><polyline class="cls-1" points="641.16 331.81 680.43 367.1 680.43 461.03"/><path class="cls-6" d="M672.69,458.31a3.76,3.76,0,1,0,3.76-3.76A3.76,3.76,0,0,0,672.69,458.31Z" transform="translate(3.98 2.72)"/><path class="cls-7" d="M672.19,458.31a4.26,4.26,0,1,1,4.26,4.26,4.26,4.26,0,0,1-4.26-4.26Zm7.52,0a3.26,3.26,0,1,0-3.26,3.26,3.27,3.27,0,0,0,3.26-3.26Z" transform="translate(3.98 2.72)"/><polyline class="cls-1" points="475.15 465.55 476.07 498.91 494.54 537.25"/><path class="cls-6" d="M487.17,536.16a3.76,3.76,0,1,0,1.76-5A3.76,3.76,0,0,0,487.17,536.16Z" transform="translate(3.98 2.72)"/><path class="cls-7" d="M486.72,536.38a4.26,4.26,0,1,1,5.69,2,4.26,4.26,0,0,1-5.69-2Zm6.77-3.26a3.26,3.26,0,1,0-1.52,4.35,3.26,3.26,0,0,0,1.52-4.35Z" transform="translate(3.98 2.72)"/><line class="cls-1" x1="482.36" y1="512.49" x2="597.86" y2="512.57"/><path class="cls-6" d="M593.87,513.61a3.76,3.76,0,1,0-3.76-3.76A3.75,3.75,0,0,0,593.87,513.61Z" transform="translate(3.98 2.72)"/><path class="cls-7" d="M593.87,514.11a4.26,4.26,0,1,1,4.26-4.25,4.26,4.26,0,0,1-4.26,4.25Zm0-7.52a3.26,3.26,0,1,0,3.25,3.26,3.27,3.27,0,0,0-3.25-3.26Z" transform="translate(3.98 2.72)"/><line class="cls-1" x1="575.2" y1="512.57" x2="642.69" y2="422.53"/><path class="cls-6" d="M641.72,422.07a3.76,3.76,0,1,0-5.27.75A3.78,3.78,0,0,0,641.72,422.07Z" transform="translate(3.98 2.72)"/><path class="cls-7" d="M642.12,422.37a4.26,4.26,0,1,1-.86-6,4.27,4.27,0,0,1,.86,6C640.71,424.25,643.52,420.49,642.12,422.37Zm-6-4.51a3.26,3.26,0,1,0,4.56-.66,3.26,3.26,0,0,0-4.56.66Z" transform="translate(3.98 2.72)"/><polyline class="cls-1" points="606.52 471.15 616.5 496.97 662.08 496.48"/><path class="cls-6" d="M658.14,497.51a3.76,3.76,0,1,0-3.8-3.71A3.76,3.76,0,0,0,658.14,497.51Z" transform="translate(3.98 2.72)"/><path class="cls-7" d="M658.15,498a4.26,4.26,0,1,1,4.21-4.3,4.26,4.26,0,0,1-4.21,4.3Zm-.09-7.52a3.26,3.26,0,1,0,3.3,3.23,3.27,3.27,0,0,0-3.3-3.23C656.27,490.51,659.86,490.48,658.06,490.49Z" transform="translate(3.98 2.72)"/><line class="cls-1" x1="820.73" y1="512.43" x2="822.25" y2="276.33"/><path class="cls-6" d="M820.51,509.74a3.76,3.76,0,1,1-3.73-3.79A3.76,3.76,0,0,1,820.51,509.74Z" transform="translate(3.98 2.72)"/><path class="cls-7" d="M821,509.74a4.26,4.26,0,1,0-4.29,4.23,4.26,4.26,0,0,0,4.29-4.23C821,507.39,821,512.09,821,509.74Zm-7.52-.05a3.26,3.26,0,1,1,3.24,3.28,3.26,3.26,0,0,1-3.24-3.28Z" transform="translate(3.98 2.72)"/><path class="cls-6" d="M822,273.63a3.76,3.76,0,1,0-3.79,3.74A3.76,3.76,0,0,0,822,273.63Z" transform="translate(3.98 2.72)"/><path class="cls-7" d="M822.53,273.64a4.26,4.26,0,1,1-4.23-4.29,4.27,4.27,0,0,1,4.23,4.29C822.51,276,822.54,271.29,822.53,273.64Zm-7.52-.05a3.26,3.26,0,1,0,3.28-3.24,3.26,3.26,0,0,0-3.28,3.24Z" transform="translate(3.98 2.72)"/><line class="cls-1" x1="764.54" y1="366.87" x2="821.49" y2="310.55"/><path class="cls-6" d="M763.21,366.82a3.76,3.76,0,1,1,0-5.32A3.76,3.76,0,0,1,763.21,366.82Z" transform="translate(3.98 2.72)"/><path class="cls-7" d="M763.56,367.18a4.26,4.26,0,1,0-6,0,4.27,4.27,0,0,0,6,0Zm-5.29-5.35a3.26,3.26,0,1,1,0,4.61,3.27,3.27,0,0,1,0-4.61Z" transform="translate(3.98 2.72)"/><line class="cls-1" x1="821.49" y1="345.56" x2="847.57" y2="375.46"/><polyline class="cls-1" points="713.73 273.84 751.24 273.84 802.96 328.08"/><path class="cls-6" d="M709.75,274.88a3.76,3.76,0,1,1,3.76-3.76A3.76,3.76,0,0,1,709.75,274.88Z" transform="translate(3.98 2.72)"/><path class="cls-7" d="M709.75,275.38a4.26,4.26,0,1,0-4.26-4.26,4.26,4.26,0,0,0,4.26,4.26Zm0-7.52a3.26,3.26,0,1,1-3.26,3.26,3.26,3.26,0,0,1,3.26-3.26Z" transform="translate(3.98 2.72)"/><polyline class="cls-1" points="801.95 236.13 802.66 81.56 764.7 51.96 749.45 51.25"/><path class="cls-6" d="M801.72,233.43a3.76,3.76,0,1,1-3.74-3.78A3.76,3.76,0,0,1,801.72,233.43Z" transform="translate(3.98 2.72)"/><path class="cls-7" d="M802.22,233.43a4.26,4.26,0,1,0-4.28,4.24,4.26,4.26,0,0,0,4.28-4.24Zm-7.52,0a3.26,3.26,0,1,1,3.25,3.28,3.27,3.27,0,0,1-3.25-3.28C794.71,231.6,794.7,235.19,794.7,233.39Z" transform="translate(3.98 2.72)"/><circle class="cls-6" cx="745.47" cy="48.53" r="3.76" transform="matrix(0.56, -0.83, 0.83, 0.56, 291.16, 641.21)"/><path class="cls-7" d="M745.67,44.27a4.26,4.26,0,1,1-4.45,4.06,4.28,4.28,0,0,1,4.45-4.06Zm-.35,7.51a3.26,3.26,0,1,0-3.11-3.4,3.27,3.27,0,0,0,3.11,3.4C747.11,51.87,743.52,51.7,745.32,51.78Z" transform="translate(3.98 2.72)"/><polyline class="cls-1" points="641.82 549.4 725.82 549.4 725.82 516.11"/><path class="cls-6" d="M637.84,550.44a3.76,3.76,0,1,1,3.76-3.76A3.76,3.76,0,0,1,637.84,550.44Z" transform="translate(3.98 2.72)"/><path class="cls-7" d="M637.84,550.94a4.26,4.26,0,1,0-4.26-4.26,4.26,4.26,0,0,0,4.26,4.26Zm0-7.52a3.26,3.26,0,1,1-3.26,3.26,3.27,3.27,0,0,1,3.26-3.26Z" transform="translate(3.98 2.72)"/><path class="cls-6" d="M725.59,513.39a3.76,3.76,0,1,0-3.76,3.76A3.76,3.76,0,0,0,725.59,513.39Z" transform="translate(3.98 2.72)"/><path class="cls-7" d="M726.09,513.39a4.26,4.26,0,1,1-4.26-4.26,4.26,4.26,0,0,1,4.26,4.26Zm-7.51,0a3.26,3.26,0,1,0,3.25-3.26,3.26,3.26,0,0,0-3.25,3.26Z" transform="translate(3.98 2.72)"/><line class="cls-1" x1="617.36" y1="201.38" x2="697.41" y2="101.79"/><circle class="cls-6" cx="613.38" cy="198.66" r="3.76" transform="translate(-27.22 186.46) rotate(-16.62)"/><path class="cls-7" d="M616.7,201.33a4.26,4.26,0,1,0-6,.65,4.27,4.27,0,0,0,6-.65Zm-5.86-4.71a3.26,3.26,0,1,1,.49,4.58,3.27,3.27,0,0,1-.49-4.58C612,195.22,609.71,198,610.84,196.62Z" transform="translate(3.98 2.72)"/><path class="cls-6" d="M696.36,101.42a3.76,3.76,0,1,0-5.28.58A3.76,3.76,0,0,0,696.36,101.42Z" transform="translate(3.98 2.72)"/><path class="cls-7" d="M696.75,101.74a4.26,4.26,0,1,1-.65-6,4.27,4.27,0,0,1,.65,6ZM690.89,97a3.26,3.26,0,1,0,4.58-.5,3.26,3.26,0,0,0-4.58.5Z" transform="translate(3.98 2.72)"/><line class="cls-1" x1="679.93" y1="123.43" x2="680.3" y2="101.45"/><path class="cls-6" d="M680.08,98.79a3.76,3.76,0,1,0-3.82,3.7A3.76,3.76,0,0,0,680.08,98.79Z" transform="translate(3.98 2.72)"/><path class="cls-7" d="M680.58,98.8a4.26,4.26,0,1,1-4.19-4.33,4.26,4.26,0,0,1,4.19,4.33Zm-7.52-.13a3.26,3.26,0,1,0,3.32-3.2,3.27,3.27,0,0,0-3.32,3.2C673,100.47,673.09,96.88,673.06,98.67Z" transform="translate(3.98 2.72)"/><line class="cls-1" x1="578.99" y1="249.81" x2="551.05" y2="286.21"/><path class="cls-6" d="M572,244.8a3.76,3.76,0,1,1,.69,5.27A3.76,3.76,0,0,1,572,244.8Z" transform="translate(3.98 2.72)"/><path class="cls-7" d="M571.63,244.49a4.26,4.26,0,1,0,6-.78,4.27,4.27,0,0,0-6,.78Zm6,4.58a3.26,3.26,0,1,1-.6-4.57,3.26,3.26,0,0,1,.6,4.57Z" transform="translate(3.98 2.72)"/><polyline class="cls-1" points="790.18 512.43 790.18 461.11 750.83 429.56 713.61 396.4"/><path class="cls-6" d="M790,509.71A3.76,3.76,0,1,1,786.2,506,3.76,3.76,0,0,1,790,509.71Z" transform="translate(3.98 2.72)"/><path class="cls-7" d="M790.46,509.71A4.26,4.26,0,1,0,786.2,514a4.27,4.27,0,0,0,4.26-4.26Zm-7.52,0A3.26,3.26,0,1,1,786.2,513a3.26,3.26,0,0,1-3.26-3.26Z" transform="translate(3.98 2.72)"/><path class="cls-6" d="M712.13,390.87a3.76,3.76,0,1,0,.31,5.31A3.76,3.76,0,0,0,712.13,390.87Z" transform="translate(3.98 2.72)"/><path class="cls-7" d="M712.47,390.5a4.26,4.26,0,1,1-6,.34,4.26,4.26,0,0,1,6-.34Zm-5,5.61a3.26,3.26,0,1,0-.26-4.6,3.27,3.27,0,0,0,.26,4.6Z" transform="translate(3.98 2.72)"/><line class="cls-1" x1="750.83" y1="429.56" x2="679.83" y2="401.15"/><line class="cls-1" x1="801.95" y1="159.08" x2="763.97" y2="183.43"/><path class="cls-6" d="M758,177.55a3.76,3.76,0,1,0,5.19,1.13A3.76,3.76,0,0,0,758,177.55Z" transform="translate(3.98 2.72)"/><path class="cls-7" d="M757.69,177.13A4.26,4.26,0,1,1,756.4,183a4.26,4.26,0,0,1,1.29-5.88Zm4.06,6.33a3.26,3.26,0,1,0-4.51-1,3.27,3.27,0,0,0,4.51,1Z" transform="translate(3.98 2.72)"/><path class="cls-1" d="M735,214.22a7.91,7.91,0,0,0,5.51-2.25s.85-.71,1.23-4c.2-1.71.1-2.22.16-3.14a.82.82,0,0,1,.15-.42c3.5-4.82,7.58-9.72,4.55-15.28A13.84,13.84,0,0,0,735,181.7h0a13.64,13.64,0,0,0-11.49,7.4c-3,5.55,1,10.46,4.55,15.28a.76.76,0,0,1,.15.4c.06.91,0,1.44.16,3.16.39,3.3,1.23,4,1.23,4a7.62,7.62,0,0,0,5.46,2.28Z" transform="translate(3.98 2.72)"/><line class="cls-1" x1="732.47" y1="211.64" x2="745.57" y2="211.64"/><line class="cls-1" x1="732.15" y1="207.28" x2="745.88" y2="207.3"/><path class="cls-1" d="M735,198.72c2.07,1.06,4.58,1.4,6.27-.11s3-4,2.46-6.08a9.91,9.91,0,0,0-4.32.24c-2.34.64-4.1,3-4.41,5.92v5.88" transform="translate(3.98 2.72)"/><path class="cls-1" d="M735.09,198.72c-3,.35-6-.22-7.53-2.53a7.45,7.45,0,0,1-1-5.17,7.37,7.37,0,0,1,6.62,1.78,7.21,7.21,0,0,1,1.89,5.89" transform="translate(3.98 2.72)"/><polyline class="cls-1" points="680.79 236.33 680.27 217.2 641.75 171.99"/><path class="cls-6" d="M680.57,233.5a3.76,3.76,0,1,1-3.86-3.65A3.75,3.75,0,0,1,680.57,233.5Z" transform="translate(3.98 2.72)"/><path class="cls-7" d="M681.07,233.49a4.26,4.26,0,1,0-4.14,4.37,4.26,4.26,0,0,0,4.14-4.37C681,231.14,681.14,235.84,681.07,233.49Zm-7.52.21a3.26,3.26,0,1,1,3.35,3.16,3.28,3.28,0,0,1-3.35-3.16C673.51,231.9,673.6,235.49,673.55,233.7Z" transform="translate(3.98 2.72)"/><line class="cls-1" x1="712.33" y1="198.6" x2="664.84" y2="198.45"/><path class="cls-6" d="M708.36,192.12a3.76,3.76,0,1,1-3.77,3.75A3.76,3.76,0,0,1,708.36,192.12Z" transform="translate(3.98 2.72)"/><path class="cls-7" d="M708.36,191.62a4.26,4.26,0,1,0,4.24,4.27,4.26,4.26,0,0,0-4.24-4.27Zm0,7.52a3.26,3.26,0,1,1,3.27-3.25,3.26,3.26,0,0,1-3.27,3.25Z" transform="translate(3.98 2.72)"/><polyline class="cls-1" points="789.56 166.8 750.13 140.51 667.22 140.51"/><line class="cls-1" x1="662.89" y1="549.4" x2="642.75" y2="496.97"/><line class="cls-1" x1="548.87" y1="486.49" x2="598.18" y2="422.46"/><path class="cls-6" d="M547.87,486.07a3.76,3.76,0,1,1-.69-5.28A3.76,3.76,0,0,1,547.87,486.07Z" transform="translate(3.98 2.72)"/><path class="cls-7" d="M548.27,486.37a4.26,4.26,0,1,0-6,.78,4.26,4.26,0,0,0,6-.78C549.7,484.51,546.83,488.23,548.27,486.37Zm-6-4.59a3.26,3.26,0,1,1,.59,4.58,3.26,3.26,0,0,1-.59-4.58Z" transform="translate(3.98 2.72)"/><path class="cls-6" d="M597.18,422a3.76,3.76,0,1,0-5.28.69A3.76,3.76,0,0,0,597.18,422Z" transform="translate(3.98 2.72)"/><path class="cls-7" d="M597.57,422.34a4.26,4.26,0,1,1-.77-6,4.25,4.25,0,0,1,.77,6C596.14,424.2,599,420.48,597.57,422.34Zm-6-4.59a3.26,3.26,0,1,0,4.58-.59,3.26,3.26,0,0,0-4.58.59C590.52,419.17,592.71,416.33,591.61,417.75Z" transform="translate(3.98 2.72)"/><line class="cls-1" x1="508.93" y1="550.57" x2="578.99" y2="550.46"/><path class="cls-6" d="M505,551.61a3.76,3.76,0,1,1,3.75-3.76A3.76,3.76,0,0,1,505,551.61Z" transform="translate(3.98 2.72)"/><path class="cls-7" d="M505,552.11a4.26,4.26,0,1,0-4.27-4.25,4.25,4.25,0,0,0,4.27,4.25Zm0-7.52a3.26,3.26,0,1,1-3.26,3.27,3.27,3.27,0,0,1,3.26-3.27Z" transform="translate(3.98 2.72)"/><path class="cls-6" d="M575,551.5a3.76,3.76,0,1,0-3.77-3.76A3.77,3.77,0,0,0,575,551.5Z" transform="translate(3.98 2.72)"/><path class="cls-7" d="M575,552a4.26,4.26,0,1,1,4.25-4.27A4.28,4.28,0,0,1,575,552Zm0-7.52a3.26,3.26,0,1,0,3.26,3.25,3.26,3.26,0,0,0-3.26-3.25C573.21,544.48,576.8,544.47,575,544.48Z" transform="translate(3.98 2.72)"/><polyline class="cls-1" points="442.51 582.67 525.1 582.67 548.72 550.91"/><path class="cls-6" d="M438.53,583.71a3.76,3.76,0,1,1,3.76-3.76A3.76,3.76,0,0,1,438.53,583.71Z" transform="translate(3.98 2.72)"/><path class="cls-7" d="M438.53,584.21a4.26,4.26,0,1,0-4.26-4.26,4.26,4.26,0,0,0,4.26,4.26Zm0-7.52a3.26,3.26,0,1,1-3.26,3.26,3.26,3.26,0,0,1,3.26-3.26Z" transform="translate(3.98 2.72)"/><line class="cls-1" x1="821.49" y1="332.07" x2="738.13" y2="418.2"/><line class="cls-1" x1="534.86" y1="570.08" x2="577.77" y2="598.91"/><line class="cls-1" x1="802.96" y1="122.76" x2="848.63" y2="97.99"/><line class="cls-1" x1="524.39" y1="176.65" x2="556.67" y2="176.65"/><circle class="cls-6" cx="556.67" cy="176.65" r="3.76"/><path class="cls-7" d="M552.69,178.19a4.26,4.26,0,1,1,4.26-4.26,4.26,4.26,0,0,1-4.26,4.26Zm0-7.52a3.26,3.26,0,1,0,3.26,3.26,3.27,3.27,0,0,0-3.26-3.26Z" transform="translate(3.98 2.72)"/><polyline class="cls-1" points="533.72 176.65 558.08 139.71 558.79 100.03"/><path class="cls-6" d="M558.56,97.38a3.76,3.76,0,1,0-3.82,3.69A3.76,3.76,0,0,0,558.56,97.38Z" transform="translate(3.98 2.72)"/><path class="cls-7" d="M559.06,97.39a4.26,4.26,0,1,1-4.18-4.34,4.26,4.26,0,0,1,4.18,4.34C559,99.73,559.11,95,559.06,97.39Zm-7.51-.14a3.26,3.26,0,1,0,3.31-3.2,3.25,3.25,0,0,0-3.31,3.2C551.51,99.05,551.58,95.45,551.55,97.25Z" transform="translate(3.98 2.72)"/><line class="cls-1" x1="552.74" y1="147.87" x2="660.37" y2="147.87"/><line class="cls-1" x1="583.42" y1="100.03" x2="623.02" y2="147.87"/><path class="cls-6" d="M576.54,99.71a3.76,3.76,0,1,1,5.29.49A3.76,3.76,0,0,1,576.54,99.71Z" transform="translate(3.98 2.72)"/><path class="cls-7" d="M576.15,100a4.26,4.26,0,1,0,.57-6,4.27,4.27,0,0,0-.57,6C577.65,101.83,574.65,98.22,576.15,100Zm5.79-4.8a3.26,3.26,0,1,1-4.58-.43,3.26,3.26,0,0,1,4.58.43C583.09,96.61,580.8,93.85,581.94,95.23Z" transform="translate(3.98 2.72)"/><line class="cls-1" x1="597.86" y1="117.13" x2="598.18" y2="0.81"/><polyline class="cls-1" points="558.08 116.42 507.05 70.4 432.89 70.4"/><path class="cls-6" d="M428.91,63.92a3.76,3.76,0,1,0,3.76,3.76A3.76,3.76,0,0,0,428.91,63.92Z" transform="translate(3.98 2.72)"/><path class="cls-7" d="M428.91,63.42a4.26,4.26,0,1,1-4.26,4.26,4.26,4.26,0,0,1,4.26-4.26Zm0,7.52a3.26,3.26,0,1,0-3.26-3.26,3.27,3.27,0,0,0,3.26,3.26Z" transform="translate(3.98 2.72)"/><line class="cls-1" x1="464.21" y1="70.4" x2="379.32" y2="0.81"/><polyline class="cls-1" points="598.18 19.44 584.07 19.44 558.08 35.6"/><circle class="cls-6" cx="554.1" cy="32.88" r="3.76" transform="translate(280.06 516.03) rotate(-63.34)"/><path class="cls-7" d="M551.85,29.27a4.26,4.26,0,1,1-1.37,5.86,4.25,4.25,0,0,1,1.37-5.86C553.84,28,549.85,30.51,551.85,29.27Zm4,6.38a3.26,3.26,0,1,0-4.49-1,3.27,3.27,0,0,0,4.49,1Z" transform="translate(3.98 2.72)"/><polyline class="cls-1" points="400.34 19.44 368.62 71.89 238.28 70.4"/><path class="cls-6" d="M234.35,63.92a3.76,3.76,0,1,0,3.71,3.8A3.76,3.76,0,0,0,234.35,63.92Z" transform="translate(3.98 2.72)"/><path class="cls-7" d="M234.35,63.42A4.26,4.26,0,1,1,230,67.63a4.26,4.26,0,0,1,4.31-4.21C236.7,63.44,232,63.39,234.35,63.42Zm-.08,7.52a3.26,3.26,0,1,0-3.23-3.3,3.27,3.27,0,0,0,3.23,3.3Z" transform="translate(3.98 2.72)"/><line class="cls-1" x1="304.77" y1="71.56" x2="220.15" y2="1"/><line class="cls-1" x1="598.18" y1="51.25" x2="641.82" y2="0.81"/><path class="cls-1" d="M397.47,147.93" transform="translate(3.98 2.72)"/><polyline class="cls-1" points="245.03 21.75 217.71 21.75 207.61 38.48"/><path class="cls-6" d="M200.41,33.82a3.75,3.75,0,1,0,5.16-1.28A3.75,3.75,0,0,0,200.41,33.82Z" transform="translate(3.98 2.72)"/><path class="cls-7" d="M200,33.56a4.26,4.26,0,1,1,1.44,5.85A4.27,4.27,0,0,1,200,33.56Zm6.44,3.89a3.26,3.26,0,1,0-4.48,1.1,3.27,3.27,0,0,0,4.48-1.1Z" transform="translate(3.98 2.72)"/><line class="cls-1" x1="293.43" y1="355.49" x2="238.34" y2="355.49"/><path class="cls-6" d="M234.36,349a3.76,3.76,0,1,0,3.76,3.76A3.77,3.77,0,0,0,234.36,349Z" transform="translate(3.98 2.72)"/><path class="cls-7" d="M234.36,348.51a4.26,4.26,0,1,1-4.26,4.26,4.27,4.27,0,0,1,4.26-4.26Zm0,7.52a3.26,3.26,0,1,0-3.26-3.26,3.26,3.26,0,0,0,3.26,3.26Z" transform="translate(3.98 2.72)"/><line class="cls-1" x1="278.13" y1="261.22" x2="252.51" y2="197.5"/><circle class="cls-6" cx="274.15" cy="258.5" r="3.76" transform="translate(-69.16 115.04) rotate(-20.49)"/><path class="cls-7" d="M278.1,256.91a4.26,4.26,0,1,0-2.36,5.54,4.26,4.26,0,0,0,2.36-5.54Zm-7,2.81a3.26,3.26,0,1,1,4.24,1.8,3.28,3.28,0,0,1-4.24-1.8C270.45,258.05,271.79,261.38,271.12,259.72Z" transform="translate(3.98 2.72)"/><path class="cls-6" d="M252,193.38a3.76,3.76,0,1,0-2.09,4.89A3.77,3.77,0,0,0,252,193.38Z" transform="translate(3.98 2.72)"/><path class="cls-7" d="M252.48,193.19a4.26,4.26,0,1,1-5.54-2.36,4.26,4.26,0,0,1,5.54,2.36Zm-7,2.81a3.26,3.26,0,1,0,1.81-4.24A3.26,3.26,0,0,0,245.5,196Z" transform="translate(3.98 2.72)"/><line class="cls-1" x1="271.88" y1="247.02" x2="109.91" y2="170.57"/><path class="cls-6" d="M107.53,164.45a3.76,3.76,0,1,0,1.8,5A3.76,3.76,0,0,0,107.53,164.45Z" transform="translate(3.98 2.72)"/><path class="cls-7" d="M107.74,164a4.26,4.26,0,1,1-5.67,2,4.26,4.26,0,0,1,5.67-2Zm-3.21,6.8a3.26,3.26,0,1,0-1.55-4.34,3.26,3.26,0,0,0,1.55,4.34Z" transform="translate(3.98 2.72)"/><line class="cls-1" x1="207.61" y1="216.89" x2="206.75" y2="100.03"/><path class="cls-6" d="M206.53,97.28a3.76,3.76,0,1,0-3.73,3.79A3.76,3.76,0,0,0,206.53,97.28Z" transform="translate(3.98 2.72)"/><path class="cls-7" d="M207,97.28a4.26,4.26,0,1,1-4.29-4.23A4.27,4.27,0,0,1,207,97.28C207,99.63,207,94.93,207,97.28Zm-7.52,0a3.26,3.26,0,1,0,3.23-3.28,3.26,3.26,0,0,0-3.23,3.28C199.52,99.13,199.49,95.53,199.51,97.33Z" transform="translate(3.98 2.72)"/><line class="cls-1" x1="265.88" y1="38.48" x2="265.88" y2="1"/><line class="cls-1" x1="711.6" y1="51.25" x2="680.55" y2="0.81"/><path class="cls-6" d="M710.82,46.56a3.76,3.76,0,1,1-5.17-1.23A3.76,3.76,0,0,1,710.82,46.56Z" transform="translate(3.98 2.72)"/><path class="cls-7" d="M711.25,46.29a4.26,4.26,0,1,0-1.4,5.86,4.27,4.27,0,0,0,1.4-5.86C710,44.29,712.48,48.29,711.25,46.29Zm-6.41,4a3.26,3.26,0,1,1,4.49,1.06,3.27,3.27,0,0,1-4.49-1.06C703.9,48.71,705.79,51.77,704.84,50.24Z" transform="translate(3.98 2.72)"/><polyline class="cls-1" points="168.79 261.55 206.33 261.97 239.05 232.12"/><path class="cls-6" d="M164.76,262.59a3.76,3.76,0,1,1,3.81-3.72A3.75,3.75,0,0,1,164.76,262.59Z" transform="translate(3.98 2.72)"/><path class="cls-7" d="M164.76,263.09a4.26,4.26,0,1,0-4.21-4.31,4.27,4.27,0,0,0,4.21,4.31Zm.08-7.52a3.26,3.26,0,1,1-3.29,3.22,3.27,3.27,0,0,1,3.29-3.22Z" transform="translate(3.98 2.72)"/><polyline class="cls-1" points="168.79 1 168.79 21.75 41.13 70.44 0.98 86.38"/><polyline class="cls-1" points="253.04 153.21 278.13 115.29 278.13 70.4"/><path class="cls-6" d="M252.19,152.56a3.76,3.76,0,1,1-1.06-5.21A3.76,3.76,0,0,1,252.19,152.56Z" transform="translate(3.98 2.72)"/><path class="cls-7" d="M252.61,152.84a4.26,4.26,0,1,0-5.91,1.2,4.29,4.29,0,0,0,5.91-1.2C253.9,150.88,251.31,154.8,252.61,152.84Zm-6.27-4.15a3.26,3.26,0,1,1,.92,4.52,3.26,3.26,0,0,1-.92-4.52C247.33,147.19,245.34,150.19,246.34,148.69Z" transform="translate(3.98 2.72)"/><line class="cls-1" x1="207.61" y1="154.41" x2="223.37" y2="162.97"/><path class="cls-6" d="M217.6,163.55a3.76,3.76,0,1,0-1.52-5.1A3.76,3.76,0,0,0,217.6,163.55Z" transform="translate(3.98 2.72)"/><path class="cls-7" d="M217.36,164a4.26,4.26,0,1,1,5.77-1.71,4.25,4.25,0,0,1-5.77,1.71Zm3.58-6.61a3.26,3.26,0,1,0,1.31,4.42,3.26,3.26,0,0,0-1.31-4.42Z" transform="translate(3.98 2.72)"/><line class="cls-1" x1="381.07" y1="492.17" x2="278.13" y2="570.08"/><path class="cls-6" d="M271.88,564.36a3.76,3.76,0,1,0,5.27.73A3.76,3.76,0,0,0,271.88,564.36Z" transform="translate(3.98 2.72)"/><path class="cls-7" d="M271.58,564a4.26,4.26,0,1,1-.83,6,4.25,4.25,0,0,1,.83-6C273.45,562.55,269.7,565.38,271.58,564Zm4.54,6a3.26,3.26,0,1,0-4.57-.63,3.26,3.26,0,0,0,4.57.63Z" transform="translate(3.98 2.72)"/><line class="cls-1" x1="314.02" y1="543.42" x2="252.25" y2="410.33"/><path class="cls-6" d="M251.68,406a3.76,3.76,0,1,0-1.83,5A3.75,3.75,0,0,0,251.68,406Z" transform="translate(3.98 2.72)"/><path class="cls-7" d="M252.13,405.81a4.26,4.26,0,1,1-5.65-2.07,4.27,4.27,0,0,1,5.65,2.07ZM245.31,409a3.26,3.26,0,1,0,1.59-4.33,3.26,3.26,0,0,0-1.59,4.33C246.07,410.61,244.56,407.35,245.31,409Z" transform="translate(3.98 2.72)"/><path class="cls-1" d="M143.77,156.87l-1.37-1.73a1.92,1.92,0,0,1,.34-2.73l10.8-8.26a.84.84,0,0,1,1.16.15l2.44,3.07a.83.83,0,0,1-.13,1.16l-10.51,8.63A1.93,1.93,0,0,1,143.77,156.87Z" transform="translate(3.98 2.72)"/><rect class="cls-1" x="158.21" y="136.31" width="4.56" height="11.71" transform="translate(176.27 -69.19) rotate(51.62)"/><path class="cls-1" d="M166.5,140.35h0a5.12,5.12,0,0,1,2.35,1.3,6.33,6.33,0,0,1,1.08,6.57,0,0,0,0,0,.06,0,10.87,10.87,0,0,0,2.38-8.2,13.89,13.89,0,0,0-4.14-7.53h0c-.56.1-.89.84-1.46.93h0c-.32-.44-.6-.67-.92-1.11l-.62-.86a.25.25,0,0,1,0-.33,2.6,2.6,0,0,0,.51-.56.94.94,0,0,0,0-.85l-1-1.23a.84.84,0,0,0-1.17-.14L160.21,131a.83.83,0,0,0-.13,1.17l.92,1.17a.83.83,0,0,0,1.17.13h0a.92.92,0,0,1,1.27.27l1,1.42a.42.42,0,0,1,0,.48l-.72,1a0,0,0,0,0,0,.05Z" transform="translate(3.98 2.72)"/><path class="cls-1" d="M164.94,148.94" transform="translate(3.98 2.72)"/><line class="cls-1" x1="171.05" y1="199.43" x2="165.73" y2="162.97"/><path class="cls-6" d="M165.47,159.7a3.76,3.76,0,1,0-3.18,4.27A3.76,3.76,0,0,0,165.47,159.7Z" transform="translate(3.98 2.72)"/><path class="cls-7" d="M166,159.63a4.26,4.26,0,1,1-4.83-3.6,4.26,4.26,0,0,1,4.83,3.6C166.3,162,165.62,157.31,166,159.63Zm-7.44,1.09a3.26,3.26,0,1,0,2.75-3.7,3.26,3.26,0,0,0-2.75,3.7Z" transform="translate(3.98 2.72)"/><polyline class="cls-1" points="135.21 151.56 135.8 100.12 106.73 45.17"/><path class="cls-6" d="M135,148.88a3.76,3.76,0,1,1-3.72-3.8A3.77,3.77,0,0,1,135,148.88Z" transform="translate(3.98 2.72)"/><path class="cls-7" d="M135.49,148.89a4.26,4.26,0,1,0-4.31,4.21,4.28,4.28,0,0,0,4.31-4.21C135.51,146.54,135.46,151.24,135.49,148.89ZM128,148.8a3.26,3.26,0,1,1,3.22,3.3,3.26,3.26,0,0,1-3.22-3.3Z" transform="translate(3.98 2.72)"/><polyline class="cls-1" points="289.66 492.17 273.18 491.53 256.79 519.68"/><line class="cls-1" x1="257.69" y1="519.92" x2="171.05" y2="519.92"/><path class="cls-6" d="M167.07,513.44a3.76,3.76,0,1,0,3.76,3.76A3.76,3.76,0,0,0,167.07,513.44Z" transform="translate(3.98 2.72)"/><path class="cls-7" d="M167.07,512.94a4.26,4.26,0,1,1-4.26,4.26,4.27,4.27,0,0,1,4.26-4.26Zm0,7.52a3.26,3.26,0,1,0-3.26-3.26,3.27,3.27,0,0,0,3.26,3.26Z" transform="translate(3.98 2.72)"/><polyline class="cls-1" points="339.25 523.83 340.37 573.97 306.36 598.91"/><polyline class="cls-1" points="207.61 519.92 156.19 410.33 109.91 410.33 16.72 354.8"/><polyline class="cls-1" points="237.61 519.92 174.08 561.37 81.61 561.37"/><path class="cls-6" d="M77.63,554.89a3.76,3.76,0,1,0,3.76,3.76A3.76,3.76,0,0,0,77.63,554.89Z" transform="translate(3.98 2.72)"/><path class="cls-7" d="M77.63,554.39a4.26,4.26,0,1,1-4.26,4.26,4.26,4.26,0,0,1,4.26-4.26Zm0,7.52a3.26,3.26,0,1,0-3.26-3.26,3.26,3.26,0,0,0,3.26,3.26Z" transform="translate(3.98 2.72)"/><line class="cls-1" x1="207.61" y1="540.6" x2="230.53" y2="556.5"/><path class="cls-6" d="M224.41,556.87a3.76,3.76,0,1,0-.95-5.23A3.76,3.76,0,0,0,224.41,556.87Z" transform="translate(3.98 2.72)"/><path class="cls-7" d="M224.12,557.28a4.26,4.26,0,1,1,5.93-1.07,4.27,4.27,0,0,1-5.93,1.07Zm4.29-6.18a3.26,3.26,0,1,0,.82,4.54,3.27,3.27,0,0,0-.82-4.54C226.93,550.08,229.88,552.13,228.41,551.1Z" transform="translate(3.98 2.72)"/><line class="cls-4" x1="110.62" y1="561.5" x2="54.43" y2="598.91"/><polyline class="cls-4" points="74.29 320.78 47.85 320.78 47.85 354.5 1.01 354.78"/><path class="cls-6" d="M70.31,314.3a3.76,3.76,0,1,1-3.76,3.76A3.76,3.76,0,0,1,70.31,314.3Z" transform="translate(3.98 2.72)"/><path class="cls-7" d="M70.31,313.8a4.26,4.26,0,1,0,4.26,4.26,4.26,4.26,0,0,0-4.26-4.26Zm0,7.52a3.26,3.26,0,1,1,3.26-3.26,3.26,3.26,0,0,1-3.26,3.26Z" transform="translate(3.98 2.72)"/><line class="cls-4" x1="174.71" y1="449.79" x2="206.04" y2="409.25"/><path class="cls-6" d="M205,408.83a3.76,3.76,0,1,0-5.27.67A3.77,3.77,0,0,0,205,408.83Z" transform="translate(3.98 2.72)"/><path class="cls-7" d="M205.43,409.13a4.26,4.26,0,1,1-.77-6,4.28,4.28,0,0,1,.77,6C204,411,206.86,407.27,205.43,409.13Zm-6-4.6a3.26,3.26,0,1,0,4.57-.58,3.27,3.27,0,0,0-4.57.58C198.38,406,200.58,403.11,199.48,404.53Z" transform="translate(3.98 2.72)"/><polyline class="cls-4" points="252.25 573.97 252 590.55 67.22 590.55"/><path class="cls-6" d="M244.51,571.19a3.76,3.76,0,1,1,3.7,3.81A3.75,3.75,0,0,1,244.51,571.19Z" transform="translate(3.98 2.72)"/><path class="cls-7" d="M244,571.18a4.26,4.26,0,1,0,4.32-4.19,4.26,4.26,0,0,0-4.32,4.19Zm7.52.11a3.26,3.26,0,1,1-3.21-3.3,3.26,3.26,0,0,1,3.21,3.3C251.5,573.09,251.56,569.5,251.53,571.29Z" transform="translate(3.98 2.72)"/><line class="cls-4" x1="144.88" y1="590.55" x2="132.25" y2="598.91"/><line class="cls-4" x1="109.91" y1="354.5" x2="110.62" y2="260.84"/><path class="cls-6" d="M109.69,351.81A3.76,3.76,0,1,1,106,348,3.76,3.76,0,0,1,109.69,351.81Z" transform="translate(3.98 2.72)"/><path class="cls-7" d="M110.19,351.82a4.26,4.26,0,1,0-4.3,4.22,4.28,4.28,0,0,0,4.3-4.22C110.2,349.47,110.17,354.17,110.19,351.82Zm-7.52-.06A3.26,3.26,0,1,1,105.9,355a3.26,3.26,0,0,1-3.23-3.28C102.68,350,102.65,353.56,102.67,351.76Z" transform="translate(3.98 2.72)"/><path class="cls-6" d="M110.4,258.15a3.76,3.76,0,1,0-3.79,3.73A3.76,3.76,0,0,0,110.4,258.15Z" transform="translate(3.98 2.72)"/><path class="cls-7" d="M110.9,258.15a4.26,4.26,0,1,1-4.23-4.29,4.27,4.27,0,0,1,4.23,4.29C110.88,260.5,110.91,255.8,110.9,258.15Zm-7.52-.06a3.26,3.26,0,1,0,3.28-3.23,3.26,3.26,0,0,0-3.28,3.23C103.36,259.89,103.39,256.3,103.38,258.09Z" transform="translate(3.98 2.72)"/><line class="cls-4" x1="109.21" y1="460.32" x2="1.01" y2="460.32"/><path class="cls-6" d="M105.23,453.84a3.76,3.76,0,1,1-3.76,3.76A3.76,3.76,0,0,1,105.23,453.84Z" transform="translate(3.98 2.72)"/><path class="cls-7" d="M105.23,453.34a4.26,4.26,0,1,0,4.26,4.26,4.26,4.26,0,0,0-4.26-4.26Zm0,7.52a3.26,3.26,0,1,1,3.26-3.26,3.26,3.26,0,0,1-3.26,3.26Z" transform="translate(3.98 2.72)"/><line class="cls-4" x1="33.65" y1="460.32" x2="58.3" y2="519.92"/><path class="cls-6" d="M50.85,518.64a3.76,3.76,0,1,0,2-4.91A3.76,3.76,0,0,0,50.85,518.64Z" transform="translate(3.98 2.72)"/><path class="cls-7" d="M50.39,518.83A4.26,4.26,0,1,1,56,521.14a4.27,4.27,0,0,1-5.56-2.31C49.49,516.66,51.28,521,50.39,518.83Zm7-2.88a3.26,3.26,0,1,0-1.77,4.26A3.26,3.26,0,0,0,57.34,516C56.65,514.29,58,517.62,57.34,516Z" transform="translate(3.98 2.72)"/><rect class="cls-1" x="14.79" y="424.15" width="5.23" height="7.44" rx="2.6"/><rect class="cls-1" x="23.19" y="424.15" width="5.23" height="7.44" rx="2.6"/><rect class="cls-1" x="14.79" y="435.7" width="5.23" height="7.44" rx="2.6"/><rect class="cls-1" x="23.19" y="435.7" width="5.23" height="7.44" rx="2.6"/><rect class="cls-1" x="44.45" y="424.15" width="5.23" height="7.44" rx="2.6"/><rect class="cls-1" x="52.84" y="424.15" width="5.23" height="7.44" rx="2.6"/><rect class="cls-1" x="44.45" y="435.7" width="5.23" height="7.44" rx="2.6"/><rect class="cls-1" x="52.84" y="435.7" width="5.23" height="7.44" rx="2.6"/><rect class="cls-1" x="31.5" y="433.43" width="9.77" height="13.91" rx="3.45"/><line class="cls-1" x1="36.59" y1="433.69" x2="36.39" y2="447.34"/><circle class="cls-1" cx="36.47" cy="419.68" r="5.87"/><path class="cls-4" d="M36.82,406.76H55.33a.25.25,0,0,1,.23.15l4.09,9.73a.25.25,0,0,1-.23.35H57.88v28H7.33V417" transform="translate(3.98 2.72)"/><path class="cls-4" d="M28.08,406.76h-18a.24.24,0,0,0-.23.14l-4.58,9.73a.25.25,0,0,0,.23.36H20.39l12.1-14.86L44.72,417H57.88" transform="translate(3.98 2.72)"/><line class="cls-8" x1="36.47" y1="404.85" x2="36.47" y2="390.78"/><path class="cls-4" d="M32.49,390.07h7.42a.11.11,0,0,1,.09.16l-1.3,2a0,0,0,0,0,0,0L40,395a.1.1,0,0,1-.09.15H32.49" transform="translate(3.98 2.72)"/><polyline class="cls-8" points="36.39 416.83 36.47 419.68 35.27 421.3"/><line class="cls-4" x1="32.52" y1="365.24" x2="32.94" y2="379.66"/><path class="cls-6" d="M25.2,377.05a3.76,3.76,0,1,0,3.65-3.87A3.76,3.76,0,0,0,25.2,377.05Z" transform="translate(3.98 2.72)"/><path class="cls-7" d="M24.7,377.06a4.26,4.26,0,1,1,4.38,4.14,4.27,4.27,0,0,1-4.38-4.14C24.63,374.72,24.77,379.41,24.7,377.06Zm7.52-.22a3.26,3.26,0,1,0-3.17,3.36,3.27,3.27,0,0,0,3.17-3.36Z" transform="translate(3.98 2.72)"/><polyline class="cls-4" points="271.88 354.8 239.05 321.87 110.62 321.87"/><polyline class="cls-4" points="139.27 306.28 153.94 295.75 153.94 282.86"/><path class="cls-6" d="M153.72,280.14A3.76,3.76,0,1,0,150,283.9,3.76,3.76,0,0,0,153.72,280.14Z" transform="translate(3.98 2.72)"/><path class="cls-7" d="M154.22,280.14a4.26,4.26,0,1,1-4.26-4.26,4.26,4.26,0,0,1,4.26,4.26Zm-7.52,0a3.26,3.26,0,1,0,3.26-3.26,3.26,3.26,0,0,0-3.26,3.26Z" transform="translate(3.98 2.72)"/><polyline class="cls-4" points="73.66 462.08 73.82 495.17 117.1 519.87"/><path class="cls-6" d="M111.25,520.42a3.76,3.76,0,1,0-1.4-5.13A3.76,3.76,0,0,0,111.25,520.42Z" transform="translate(3.98 2.72)"/><path class="cls-7" d="M111,520.85a4.26,4.26,0,1,1,5.81-1.59,4.27,4.27,0,0,1-5.81,1.59Zm3.73-6.53a3.26,3.26,0,1,0,1.22,4.45,3.26,3.26,0,0,0-1.22-4.45Z" transform="translate(3.98 2.72)"/><line class="cls-1" x1="92.15" y1="460.32" x2="74.39" y2="425.13"/><path class="cls-6" d="M73.77,420.72a3.76,3.76,0,1,0-1.67,5A3.76,3.76,0,0,0,73.77,420.72Z" transform="translate(3.98 2.72)"/><path class="cls-7" d="M74.21,420.49a4.26,4.26,0,1,1-5.72-1.88,4.25,4.25,0,0,1,5.72,1.88Zm-6.71,3.39a3.26,3.26,0,1,0,1.44-4.38,3.27,3.27,0,0,0-1.44,4.38Z" transform="translate(3.98 2.72)"/><line class="cls-4" x1="109.91" y1="283.58" x2="2" y2="224.11"/><polyline class="cls-4" points="32.94 240.56 72.78 218.04 72.31 180.18"/><path class="cls-6" d="M72.08,177.41a3.76,3.76,0,1,0-3.71,3.81A3.75,3.75,0,0,0,72.08,177.41Z" transform="translate(3.98 2.72)"/><path class="cls-7" d="M72.58,177.4a4.26,4.26,0,1,1-4.31-4.2,4.26,4.26,0,0,1,4.31,4.2Zm-7.52.1a3.26,3.26,0,1,0,3.22-3.3,3.28,3.28,0,0,0-3.22,3.3C65.09,179.29,65,175.7,65.06,177.5Z" transform="translate(3.98 2.72)"/><line class="cls-1" x1="54.36" y1="228.45" x2="2" y2="201"/><line class="cls-4" x1="719.39" y1="598.74" x2="682.56" y2="550.07"/><path class="cls-4" d="M785.57,547.15" transform="translate(3.98 2.72)"/><line class="cls-4" x1="738.13" y1="598.74" x2="789.55" y2="549.87"/><path class="cls-6" d="M788.16,549.87a3.76,3.76,0,1,0-5.32-.13A3.77,3.77,0,0,0,788.16,549.87Z" transform="translate(3.98 2.72)"/><path class="cls-7" d="M788.5,550.23a4.26,4.26,0,1,1,.15-6,4.26,4.26,0,0,1-.15,6Zm-5.18-5.45a3.26,3.26,0,1,0,4.61.12,3.28,3.28,0,0,0-4.61-.12Z" transform="translate(3.98 2.72)"/><polyline class="cls-4" points="124.92 38.48 156.19 98.76 156.19 128.81"/><path class="cls-6" d="M148.45,126.09a3.76,3.76,0,1,0,3.76-3.76A3.76,3.76,0,0,0,148.45,126.09Z" transform="translate(3.98 2.72)"/><path class="cls-7" d="M148,126.09a4.26,4.26,0,1,1,4.26,4.26,4.26,4.26,0,0,1-4.26-4.26Zm7.52,0a3.26,3.26,0,1,0-3.26,3.26,3.26,3.26,0,0,0,3.26-3.26Z" transform="translate(3.98 2.72)"/><polyline class="cls-1" points="32.64 72.91 32.4 101.98 72.89 113.82"/><path class="cls-6" d="M67.85,114.71A3.76,3.76,0,1,0,65.3,110,3.77,3.77,0,0,0,67.85,114.71Z" transform="translate(3.98 2.72)"/><path class="cls-7" d="M67.71,115.19a4.26,4.26,0,1,1,5.29-2.9,4.27,4.27,0,0,1-5.29,2.9C65.46,114.53,70,115.84,67.71,115.19ZM69.82,108A3.26,3.26,0,1,0,72,112a3.26,3.26,0,0,0-2.22-4C68.1,107.46,71.55,108.47,69.82,108Z" transform="translate(3.98 2.72)"/><line class="cls-1" x1="349.04" y1="338.81" x2="411.45" y2="419.75"/><circle class="cls-6" cx="407.47" cy="417.03" r="3.76" transform="translate(-170.79 450.46) rotate(-48.68)"/><path class="cls-7" d="M404.1,419.63a4.26,4.26,0,1,1,6,.77,4.25,4.25,0,0,1-6-.77C402.66,417.77,405.53,421.49,404.1,419.63Zm5.95-4.59a3.26,3.26,0,1,0-.59,4.57,3.26,3.26,0,0,0,.59-4.57Z" transform="translate(3.98 2.72)"/><line class="cls-4" x1="112.16" y1="307.67" x2="253.04" y2="304.85"/><path class="cls-6" d="M249.13,305.89a3.76,3.76,0,1,0-3.83-3.69A3.76,3.76,0,0,0,249.13,305.89Z" transform="translate(3.98 2.72)"/><path class="cls-7" d="M249.14,306.39a4.26,4.26,0,1,1,4.17-4.35,4.26,4.26,0,0,1-4.17,4.35Zm-.15-7.52a3.26,3.26,0,1,0,3.32,3.19,3.25,3.25,0,0,0-3.32-3.19C247.19,298.9,250.79,298.83,249,298.87Z" transform="translate(3.98 2.72)"/><polyline class="cls-4" points="329.6 71.3 292.31 36.28 292.31 1"/><polyline class="cls-4" points="551.05 300.5 580.46 263.16 633.38 263.39"/><path class="cls-6" d="M629.38,264.43a3.76,3.76,0,1,0-3.74-3.77A3.76,3.76,0,0,0,629.38,264.43Z" transform="translate(3.98 2.72)"/><path class="cls-7" d="M629.38,264.93a4.26,4.26,0,1,1,4.28-4.24,4.26,4.26,0,0,1-4.28,4.24Zm0-7.52a3.26,3.26,0,1,0,3.25,3.28,3.26,3.26,0,0,0-3.25-3.28Z" transform="translate(3.98 2.72)"/><polyline class="cls-4" points="193.41 519.68 165.24 458.64 144.69 459.87"/><path class="cls-6" d="M140.49,453.39a3.76,3.76,0,1,0,4,3.53A3.77,3.77,0,0,0,140.49,453.39Z" transform="translate(3.98 2.72)"/><path class="cls-7" d="M140.46,452.9a4.26,4.26,0,1,1-4,4.5,4.25,4.25,0,0,1,4-4.5C142.8,452.75,138.11,453,140.46,452.9Zm.45,7.5a3.26,3.26,0,1,0-3.45-3.06,3.27,3.27,0,0,0,3.45,3.06Z" transform="translate(3.98 2.72)"/><line class="cls-1" x1="598.18" y1="81.37" x2="647.88" y2="82.01"/><path class="cls-6" d="M643.85,83.05a3.76,3.76,0,1,0-3.71-3.81A3.75,3.75,0,0,0,643.85,83.05Z" transform="translate(3.98 2.72)"/><path class="cls-7" d="M643.84,83.55a4.26,4.26,0,1,1,4.31-4.2,4.26,4.26,0,0,1-4.31,4.2Zm.1-7.52a3.26,3.26,0,1,0,3.21,3.3,3.26,3.26,0,0,0-3.21-3.3C642.14,76,645.73,76.06,643.94,76Z" transform="translate(3.98 2.72)"/></svg>